G04 #@! TF.GenerationSoftware,KiCad,Pcbnew,(5.0.1-3-g963ef8bb5)*
G04 #@! TF.CreationDate,2019-09-07T00:25:15+09:00*
G04 #@! TF.ProjectId,switch42,73776974636834322E6B696361645F70,rev?*
G04 #@! TF.SameCoordinates,Original*
G04 #@! TF.FileFunction,Legend,Top*
G04 #@! TF.FilePolarity,Positive*
%FSLAX46Y46*%
G04 Gerber Fmt 4.6, Leading zero omitted, Abs format (unit mm)*
G04 Created by KiCad (PCBNEW (5.0.1-3-g963ef8bb5)) date 2019 September 07, Saturday 00:25:15*
%MOMM*%
%LPD*%
G01*
G04 APERTURE LIST*
%ADD10C,0.300000*%
%ADD11C,0.120000*%
%ADD12C,0.150000*%
G04 APERTURE END LIST*
D10*
X150471085Y-51255571D02*
X150756800Y-51255571D01*
X150899657Y-51184142D01*
X150971085Y-51112714D01*
X151113942Y-50898428D01*
X151185371Y-50612714D01*
X151185371Y-50041285D01*
X151113942Y-49898428D01*
X151042514Y-49827000D01*
X150899657Y-49755571D01*
X150613942Y-49755571D01*
X150471085Y-49827000D01*
X150399657Y-49898428D01*
X150328228Y-50041285D01*
X150328228Y-50398428D01*
X150399657Y-50541285D01*
X150471085Y-50612714D01*
X150613942Y-50684142D01*
X150899657Y-50684142D01*
X151042514Y-50612714D01*
X151113942Y-50541285D01*
X151185371Y-50398428D01*
X140613942Y-50398428D02*
X140471085Y-50327000D01*
X140399657Y-50255571D01*
X140328228Y-50112714D01*
X140328228Y-50041285D01*
X140399657Y-49898428D01*
X140471085Y-49827000D01*
X140613942Y-49755571D01*
X140899657Y-49755571D01*
X141042514Y-49827000D01*
X141113942Y-49898428D01*
X141185371Y-50041285D01*
X141185371Y-50112714D01*
X141113942Y-50255571D01*
X141042514Y-50327000D01*
X140899657Y-50398428D01*
X140613942Y-50398428D01*
X140471085Y-50469857D01*
X140399657Y-50541285D01*
X140328228Y-50684142D01*
X140328228Y-50969857D01*
X140399657Y-51112714D01*
X140471085Y-51184142D01*
X140613942Y-51255571D01*
X140899657Y-51255571D01*
X141042514Y-51184142D01*
X141113942Y-51112714D01*
X141185371Y-50969857D01*
X141185371Y-50684142D01*
X141113942Y-50541285D01*
X141042514Y-50469857D01*
X140899657Y-50398428D01*
X130256800Y-49755571D02*
X131256800Y-49755571D01*
X130613942Y-51255571D01*
X121042514Y-49755571D02*
X120756800Y-49755571D01*
X120613942Y-49827000D01*
X120542514Y-49898428D01*
X120399657Y-50112714D01*
X120328228Y-50398428D01*
X120328228Y-50969857D01*
X120399657Y-51112714D01*
X120471085Y-51184142D01*
X120613942Y-51255571D01*
X120899657Y-51255571D01*
X121042514Y-51184142D01*
X121113942Y-51112714D01*
X121185371Y-50969857D01*
X121185371Y-50612714D01*
X121113942Y-50469857D01*
X121042514Y-50398428D01*
X120899657Y-50327000D01*
X120613942Y-50327000D01*
X120471085Y-50398428D01*
X120399657Y-50469857D01*
X120328228Y-50612714D01*
X111113942Y-49755571D02*
X110399657Y-49755571D01*
X110328228Y-50469857D01*
X110399657Y-50398428D01*
X110542514Y-50327000D01*
X110899657Y-50327000D01*
X111042514Y-50398428D01*
X111113942Y-50469857D01*
X111185371Y-50612714D01*
X111185371Y-50969857D01*
X111113942Y-51112714D01*
X111042514Y-51184142D01*
X110899657Y-51255571D01*
X110542514Y-51255571D01*
X110399657Y-51184142D01*
X110328228Y-51112714D01*
X101042514Y-50255571D02*
X101042514Y-51255571D01*
X100685371Y-49684142D02*
X100328228Y-50755571D01*
X101256800Y-50755571D01*
X90256800Y-49755571D02*
X91185371Y-49755571D01*
X90685371Y-50327000D01*
X90899657Y-50327000D01*
X91042514Y-50398428D01*
X91113942Y-50469857D01*
X91185371Y-50612714D01*
X91185371Y-50969857D01*
X91113942Y-51112714D01*
X91042514Y-51184142D01*
X90899657Y-51255571D01*
X90471085Y-51255571D01*
X90328228Y-51184142D01*
X90256800Y-51112714D01*
X80328228Y-49898428D02*
X80399657Y-49827000D01*
X80542514Y-49755571D01*
X80899657Y-49755571D01*
X81042514Y-49827000D01*
X81113942Y-49898428D01*
X81185371Y-50041285D01*
X81185371Y-50184142D01*
X81113942Y-50398428D01*
X80256800Y-51255571D01*
X81185371Y-51255571D01*
X71185371Y-51255571D02*
X70328228Y-51255571D01*
X70756800Y-51255571D02*
X70756800Y-49755571D01*
X70613942Y-49969857D01*
X70471085Y-50112714D01*
X70328228Y-50184142D01*
D11*
X159756800Y-44577000D02*
X159756800Y-46577000D01*
X158756800Y-44577000D02*
X158756800Y-46577000D01*
X157756800Y-44577000D02*
X157756800Y-46577000D01*
X156756800Y-44577000D02*
X156756800Y-46577000D01*
X155756800Y-44577000D02*
X155756800Y-47577000D01*
X154756800Y-44577000D02*
X154756800Y-46577000D01*
X153756800Y-44577000D02*
X153756800Y-46577000D01*
X152756800Y-44577000D02*
X152756800Y-46577000D01*
X151756800Y-44577000D02*
X151756800Y-46577000D01*
X150756800Y-44577000D02*
X150756800Y-48577000D01*
X149756800Y-44577000D02*
X149756800Y-46577000D01*
X148756800Y-44577000D02*
X148756800Y-46577000D01*
X147756800Y-44577000D02*
X147756800Y-46577000D01*
X146756800Y-44577000D02*
X146756800Y-46577000D01*
X145756800Y-44577000D02*
X145756800Y-47577000D01*
X144756800Y-44577000D02*
X144756800Y-46577000D01*
X143756800Y-44577000D02*
X143756800Y-46577000D01*
X142756800Y-44577000D02*
X142756800Y-46577000D01*
X141756800Y-45577000D02*
X141756800Y-46577000D01*
X141756800Y-44577000D02*
X141756800Y-45577000D01*
X140756800Y-44577000D02*
X140756800Y-48577000D01*
X139756800Y-44577000D02*
X139756800Y-46577000D01*
X138756800Y-44577000D02*
X138756800Y-46577000D01*
X137756800Y-44577000D02*
X137756800Y-46577000D01*
X136756800Y-44577000D02*
X136756800Y-46577000D01*
X135756800Y-44577000D02*
X135756800Y-47577000D01*
X134756800Y-44577000D02*
X134756800Y-46577000D01*
X133756800Y-44577000D02*
X133756800Y-46577000D01*
X132756800Y-44577000D02*
X132756800Y-46577000D01*
X131756800Y-44577000D02*
X131756800Y-46577000D01*
X130756800Y-44577000D02*
X130756800Y-48577000D01*
X129756800Y-44577000D02*
X129756800Y-46577000D01*
X128756800Y-44577000D02*
X128756800Y-46577000D01*
X127756800Y-44577000D02*
X127756800Y-46577000D01*
X126756800Y-44577000D02*
X126756800Y-46577000D01*
X125756800Y-44577000D02*
X125756800Y-47577000D01*
X124756800Y-44577000D02*
X124756800Y-46577000D01*
X123756800Y-44577000D02*
X123756800Y-46577000D01*
X122756800Y-44577000D02*
X122756800Y-46577000D01*
X121756800Y-44577000D02*
X121756800Y-46577000D01*
X120756800Y-44577000D02*
X120756800Y-48577000D01*
X119756800Y-44577000D02*
X119756800Y-46577000D01*
X118756800Y-44577000D02*
X118756800Y-46577000D01*
X117756800Y-44577000D02*
X117756800Y-46577000D01*
X116756800Y-44577000D02*
X116756800Y-46577000D01*
X115756800Y-44577000D02*
X115756800Y-47577000D01*
X114756800Y-44577000D02*
X114756800Y-46577000D01*
X113756800Y-44577000D02*
X113756800Y-46577000D01*
X112756800Y-44577000D02*
X112756800Y-46577000D01*
X111756800Y-44577000D02*
X111756800Y-46577000D01*
X110756800Y-44577000D02*
X110756800Y-48577000D01*
X109756800Y-44577000D02*
X109756800Y-46577000D01*
X108756800Y-46577000D02*
X108756800Y-44577000D01*
X107756800Y-44577000D02*
X107756800Y-46577000D01*
X106756800Y-46577000D02*
X106756800Y-44577000D01*
X105756800Y-44577000D02*
X105756800Y-47577000D01*
X104756800Y-46577000D02*
X104756800Y-44577000D01*
X103756800Y-44577000D02*
X103756800Y-46577000D01*
X102756800Y-46577000D02*
X102756800Y-44577000D01*
X101756800Y-44577000D02*
X101756800Y-46577000D01*
X100756800Y-48577000D02*
X100756800Y-44577000D01*
X99756800Y-44577000D02*
X99756800Y-46577000D01*
X98756800Y-46577000D02*
X98756800Y-44577000D01*
X97756800Y-44577000D02*
X97756800Y-46577000D01*
X96756800Y-46577000D02*
X96756800Y-44577000D01*
X95756800Y-44577000D02*
X95756800Y-47577000D01*
X94756800Y-46577000D02*
X94756800Y-44577000D01*
X93756800Y-44577000D02*
X93756800Y-46577000D01*
X92756800Y-46577000D02*
X92756800Y-44577000D01*
X91756800Y-44577000D02*
X91756800Y-46577000D01*
X90756800Y-44577000D02*
X90756800Y-48577000D01*
X89756800Y-44577000D02*
X89756800Y-46577000D01*
X88756800Y-44577000D02*
X88756800Y-46577000D01*
X87756800Y-44577000D02*
X87756800Y-46577000D01*
X86756800Y-44577000D02*
X86756800Y-46577000D01*
X85756800Y-44577000D02*
X85756800Y-47577000D01*
X84756800Y-44577000D02*
X84756800Y-46577000D01*
X83756800Y-44577000D02*
X83756800Y-46577000D01*
X82756800Y-44577000D02*
X82756800Y-46577000D01*
X81756800Y-44577000D02*
X81756800Y-46577000D01*
X80756800Y-44577000D02*
X80756800Y-48577000D01*
X79756800Y-44577000D02*
X79756800Y-46577000D01*
X78756800Y-44577000D02*
X78756800Y-46577000D01*
X77756800Y-44577000D02*
X77756800Y-46577000D01*
X76756800Y-44577000D02*
X76756800Y-46577000D01*
X75756800Y-44577000D02*
X75756800Y-47577000D01*
X74756800Y-44577000D02*
X74756800Y-46577000D01*
X73756800Y-44577000D02*
X73756800Y-46577000D01*
X72756800Y-44577000D02*
X72756800Y-46577000D01*
X71756800Y-44577000D02*
X71756800Y-46577000D01*
X70756800Y-44577000D02*
X70756800Y-48577000D01*
X69756800Y-44577000D02*
X69756800Y-46577000D01*
X68756800Y-44577000D02*
X68756800Y-46577000D01*
X67756800Y-44577000D02*
X67756800Y-46577000D01*
X66756800Y-44577000D02*
X66756800Y-46577000D01*
X65756800Y-44577000D02*
X65756800Y-47577000D01*
X64756800Y-44577000D02*
X64756800Y-46577000D01*
X63756800Y-44577000D02*
X63756800Y-46577000D01*
X62756800Y-44577000D02*
X62756800Y-46577000D01*
X61756800Y-44577000D02*
X61756800Y-46577000D01*
G04 #@! TO.C,D1*
X73706800Y-63027000D02*
X73706800Y-61952000D01*
X67806800Y-63027000D02*
X73706800Y-63027000D01*
X67806800Y-59127000D02*
X73706800Y-59127000D01*
G04 #@! TO.C,D2*
X87806800Y-59127000D02*
X93706800Y-59127000D01*
X87806800Y-63027000D02*
X93706800Y-63027000D01*
X93706800Y-63027000D02*
X93706800Y-61952000D01*
G04 #@! TO.C,D3*
X113706800Y-63027000D02*
X113706800Y-61952000D01*
X107806800Y-63027000D02*
X113706800Y-63027000D01*
X107806800Y-59127000D02*
X113706800Y-59127000D01*
G04 #@! TO.C,D4*
X127806800Y-59127000D02*
X133706800Y-59127000D01*
X127806800Y-63027000D02*
X133706800Y-63027000D01*
X133706800Y-63027000D02*
X133706800Y-61952000D01*
G04 #@! TO.C,D5*
X153706800Y-63027000D02*
X153706800Y-61952000D01*
X147806800Y-63027000D02*
X153706800Y-63027000D01*
X147806800Y-59127000D02*
X153706800Y-59127000D01*
G04 #@! TO.C,D1*
D12*
X67542514Y-60654380D02*
X66971085Y-60654380D01*
X67256800Y-60654380D02*
X67256800Y-59654380D01*
X67161561Y-59797238D01*
X67066323Y-59892476D01*
X66971085Y-59940095D01*
G04 #@! TO.C,D2*
X87542514Y-60654380D02*
X86971085Y-60654380D01*
X87256800Y-60654380D02*
X87256800Y-59654380D01*
X87161561Y-59797238D01*
X87066323Y-59892476D01*
X86971085Y-59940095D01*
G04 #@! TO.C,D3*
X107542514Y-60654380D02*
X106971085Y-60654380D01*
X107256800Y-60654380D02*
X107256800Y-59654380D01*
X107161561Y-59797238D01*
X107066323Y-59892476D01*
X106971085Y-59940095D01*
G04 #@! TO.C,D4*
X127542514Y-60654380D02*
X126971085Y-60654380D01*
X127256800Y-60654380D02*
X127256800Y-59654380D01*
X127161561Y-59797238D01*
X127066323Y-59892476D01*
X126971085Y-59940095D01*
G04 #@! TO.C,D5*
X147542514Y-60654380D02*
X146971085Y-60654380D01*
X147256800Y-60654380D02*
X147256800Y-59654380D01*
X147161561Y-59797238D01*
X147066323Y-59892476D01*
X146971085Y-59940095D01*
G04 #@! TD*
M02*
