G04 #@! TF.GenerationSoftware,KiCad,Pcbnew,(5.0.1-3-g963ef8bb5)*
G04 #@! TF.CreationDate,2019-09-07T00:25:15+09:00*
G04 #@! TF.ProjectId,switch42,73776974636834322E6B696361645F70,rev?*
G04 #@! TF.SameCoordinates,Original*
G04 #@! TF.FileFunction,Soldermask,Top*
G04 #@! TF.FilePolarity,Negative*
%FSLAX46Y46*%
G04 Gerber Fmt 4.6, Leading zero omitted, Abs format (unit mm)*
G04 Created by KiCad (PCBNEW (5.0.1-3-g963ef8bb5)) date 2019 September 07, Saturday 00:25:15*
%MOMM*%
%LPD*%
G01*
G04 APERTURE LIST*
%ADD10C,0.200000*%
%ADD11C,0.100000*%
G04 APERTURE END LIST*
D10*
X111161561Y-55243666D02*
X111637752Y-55243666D01*
X111066323Y-55529380D02*
X111399657Y-54529380D01*
X111732990Y-55529380D01*
X112494895Y-55481761D02*
X112399657Y-55529380D01*
X112209180Y-55529380D01*
X112113942Y-55481761D01*
X112066323Y-55434142D01*
X112018704Y-55338904D01*
X112018704Y-55053190D01*
X112066323Y-54957952D01*
X112113942Y-54910333D01*
X112209180Y-54862714D01*
X112399657Y-54862714D01*
X112494895Y-54910333D01*
X112923466Y-55529380D02*
X112923466Y-54862714D01*
X112923466Y-55053190D02*
X112971085Y-54957952D01*
X113018704Y-54910333D01*
X113113942Y-54862714D01*
X113209180Y-54862714D01*
X113447276Y-54862714D02*
X113685371Y-55529380D01*
X113923466Y-54862714D02*
X113685371Y-55529380D01*
X113590133Y-55767476D01*
X113542514Y-55815095D01*
X113447276Y-55862714D01*
X114447276Y-55529380D02*
X114352038Y-55481761D01*
X114304419Y-55386523D01*
X114304419Y-54529380D01*
X114828228Y-55529380D02*
X114828228Y-54862714D01*
X114828228Y-54529380D02*
X114780609Y-54577000D01*
X114828228Y-54624619D01*
X114875847Y-54577000D01*
X114828228Y-54529380D01*
X114828228Y-54624619D01*
X115732990Y-55481761D02*
X115637752Y-55529380D01*
X115447276Y-55529380D01*
X115352038Y-55481761D01*
X115304419Y-55434142D01*
X115256800Y-55338904D01*
X115256800Y-55053190D01*
X115304419Y-54957952D01*
X115352038Y-54910333D01*
X115447276Y-54862714D01*
X115637752Y-54862714D01*
X115732990Y-54910333D01*
X116923466Y-55529380D02*
X116923466Y-54529380D01*
X116923466Y-54910333D02*
X117018704Y-54862714D01*
X117209180Y-54862714D01*
X117304419Y-54910333D01*
X117352038Y-54957952D01*
X117399657Y-55053190D01*
X117399657Y-55338904D01*
X117352038Y-55434142D01*
X117304419Y-55481761D01*
X117209180Y-55529380D01*
X117018704Y-55529380D01*
X116923466Y-55481761D01*
X117971085Y-55529380D02*
X117875847Y-55481761D01*
X117828228Y-55386523D01*
X117828228Y-54529380D01*
X118494895Y-55529380D02*
X118399657Y-55481761D01*
X118352038Y-55434142D01*
X118304419Y-55338904D01*
X118304419Y-55053190D01*
X118352038Y-54957952D01*
X118399657Y-54910333D01*
X118494895Y-54862714D01*
X118637752Y-54862714D01*
X118732990Y-54910333D01*
X118780609Y-54957952D01*
X118828228Y-55053190D01*
X118828228Y-55338904D01*
X118780609Y-55434142D01*
X118732990Y-55481761D01*
X118637752Y-55529380D01*
X118494895Y-55529380D01*
X119685371Y-55481761D02*
X119590133Y-55529380D01*
X119399657Y-55529380D01*
X119304419Y-55481761D01*
X119256800Y-55434142D01*
X119209180Y-55338904D01*
X119209180Y-55053190D01*
X119256800Y-54957952D01*
X119304419Y-54910333D01*
X119399657Y-54862714D01*
X119590133Y-54862714D01*
X119685371Y-54910333D01*
X120113942Y-55529380D02*
X120113942Y-54529380D01*
X120209180Y-55148428D02*
X120494895Y-55529380D01*
X120494895Y-54862714D02*
X120113942Y-55243666D01*
X121685371Y-55529380D02*
X121685371Y-54529380D01*
X122113942Y-55529380D02*
X122113942Y-55005571D01*
X122066323Y-54910333D01*
X121971085Y-54862714D01*
X121828228Y-54862714D01*
X121732990Y-54910333D01*
X121685371Y-54957952D01*
X122590133Y-55529380D02*
X122590133Y-54862714D01*
X122590133Y-54529380D02*
X122542514Y-54577000D01*
X122590133Y-54624619D01*
X122637752Y-54577000D01*
X122590133Y-54529380D01*
X122590133Y-54624619D01*
X123066323Y-55529380D02*
X123066323Y-54529380D01*
X123161561Y-55148428D02*
X123447276Y-55529380D01*
X123447276Y-54862714D02*
X123066323Y-55243666D01*
X124304419Y-55529380D02*
X124304419Y-55005571D01*
X124256800Y-54910333D01*
X124161561Y-54862714D01*
X123971085Y-54862714D01*
X123875847Y-54910333D01*
X124304419Y-55481761D02*
X124209180Y-55529380D01*
X123971085Y-55529380D01*
X123875847Y-55481761D01*
X123828228Y-55386523D01*
X123828228Y-55291285D01*
X123875847Y-55196047D01*
X123971085Y-55148428D01*
X124209180Y-55148428D01*
X124304419Y-55100809D01*
X124780609Y-55529380D02*
X124780609Y-54862714D01*
X124780609Y-55053190D02*
X124828228Y-54957952D01*
X124875847Y-54910333D01*
X124971085Y-54862714D01*
X125066323Y-54862714D01*
X125828228Y-54862714D02*
X125828228Y-55529380D01*
X125399657Y-54862714D02*
X125399657Y-55386523D01*
X125447276Y-55481761D01*
X125542514Y-55529380D01*
X125685371Y-55529380D01*
X125780609Y-55481761D01*
X125828228Y-55434142D01*
X126304419Y-55529380D02*
X126304419Y-54862714D01*
X126304419Y-54529380D02*
X126256800Y-54577000D01*
X126304419Y-54624619D01*
X126352038Y-54577000D01*
X126304419Y-54529380D01*
X126304419Y-54624619D01*
X126780609Y-54862714D02*
X126780609Y-55529380D01*
X126780609Y-54957952D02*
X126828228Y-54910333D01*
X126923466Y-54862714D01*
X127066323Y-54862714D01*
X127161561Y-54910333D01*
X127209180Y-55005571D01*
X127209180Y-55529380D01*
X127828228Y-55529380D02*
X127732990Y-55481761D01*
X127685371Y-55434142D01*
X127637752Y-55338904D01*
X127637752Y-55053190D01*
X127685371Y-54957952D01*
X127732990Y-54910333D01*
X127828228Y-54862714D01*
X127971085Y-54862714D01*
X128066323Y-54910333D01*
X128113942Y-54957952D01*
X128161561Y-55053190D01*
X128161561Y-55338904D01*
X128113942Y-55434142D01*
X128066323Y-55481761D01*
X127971085Y-55529380D01*
X127828228Y-55529380D01*
X130066323Y-54481761D02*
X129209180Y-55767476D01*
X131161561Y-55529380D02*
X131161561Y-54529380D01*
X131542514Y-54529380D01*
X131637752Y-54577000D01*
X131685371Y-54624619D01*
X131732990Y-54719857D01*
X131732990Y-54862714D01*
X131685371Y-54957952D01*
X131637752Y-55005571D01*
X131542514Y-55053190D01*
X131161561Y-55053190D01*
X132732990Y-55434142D02*
X132685371Y-55481761D01*
X132542514Y-55529380D01*
X132447276Y-55529380D01*
X132304419Y-55481761D01*
X132209180Y-55386523D01*
X132161561Y-55291285D01*
X132113942Y-55100809D01*
X132113942Y-54957952D01*
X132161561Y-54767476D01*
X132209180Y-54672238D01*
X132304419Y-54577000D01*
X132447276Y-54529380D01*
X132542514Y-54529380D01*
X132685371Y-54577000D01*
X132732990Y-54624619D01*
X133494895Y-55005571D02*
X133637752Y-55053190D01*
X133685371Y-55100809D01*
X133732990Y-55196047D01*
X133732990Y-55338904D01*
X133685371Y-55434142D01*
X133637752Y-55481761D01*
X133542514Y-55529380D01*
X133161561Y-55529380D01*
X133161561Y-54529380D01*
X133494895Y-54529380D01*
X133590133Y-54577000D01*
X133637752Y-54624619D01*
X133685371Y-54719857D01*
X133685371Y-54815095D01*
X133637752Y-54910333D01*
X133590133Y-54957952D01*
X133494895Y-55005571D01*
X133161561Y-55005571D01*
X134828228Y-54862714D02*
X135066323Y-55529380D01*
X135304419Y-54862714D01*
X135875847Y-54529380D02*
X135971085Y-54529380D01*
X136066323Y-54577000D01*
X136113942Y-54624619D01*
X136161561Y-54719857D01*
X136209180Y-54910333D01*
X136209180Y-55148428D01*
X136161561Y-55338904D01*
X136113942Y-55434142D01*
X136066323Y-55481761D01*
X135971085Y-55529380D01*
X135875847Y-55529380D01*
X135780609Y-55481761D01*
X135732990Y-55434142D01*
X135685371Y-55338904D01*
X135637752Y-55148428D01*
X135637752Y-54910333D01*
X135685371Y-54719857D01*
X135732990Y-54624619D01*
X135780609Y-54577000D01*
X135875847Y-54529380D01*
X136637752Y-55434142D02*
X136685371Y-55481761D01*
X136637752Y-55529380D01*
X136590133Y-55481761D01*
X136637752Y-55434142D01*
X136637752Y-55529380D01*
X137637752Y-55529380D02*
X137066323Y-55529380D01*
X137352038Y-55529380D02*
X137352038Y-54529380D01*
X137256800Y-54672238D01*
X137161561Y-54767476D01*
X137066323Y-54815095D01*
X139256800Y-55529380D02*
X139256800Y-54529380D01*
X139256800Y-55481761D02*
X139161561Y-55529380D01*
X138971085Y-55529380D01*
X138875847Y-55481761D01*
X138828228Y-55434142D01*
X138780609Y-55338904D01*
X138780609Y-55053190D01*
X138828228Y-54957952D01*
X138875847Y-54910333D01*
X138971085Y-54862714D01*
X139161561Y-54862714D01*
X139256800Y-54910333D01*
X140113942Y-55481761D02*
X140018704Y-55529380D01*
X139828228Y-55529380D01*
X139732990Y-55481761D01*
X139685371Y-55386523D01*
X139685371Y-55005571D01*
X139732990Y-54910333D01*
X139828228Y-54862714D01*
X140018704Y-54862714D01*
X140113942Y-54910333D01*
X140161561Y-55005571D01*
X140161561Y-55100809D01*
X139685371Y-55196047D01*
X140542514Y-55481761D02*
X140637752Y-55529380D01*
X140828228Y-55529380D01*
X140923466Y-55481761D01*
X140971085Y-55386523D01*
X140971085Y-55338904D01*
X140923466Y-55243666D01*
X140828228Y-55196047D01*
X140685371Y-55196047D01*
X140590133Y-55148428D01*
X140542514Y-55053190D01*
X140542514Y-55005571D01*
X140590133Y-54910333D01*
X140685371Y-54862714D01*
X140828228Y-54862714D01*
X140923466Y-54910333D01*
X141399657Y-55529380D02*
X141399657Y-54862714D01*
X141399657Y-54529380D02*
X141352038Y-54577000D01*
X141399657Y-54624619D01*
X141447276Y-54577000D01*
X141399657Y-54529380D01*
X141399657Y-54624619D01*
X142304419Y-54862714D02*
X142304419Y-55672238D01*
X142256800Y-55767476D01*
X142209180Y-55815095D01*
X142113942Y-55862714D01*
X141971085Y-55862714D01*
X141875847Y-55815095D01*
X142304419Y-55481761D02*
X142209180Y-55529380D01*
X142018704Y-55529380D01*
X141923466Y-55481761D01*
X141875847Y-55434142D01*
X141828228Y-55338904D01*
X141828228Y-55053190D01*
X141875847Y-54957952D01*
X141923466Y-54910333D01*
X142018704Y-54862714D01*
X142209180Y-54862714D01*
X142304419Y-54910333D01*
X142780609Y-54862714D02*
X142780609Y-55529380D01*
X142780609Y-54957952D02*
X142828228Y-54910333D01*
X142923466Y-54862714D01*
X143066323Y-54862714D01*
X143161561Y-54910333D01*
X143209180Y-55005571D01*
X143209180Y-55529380D01*
X144066323Y-55481761D02*
X143971085Y-55529380D01*
X143780609Y-55529380D01*
X143685371Y-55481761D01*
X143637752Y-55386523D01*
X143637752Y-55005571D01*
X143685371Y-54910333D01*
X143780609Y-54862714D01*
X143971085Y-54862714D01*
X144066323Y-54910333D01*
X144113942Y-55005571D01*
X144113942Y-55100809D01*
X143637752Y-55196047D01*
X144971085Y-55529380D02*
X144971085Y-54529380D01*
X144971085Y-55481761D02*
X144875847Y-55529380D01*
X144685371Y-55529380D01*
X144590133Y-55481761D01*
X144542514Y-55434142D01*
X144494895Y-55338904D01*
X144494895Y-55053190D01*
X144542514Y-54957952D01*
X144590133Y-54910333D01*
X144685371Y-54862714D01*
X144875847Y-54862714D01*
X144971085Y-54910333D01*
X146209180Y-55529380D02*
X146209180Y-54529380D01*
X146209180Y-54910333D02*
X146304419Y-54862714D01*
X146494895Y-54862714D01*
X146590133Y-54910333D01*
X146637752Y-54957952D01*
X146685371Y-55053190D01*
X146685371Y-55338904D01*
X146637752Y-55434142D01*
X146590133Y-55481761D01*
X146494895Y-55529380D01*
X146304419Y-55529380D01*
X146209180Y-55481761D01*
X147018704Y-54862714D02*
X147256800Y-55529380D01*
X147494895Y-54862714D02*
X147256800Y-55529380D01*
X147161561Y-55767476D01*
X147113942Y-55815095D01*
X147018704Y-55862714D01*
X148542514Y-54862714D02*
X149066323Y-54862714D01*
X148542514Y-55529380D01*
X149066323Y-55529380D01*
X149447276Y-55529380D02*
X149447276Y-54529380D01*
X149542514Y-55148428D02*
X149828228Y-55529380D01*
X149828228Y-54862714D02*
X149447276Y-55243666D01*
X150256800Y-55148428D02*
X151018704Y-55148428D01*
X151494895Y-54862714D02*
X151494895Y-55862714D01*
X151494895Y-54910333D02*
X151590133Y-54862714D01*
X151780609Y-54862714D01*
X151875847Y-54910333D01*
X151923466Y-54957952D01*
X151971085Y-55053190D01*
X151971085Y-55338904D01*
X151923466Y-55434142D01*
X151875847Y-55481761D01*
X151780609Y-55529380D01*
X151590133Y-55529380D01*
X151494895Y-55481761D01*
X152399657Y-55529380D02*
X152399657Y-54529380D01*
X152828228Y-55529380D02*
X152828228Y-55005571D01*
X152780609Y-54910333D01*
X152685371Y-54862714D01*
X152542514Y-54862714D01*
X152447276Y-54910333D01*
X152399657Y-54957952D01*
X153304419Y-55529380D02*
X153304419Y-54862714D01*
X153304419Y-54529380D02*
X153256800Y-54577000D01*
X153304419Y-54624619D01*
X153352038Y-54577000D01*
X153304419Y-54529380D01*
X153304419Y-54624619D01*
D11*
G36*
X158606826Y-60923115D02*
X158825212Y-61013573D01*
X159021758Y-61144901D01*
X159188899Y-61312042D01*
X159320227Y-61508588D01*
X159410685Y-61726974D01*
X159456800Y-61958809D01*
X159456800Y-62195191D01*
X159410685Y-62427026D01*
X159320227Y-62645412D01*
X159188899Y-62841958D01*
X159021758Y-63009099D01*
X158825212Y-63140427D01*
X158606826Y-63230885D01*
X158374991Y-63277000D01*
X158138609Y-63277000D01*
X157906774Y-63230885D01*
X157688388Y-63140427D01*
X157491842Y-63009099D01*
X157324701Y-62841958D01*
X157193373Y-62645412D01*
X157102915Y-62427026D01*
X157056800Y-62195191D01*
X157056800Y-61958809D01*
X157102915Y-61726974D01*
X157193373Y-61508588D01*
X157324701Y-61312042D01*
X157491842Y-61144901D01*
X157688388Y-61013573D01*
X157906774Y-60923115D01*
X158138609Y-60877000D01*
X158374991Y-60877000D01*
X158606826Y-60923115D01*
X158606826Y-60923115D01*
G37*
G36*
X63606826Y-60923115D02*
X63825212Y-61013573D01*
X64021758Y-61144901D01*
X64188899Y-61312042D01*
X64320227Y-61508588D01*
X64410685Y-61726974D01*
X64456800Y-61958809D01*
X64456800Y-62195191D01*
X64410685Y-62427026D01*
X64320227Y-62645412D01*
X64188899Y-62841958D01*
X64021758Y-63009099D01*
X63825212Y-63140427D01*
X63606826Y-63230885D01*
X63374991Y-63277000D01*
X63138609Y-63277000D01*
X62906774Y-63230885D01*
X62688388Y-63140427D01*
X62491842Y-63009099D01*
X62324701Y-62841958D01*
X62193373Y-62645412D01*
X62102915Y-62427026D01*
X62056800Y-62195191D01*
X62056800Y-61958809D01*
X62102915Y-61726974D01*
X62193373Y-61508588D01*
X62324701Y-61312042D01*
X62491842Y-61144901D01*
X62688388Y-61013573D01*
X62906774Y-60923115D01*
X63138609Y-60877000D01*
X63374991Y-60877000D01*
X63606826Y-60923115D01*
X63606826Y-60923115D01*
G37*
G36*
X133306800Y-62377000D02*
X131706800Y-62377000D01*
X131706800Y-61527000D01*
X133306800Y-61527000D01*
X133306800Y-62377000D01*
X133306800Y-62377000D01*
G37*
G36*
X129806800Y-62377000D02*
X128206800Y-62377000D01*
X128206800Y-61527000D01*
X129806800Y-61527000D01*
X129806800Y-62377000D01*
X129806800Y-62377000D01*
G37*
G36*
X113306800Y-62377000D02*
X111706800Y-62377000D01*
X111706800Y-61527000D01*
X113306800Y-61527000D01*
X113306800Y-62377000D01*
X113306800Y-62377000D01*
G37*
G36*
X109806800Y-62377000D02*
X108206800Y-62377000D01*
X108206800Y-61527000D01*
X109806800Y-61527000D01*
X109806800Y-62377000D01*
X109806800Y-62377000D01*
G37*
G36*
X93306800Y-62377000D02*
X91706800Y-62377000D01*
X91706800Y-61527000D01*
X93306800Y-61527000D01*
X93306800Y-62377000D01*
X93306800Y-62377000D01*
G37*
G36*
X89806800Y-62377000D02*
X88206800Y-62377000D01*
X88206800Y-61527000D01*
X89806800Y-61527000D01*
X89806800Y-62377000D01*
X89806800Y-62377000D01*
G37*
G36*
X73306800Y-62377000D02*
X71706800Y-62377000D01*
X71706800Y-61527000D01*
X73306800Y-61527000D01*
X73306800Y-62377000D01*
X73306800Y-62377000D01*
G37*
G36*
X69806800Y-62377000D02*
X68206800Y-62377000D01*
X68206800Y-61527000D01*
X69806800Y-61527000D01*
X69806800Y-62377000D01*
X69806800Y-62377000D01*
G37*
G36*
X149806800Y-62377000D02*
X148206800Y-62377000D01*
X148206800Y-61527000D01*
X149806800Y-61527000D01*
X149806800Y-62377000D01*
X149806800Y-62377000D01*
G37*
G36*
X153306800Y-62377000D02*
X151706800Y-62377000D01*
X151706800Y-61527000D01*
X153306800Y-61527000D01*
X153306800Y-62377000D01*
X153306800Y-62377000D01*
G37*
G36*
X69806800Y-60627000D02*
X68206800Y-60627000D01*
X68206800Y-59777000D01*
X69806800Y-59777000D01*
X69806800Y-60627000D01*
X69806800Y-60627000D01*
G37*
G36*
X73306800Y-60627000D02*
X71706800Y-60627000D01*
X71706800Y-59777000D01*
X73306800Y-59777000D01*
X73306800Y-60627000D01*
X73306800Y-60627000D01*
G37*
G36*
X149806800Y-60627000D02*
X148206800Y-60627000D01*
X148206800Y-59777000D01*
X149806800Y-59777000D01*
X149806800Y-60627000D01*
X149806800Y-60627000D01*
G37*
G36*
X129806800Y-60627000D02*
X128206800Y-60627000D01*
X128206800Y-59777000D01*
X129806800Y-59777000D01*
X129806800Y-60627000D01*
X129806800Y-60627000D01*
G37*
G36*
X89806800Y-60627000D02*
X88206800Y-60627000D01*
X88206800Y-59777000D01*
X89806800Y-59777000D01*
X89806800Y-60627000D01*
X89806800Y-60627000D01*
G37*
G36*
X93306800Y-60627000D02*
X91706800Y-60627000D01*
X91706800Y-59777000D01*
X93306800Y-59777000D01*
X93306800Y-60627000D01*
X93306800Y-60627000D01*
G37*
G36*
X133306800Y-60627000D02*
X131706800Y-60627000D01*
X131706800Y-59777000D01*
X133306800Y-59777000D01*
X133306800Y-60627000D01*
X133306800Y-60627000D01*
G37*
G36*
X109806800Y-60627000D02*
X108206800Y-60627000D01*
X108206800Y-59777000D01*
X109806800Y-59777000D01*
X109806800Y-60627000D01*
X109806800Y-60627000D01*
G37*
G36*
X113306800Y-60627000D02*
X111706800Y-60627000D01*
X111706800Y-59777000D01*
X113306800Y-59777000D01*
X113306800Y-60627000D01*
X113306800Y-60627000D01*
G37*
G36*
X153306800Y-60627000D02*
X151706800Y-60627000D01*
X151706800Y-59777000D01*
X153306800Y-59777000D01*
X153306800Y-60627000D01*
X153306800Y-60627000D01*
G37*
G36*
X62686921Y-57485682D02*
X62800021Y-57519990D01*
X62904255Y-57575704D01*
X62995617Y-57650683D01*
X63070596Y-57742045D01*
X63126310Y-57846279D01*
X63160618Y-57959379D01*
X63172203Y-58077000D01*
X63160618Y-58194621D01*
X63126310Y-58307721D01*
X63070596Y-58411955D01*
X62995617Y-58503317D01*
X62904255Y-58578296D01*
X62800021Y-58634010D01*
X62686921Y-58668318D01*
X62598774Y-58677000D01*
X61839826Y-58677000D01*
X61751679Y-58668318D01*
X61638579Y-58634010D01*
X61534345Y-58578296D01*
X61442983Y-58503317D01*
X61368004Y-58411955D01*
X61312290Y-58307721D01*
X61277982Y-58194621D01*
X61266397Y-58077000D01*
X61277982Y-57959379D01*
X61312290Y-57846279D01*
X61368004Y-57742045D01*
X61442983Y-57650683D01*
X61534345Y-57575704D01*
X61638579Y-57519990D01*
X61751679Y-57485682D01*
X61839826Y-57477000D01*
X62598774Y-57477000D01*
X62686921Y-57485682D01*
X62686921Y-57485682D01*
G37*
G36*
X65046734Y-56363144D02*
X65130775Y-56379861D01*
X65262716Y-56434513D01*
X65262717Y-56434514D01*
X65381464Y-56513858D01*
X65482442Y-56614836D01*
X65482444Y-56614839D01*
X65561787Y-56733584D01*
X65616439Y-56865525D01*
X65644300Y-57005594D01*
X65644300Y-57148406D01*
X65616439Y-57288475D01*
X65561787Y-57420416D01*
X65495254Y-57519990D01*
X65482442Y-57539164D01*
X65381464Y-57640142D01*
X65381461Y-57640144D01*
X65262716Y-57719487D01*
X65130775Y-57774139D01*
X65046734Y-57790856D01*
X64990708Y-57802000D01*
X64847892Y-57802000D01*
X64791866Y-57790856D01*
X64707825Y-57774139D01*
X64575884Y-57719487D01*
X64457139Y-57640144D01*
X64457136Y-57640142D01*
X64356158Y-57539164D01*
X64343346Y-57519990D01*
X64276813Y-57420416D01*
X64222161Y-57288475D01*
X64194300Y-57148406D01*
X64194300Y-57005594D01*
X64222161Y-56865525D01*
X64276813Y-56733584D01*
X64356156Y-56614839D01*
X64356158Y-56614836D01*
X64457136Y-56513858D01*
X64575883Y-56434514D01*
X64575884Y-56434513D01*
X64707825Y-56379861D01*
X64791866Y-56363144D01*
X64847892Y-56352000D01*
X64990708Y-56352000D01*
X65046734Y-56363144D01*
X65046734Y-56363144D01*
G37*
G36*
X65046734Y-51363144D02*
X65130775Y-51379861D01*
X65262716Y-51434513D01*
X65262717Y-51434514D01*
X65381464Y-51513858D01*
X65482442Y-51614836D01*
X65482444Y-51614839D01*
X65561787Y-51733584D01*
X65616439Y-51865525D01*
X65644300Y-52005594D01*
X65644300Y-52148406D01*
X65616439Y-52288475D01*
X65561787Y-52420416D01*
X65561786Y-52420417D01*
X65482442Y-52539164D01*
X65381464Y-52640142D01*
X65381461Y-52640144D01*
X65262716Y-52719487D01*
X65130775Y-52774139D01*
X65046734Y-52790856D01*
X64990708Y-52802000D01*
X64847892Y-52802000D01*
X64791866Y-52790856D01*
X64707825Y-52774139D01*
X64575884Y-52719487D01*
X64457139Y-52640144D01*
X64457136Y-52640142D01*
X64356158Y-52539164D01*
X64276814Y-52420417D01*
X64276813Y-52420416D01*
X64222161Y-52288475D01*
X64194300Y-52148406D01*
X64194300Y-52005594D01*
X64222161Y-51865525D01*
X64276813Y-51733584D01*
X64356156Y-51614839D01*
X64356158Y-51614836D01*
X64457136Y-51513858D01*
X64575883Y-51434514D01*
X64575884Y-51434513D01*
X64707825Y-51379861D01*
X64791866Y-51363144D01*
X64847892Y-51352000D01*
X64990708Y-51352000D01*
X65046734Y-51363144D01*
X65046734Y-51363144D01*
G37*
G36*
X62686921Y-50485682D02*
X62800021Y-50519990D01*
X62904255Y-50575704D01*
X62995617Y-50650683D01*
X63070596Y-50742045D01*
X63126310Y-50846279D01*
X63160618Y-50959379D01*
X63172203Y-51077000D01*
X63160618Y-51194621D01*
X63126310Y-51307721D01*
X63070596Y-51411955D01*
X62995617Y-51503317D01*
X62904255Y-51578296D01*
X62800021Y-51634010D01*
X62686921Y-51668318D01*
X62598774Y-51677000D01*
X61839826Y-51677000D01*
X61751679Y-51668318D01*
X61638579Y-51634010D01*
X61534345Y-51578296D01*
X61442983Y-51503317D01*
X61368004Y-51411955D01*
X61312290Y-51307721D01*
X61277982Y-51194621D01*
X61266397Y-51077000D01*
X61277982Y-50959379D01*
X61312290Y-50846279D01*
X61368004Y-50742045D01*
X61442983Y-50650683D01*
X61534345Y-50575704D01*
X61638579Y-50519990D01*
X61751679Y-50485682D01*
X61839826Y-50477000D01*
X62598774Y-50477000D01*
X62686921Y-50485682D01*
X62686921Y-50485682D01*
G37*
G36*
X63606826Y-45923115D02*
X63825212Y-46013573D01*
X64021758Y-46144901D01*
X64188899Y-46312042D01*
X64320227Y-46508588D01*
X64410685Y-46726974D01*
X64456800Y-46958809D01*
X64456800Y-47195191D01*
X64410685Y-47427026D01*
X64320227Y-47645412D01*
X64188899Y-47841958D01*
X64021758Y-48009099D01*
X63825212Y-48140427D01*
X63606826Y-48230885D01*
X63374991Y-48277000D01*
X63138609Y-48277000D01*
X62906774Y-48230885D01*
X62688388Y-48140427D01*
X62491842Y-48009099D01*
X62324701Y-47841958D01*
X62193373Y-47645412D01*
X62102915Y-47427026D01*
X62056800Y-47195191D01*
X62056800Y-46958809D01*
X62102915Y-46726974D01*
X62193373Y-46508588D01*
X62324701Y-46312042D01*
X62491842Y-46144901D01*
X62688388Y-46013573D01*
X62906774Y-45923115D01*
X63138609Y-45877000D01*
X63374991Y-45877000D01*
X63606826Y-45923115D01*
X63606826Y-45923115D01*
G37*
G36*
X158606826Y-45923115D02*
X158825212Y-46013573D01*
X159021758Y-46144901D01*
X159188899Y-46312042D01*
X159320227Y-46508588D01*
X159410685Y-46726974D01*
X159456800Y-46958809D01*
X159456800Y-47195191D01*
X159410685Y-47427026D01*
X159320227Y-47645412D01*
X159188899Y-47841958D01*
X159021758Y-48009099D01*
X158825212Y-48140427D01*
X158606826Y-48230885D01*
X158374991Y-48277000D01*
X158138609Y-48277000D01*
X157906774Y-48230885D01*
X157688388Y-48140427D01*
X157491842Y-48009099D01*
X157324701Y-47841958D01*
X157193373Y-47645412D01*
X157102915Y-47427026D01*
X157056800Y-47195191D01*
X157056800Y-46958809D01*
X157102915Y-46726974D01*
X157193373Y-46508588D01*
X157324701Y-46312042D01*
X157491842Y-46144901D01*
X157688388Y-46013573D01*
X157906774Y-45923115D01*
X158138609Y-45877000D01*
X158374991Y-45877000D01*
X158606826Y-45923115D01*
X158606826Y-45923115D01*
G37*
M02*
