G04 #@! TF.GenerationSoftware,KiCad,Pcbnew,(5.0.1-3-g963ef8bb5)*
G04 #@! TF.CreationDate,2019-09-07T00:25:15+09:00*
G04 #@! TF.ProjectId,switch42,73776974636834322E6B696361645F70,rev?*
G04 #@! TF.SameCoordinates,Original*
G04 #@! TF.FileFunction,Copper,L2,Bot,Signal*
G04 #@! TF.FilePolarity,Positive*
%FSLAX46Y46*%
G04 Gerber Fmt 4.6, Leading zero omitted, Abs format (unit mm)*
G04 Created by KiCad (PCBNEW (5.0.1-3-g963ef8bb5)) date 2019 September 07, Saturday 00:25:15*
%MOMM*%
%LPD*%
G01*
G04 APERTURE LIST*
G04 #@! TA.AperFunction,Conductor*
%ADD10C,0.100000*%
G04 #@! TD*
G04 #@! TA.AperFunction,SMDPad,CuDef*
%ADD11C,1.425000*%
G04 #@! TD*
G04 #@! TA.AperFunction,SMDPad,CuDef*
%ADD12R,1.900000X1.500000*%
G04 #@! TD*
G04 #@! TA.AperFunction,ComponentPad*
%ADD13C,1.450000*%
G04 #@! TD*
G04 #@! TA.AperFunction,SMDPad,CuDef*
%ADD14R,1.350000X0.400000*%
G04 #@! TD*
G04 #@! TA.AperFunction,ComponentPad*
%ADD15O,1.900000X1.200000*%
G04 #@! TD*
G04 #@! TA.AperFunction,SMDPad,CuDef*
%ADD16R,1.900000X1.200000*%
G04 #@! TD*
G04 #@! TA.AperFunction,SMDPad,CuDef*
%ADD17C,0.550000*%
G04 #@! TD*
G04 #@! TA.AperFunction,SMDPad,CuDef*
%ADD18R,1.800000X2.100000*%
G04 #@! TD*
G04 #@! TA.AperFunction,WasherPad*
%ADD19C,2.400000*%
G04 #@! TD*
G04 #@! TA.AperFunction,SMDPad,CuDef*
%ADD20R,0.650000X1.050000*%
G04 #@! TD*
G04 #@! TA.AperFunction,ViaPad*
%ADD21C,0.800000*%
G04 #@! TD*
G04 #@! TA.AperFunction,Conductor*
%ADD22C,0.250000*%
G04 #@! TD*
G04 #@! TA.AperFunction,Conductor*
%ADD23C,0.500000*%
G04 #@! TD*
G04 #@! TA.AperFunction,Conductor*
%ADD24C,0.254000*%
G04 #@! TD*
G04 APERTURE END LIST*
D10*
G04 #@! TO.N,GND*
G04 #@! TO.C,C1*
G36*
X70406304Y-58853204D02*
X70430573Y-58856804D01*
X70454371Y-58862765D01*
X70477471Y-58871030D01*
X70499649Y-58881520D01*
X70520693Y-58894133D01*
X70540398Y-58908747D01*
X70558577Y-58925223D01*
X70575053Y-58943402D01*
X70589667Y-58963107D01*
X70602280Y-58984151D01*
X70612770Y-59006329D01*
X70621035Y-59029429D01*
X70626996Y-59053227D01*
X70630596Y-59077496D01*
X70631800Y-59102000D01*
X70631800Y-60027000D01*
X70630596Y-60051504D01*
X70626996Y-60075773D01*
X70621035Y-60099571D01*
X70612770Y-60122671D01*
X70602280Y-60144849D01*
X70589667Y-60165893D01*
X70575053Y-60185598D01*
X70558577Y-60203777D01*
X70540398Y-60220253D01*
X70520693Y-60234867D01*
X70499649Y-60247480D01*
X70477471Y-60257970D01*
X70454371Y-60266235D01*
X70430573Y-60272196D01*
X70406304Y-60275796D01*
X70381800Y-60277000D01*
X69131800Y-60277000D01*
X69107296Y-60275796D01*
X69083027Y-60272196D01*
X69059229Y-60266235D01*
X69036129Y-60257970D01*
X69013951Y-60247480D01*
X68992907Y-60234867D01*
X68973202Y-60220253D01*
X68955023Y-60203777D01*
X68938547Y-60185598D01*
X68923933Y-60165893D01*
X68911320Y-60144849D01*
X68900830Y-60122671D01*
X68892565Y-60099571D01*
X68886604Y-60075773D01*
X68883004Y-60051504D01*
X68881800Y-60027000D01*
X68881800Y-59102000D01*
X68883004Y-59077496D01*
X68886604Y-59053227D01*
X68892565Y-59029429D01*
X68900830Y-59006329D01*
X68911320Y-58984151D01*
X68923933Y-58963107D01*
X68938547Y-58943402D01*
X68955023Y-58925223D01*
X68973202Y-58908747D01*
X68992907Y-58894133D01*
X69013951Y-58881520D01*
X69036129Y-58871030D01*
X69059229Y-58862765D01*
X69083027Y-58856804D01*
X69107296Y-58853204D01*
X69131800Y-58852000D01*
X70381800Y-58852000D01*
X70406304Y-58853204D01*
X70406304Y-58853204D01*
G37*
D11*
G04 #@! TD*
G04 #@! TO.P,C1,2*
G04 #@! TO.N,GND*
X69756800Y-59564500D03*
D10*
G04 #@! TO.N,UVCC*
G04 #@! TO.C,C1*
G36*
X70406304Y-55878204D02*
X70430573Y-55881804D01*
X70454371Y-55887765D01*
X70477471Y-55896030D01*
X70499649Y-55906520D01*
X70520693Y-55919133D01*
X70540398Y-55933747D01*
X70558577Y-55950223D01*
X70575053Y-55968402D01*
X70589667Y-55988107D01*
X70602280Y-56009151D01*
X70612770Y-56031329D01*
X70621035Y-56054429D01*
X70626996Y-56078227D01*
X70630596Y-56102496D01*
X70631800Y-56127000D01*
X70631800Y-57052000D01*
X70630596Y-57076504D01*
X70626996Y-57100773D01*
X70621035Y-57124571D01*
X70612770Y-57147671D01*
X70602280Y-57169849D01*
X70589667Y-57190893D01*
X70575053Y-57210598D01*
X70558577Y-57228777D01*
X70540398Y-57245253D01*
X70520693Y-57259867D01*
X70499649Y-57272480D01*
X70477471Y-57282970D01*
X70454371Y-57291235D01*
X70430573Y-57297196D01*
X70406304Y-57300796D01*
X70381800Y-57302000D01*
X69131800Y-57302000D01*
X69107296Y-57300796D01*
X69083027Y-57297196D01*
X69059229Y-57291235D01*
X69036129Y-57282970D01*
X69013951Y-57272480D01*
X68992907Y-57259867D01*
X68973202Y-57245253D01*
X68955023Y-57228777D01*
X68938547Y-57210598D01*
X68923933Y-57190893D01*
X68911320Y-57169849D01*
X68900830Y-57147671D01*
X68892565Y-57124571D01*
X68886604Y-57100773D01*
X68883004Y-57076504D01*
X68881800Y-57052000D01*
X68881800Y-56127000D01*
X68883004Y-56102496D01*
X68886604Y-56078227D01*
X68892565Y-56054429D01*
X68900830Y-56031329D01*
X68911320Y-56009151D01*
X68923933Y-55988107D01*
X68938547Y-55968402D01*
X68955023Y-55950223D01*
X68973202Y-55933747D01*
X68992907Y-55919133D01*
X69013951Y-55906520D01*
X69036129Y-55896030D01*
X69059229Y-55887765D01*
X69083027Y-55881804D01*
X69107296Y-55878204D01*
X69131800Y-55877000D01*
X70381800Y-55877000D01*
X70406304Y-55878204D01*
X70406304Y-55878204D01*
G37*
D11*
G04 #@! TD*
G04 #@! TO.P,C1,1*
G04 #@! TO.N,UVCC*
X69756800Y-56589500D03*
D10*
G04 #@! TO.N,UVCC*
G04 #@! TO.C,C2*
G36*
X74406304Y-55878204D02*
X74430573Y-55881804D01*
X74454371Y-55887765D01*
X74477471Y-55896030D01*
X74499649Y-55906520D01*
X74520693Y-55919133D01*
X74540398Y-55933747D01*
X74558577Y-55950223D01*
X74575053Y-55968402D01*
X74589667Y-55988107D01*
X74602280Y-56009151D01*
X74612770Y-56031329D01*
X74621035Y-56054429D01*
X74626996Y-56078227D01*
X74630596Y-56102496D01*
X74631800Y-56127000D01*
X74631800Y-57052000D01*
X74630596Y-57076504D01*
X74626996Y-57100773D01*
X74621035Y-57124571D01*
X74612770Y-57147671D01*
X74602280Y-57169849D01*
X74589667Y-57190893D01*
X74575053Y-57210598D01*
X74558577Y-57228777D01*
X74540398Y-57245253D01*
X74520693Y-57259867D01*
X74499649Y-57272480D01*
X74477471Y-57282970D01*
X74454371Y-57291235D01*
X74430573Y-57297196D01*
X74406304Y-57300796D01*
X74381800Y-57302000D01*
X73131800Y-57302000D01*
X73107296Y-57300796D01*
X73083027Y-57297196D01*
X73059229Y-57291235D01*
X73036129Y-57282970D01*
X73013951Y-57272480D01*
X72992907Y-57259867D01*
X72973202Y-57245253D01*
X72955023Y-57228777D01*
X72938547Y-57210598D01*
X72923933Y-57190893D01*
X72911320Y-57169849D01*
X72900830Y-57147671D01*
X72892565Y-57124571D01*
X72886604Y-57100773D01*
X72883004Y-57076504D01*
X72881800Y-57052000D01*
X72881800Y-56127000D01*
X72883004Y-56102496D01*
X72886604Y-56078227D01*
X72892565Y-56054429D01*
X72900830Y-56031329D01*
X72911320Y-56009151D01*
X72923933Y-55988107D01*
X72938547Y-55968402D01*
X72955023Y-55950223D01*
X72973202Y-55933747D01*
X72992907Y-55919133D01*
X73013951Y-55906520D01*
X73036129Y-55896030D01*
X73059229Y-55887765D01*
X73083027Y-55881804D01*
X73107296Y-55878204D01*
X73131800Y-55877000D01*
X74381800Y-55877000D01*
X74406304Y-55878204D01*
X74406304Y-55878204D01*
G37*
D11*
G04 #@! TD*
G04 #@! TO.P,C2,1*
G04 #@! TO.N,UVCC*
X73756800Y-56589500D03*
D10*
G04 #@! TO.N,GND*
G04 #@! TO.C,C2*
G36*
X74406304Y-58853204D02*
X74430573Y-58856804D01*
X74454371Y-58862765D01*
X74477471Y-58871030D01*
X74499649Y-58881520D01*
X74520693Y-58894133D01*
X74540398Y-58908747D01*
X74558577Y-58925223D01*
X74575053Y-58943402D01*
X74589667Y-58963107D01*
X74602280Y-58984151D01*
X74612770Y-59006329D01*
X74621035Y-59029429D01*
X74626996Y-59053227D01*
X74630596Y-59077496D01*
X74631800Y-59102000D01*
X74631800Y-60027000D01*
X74630596Y-60051504D01*
X74626996Y-60075773D01*
X74621035Y-60099571D01*
X74612770Y-60122671D01*
X74602280Y-60144849D01*
X74589667Y-60165893D01*
X74575053Y-60185598D01*
X74558577Y-60203777D01*
X74540398Y-60220253D01*
X74520693Y-60234867D01*
X74499649Y-60247480D01*
X74477471Y-60257970D01*
X74454371Y-60266235D01*
X74430573Y-60272196D01*
X74406304Y-60275796D01*
X74381800Y-60277000D01*
X73131800Y-60277000D01*
X73107296Y-60275796D01*
X73083027Y-60272196D01*
X73059229Y-60266235D01*
X73036129Y-60257970D01*
X73013951Y-60247480D01*
X72992907Y-60234867D01*
X72973202Y-60220253D01*
X72955023Y-60203777D01*
X72938547Y-60185598D01*
X72923933Y-60165893D01*
X72911320Y-60144849D01*
X72900830Y-60122671D01*
X72892565Y-60099571D01*
X72886604Y-60075773D01*
X72883004Y-60051504D01*
X72881800Y-60027000D01*
X72881800Y-59102000D01*
X72883004Y-59077496D01*
X72886604Y-59053227D01*
X72892565Y-59029429D01*
X72900830Y-59006329D01*
X72911320Y-58984151D01*
X72923933Y-58963107D01*
X72938547Y-58943402D01*
X72955023Y-58925223D01*
X72973202Y-58908747D01*
X72992907Y-58894133D01*
X73013951Y-58881520D01*
X73036129Y-58871030D01*
X73059229Y-58862765D01*
X73083027Y-58856804D01*
X73107296Y-58853204D01*
X73131800Y-58852000D01*
X74381800Y-58852000D01*
X74406304Y-58853204D01*
X74406304Y-58853204D01*
G37*
D11*
G04 #@! TD*
G04 #@! TO.P,C2,2*
G04 #@! TO.N,GND*
X73756800Y-59564500D03*
D10*
G04 #@! TO.N,GND*
G04 #@! TO.C,C3*
G36*
X100731304Y-52203204D02*
X100755573Y-52206804D01*
X100779371Y-52212765D01*
X100802471Y-52221030D01*
X100824649Y-52231520D01*
X100845693Y-52244133D01*
X100865398Y-52258747D01*
X100883577Y-52275223D01*
X100900053Y-52293402D01*
X100914667Y-52313107D01*
X100927280Y-52334151D01*
X100937770Y-52356329D01*
X100946035Y-52379429D01*
X100951996Y-52403227D01*
X100955596Y-52427496D01*
X100956800Y-52452000D01*
X100956800Y-53702000D01*
X100955596Y-53726504D01*
X100951996Y-53750773D01*
X100946035Y-53774571D01*
X100937770Y-53797671D01*
X100927280Y-53819849D01*
X100914667Y-53840893D01*
X100900053Y-53860598D01*
X100883577Y-53878777D01*
X100865398Y-53895253D01*
X100845693Y-53909867D01*
X100824649Y-53922480D01*
X100802471Y-53932970D01*
X100779371Y-53941235D01*
X100755573Y-53947196D01*
X100731304Y-53950796D01*
X100706800Y-53952000D01*
X99781800Y-53952000D01*
X99757296Y-53950796D01*
X99733027Y-53947196D01*
X99709229Y-53941235D01*
X99686129Y-53932970D01*
X99663951Y-53922480D01*
X99642907Y-53909867D01*
X99623202Y-53895253D01*
X99605023Y-53878777D01*
X99588547Y-53860598D01*
X99573933Y-53840893D01*
X99561320Y-53819849D01*
X99550830Y-53797671D01*
X99542565Y-53774571D01*
X99536604Y-53750773D01*
X99533004Y-53726504D01*
X99531800Y-53702000D01*
X99531800Y-52452000D01*
X99533004Y-52427496D01*
X99536604Y-52403227D01*
X99542565Y-52379429D01*
X99550830Y-52356329D01*
X99561320Y-52334151D01*
X99573933Y-52313107D01*
X99588547Y-52293402D01*
X99605023Y-52275223D01*
X99623202Y-52258747D01*
X99642907Y-52244133D01*
X99663951Y-52231520D01*
X99686129Y-52221030D01*
X99709229Y-52212765D01*
X99733027Y-52206804D01*
X99757296Y-52203204D01*
X99781800Y-52202000D01*
X100706800Y-52202000D01*
X100731304Y-52203204D01*
X100731304Y-52203204D01*
G37*
D11*
G04 #@! TD*
G04 #@! TO.P,C3,2*
G04 #@! TO.N,GND*
X100244300Y-53077000D03*
D10*
G04 #@! TO.N,XTAL1*
G04 #@! TO.C,C3*
G36*
X97756304Y-52203204D02*
X97780573Y-52206804D01*
X97804371Y-52212765D01*
X97827471Y-52221030D01*
X97849649Y-52231520D01*
X97870693Y-52244133D01*
X97890398Y-52258747D01*
X97908577Y-52275223D01*
X97925053Y-52293402D01*
X97939667Y-52313107D01*
X97952280Y-52334151D01*
X97962770Y-52356329D01*
X97971035Y-52379429D01*
X97976996Y-52403227D01*
X97980596Y-52427496D01*
X97981800Y-52452000D01*
X97981800Y-53702000D01*
X97980596Y-53726504D01*
X97976996Y-53750773D01*
X97971035Y-53774571D01*
X97962770Y-53797671D01*
X97952280Y-53819849D01*
X97939667Y-53840893D01*
X97925053Y-53860598D01*
X97908577Y-53878777D01*
X97890398Y-53895253D01*
X97870693Y-53909867D01*
X97849649Y-53922480D01*
X97827471Y-53932970D01*
X97804371Y-53941235D01*
X97780573Y-53947196D01*
X97756304Y-53950796D01*
X97731800Y-53952000D01*
X96806800Y-53952000D01*
X96782296Y-53950796D01*
X96758027Y-53947196D01*
X96734229Y-53941235D01*
X96711129Y-53932970D01*
X96688951Y-53922480D01*
X96667907Y-53909867D01*
X96648202Y-53895253D01*
X96630023Y-53878777D01*
X96613547Y-53860598D01*
X96598933Y-53840893D01*
X96586320Y-53819849D01*
X96575830Y-53797671D01*
X96567565Y-53774571D01*
X96561604Y-53750773D01*
X96558004Y-53726504D01*
X96556800Y-53702000D01*
X96556800Y-52452000D01*
X96558004Y-52427496D01*
X96561604Y-52403227D01*
X96567565Y-52379429D01*
X96575830Y-52356329D01*
X96586320Y-52334151D01*
X96598933Y-52313107D01*
X96613547Y-52293402D01*
X96630023Y-52275223D01*
X96648202Y-52258747D01*
X96667907Y-52244133D01*
X96688951Y-52231520D01*
X96711129Y-52221030D01*
X96734229Y-52212765D01*
X96758027Y-52206804D01*
X96782296Y-52203204D01*
X96806800Y-52202000D01*
X97731800Y-52202000D01*
X97756304Y-52203204D01*
X97756304Y-52203204D01*
G37*
D11*
G04 #@! TD*
G04 #@! TO.P,C3,1*
G04 #@! TO.N,XTAL1*
X97269300Y-53077000D03*
D10*
G04 #@! TO.N,XTAL2*
G04 #@! TO.C,C4*
G36*
X95406304Y-49353204D02*
X95430573Y-49356804D01*
X95454371Y-49362765D01*
X95477471Y-49371030D01*
X95499649Y-49381520D01*
X95520693Y-49394133D01*
X95540398Y-49408747D01*
X95558577Y-49425223D01*
X95575053Y-49443402D01*
X95589667Y-49463107D01*
X95602280Y-49484151D01*
X95612770Y-49506329D01*
X95621035Y-49529429D01*
X95626996Y-49553227D01*
X95630596Y-49577496D01*
X95631800Y-49602000D01*
X95631800Y-50527000D01*
X95630596Y-50551504D01*
X95626996Y-50575773D01*
X95621035Y-50599571D01*
X95612770Y-50622671D01*
X95602280Y-50644849D01*
X95589667Y-50665893D01*
X95575053Y-50685598D01*
X95558577Y-50703777D01*
X95540398Y-50720253D01*
X95520693Y-50734867D01*
X95499649Y-50747480D01*
X95477471Y-50757970D01*
X95454371Y-50766235D01*
X95430573Y-50772196D01*
X95406304Y-50775796D01*
X95381800Y-50777000D01*
X94131800Y-50777000D01*
X94107296Y-50775796D01*
X94083027Y-50772196D01*
X94059229Y-50766235D01*
X94036129Y-50757970D01*
X94013951Y-50747480D01*
X93992907Y-50734867D01*
X93973202Y-50720253D01*
X93955023Y-50703777D01*
X93938547Y-50685598D01*
X93923933Y-50665893D01*
X93911320Y-50644849D01*
X93900830Y-50622671D01*
X93892565Y-50599571D01*
X93886604Y-50575773D01*
X93883004Y-50551504D01*
X93881800Y-50527000D01*
X93881800Y-49602000D01*
X93883004Y-49577496D01*
X93886604Y-49553227D01*
X93892565Y-49529429D01*
X93900830Y-49506329D01*
X93911320Y-49484151D01*
X93923933Y-49463107D01*
X93938547Y-49443402D01*
X93955023Y-49425223D01*
X93973202Y-49408747D01*
X93992907Y-49394133D01*
X94013951Y-49381520D01*
X94036129Y-49371030D01*
X94059229Y-49362765D01*
X94083027Y-49356804D01*
X94107296Y-49353204D01*
X94131800Y-49352000D01*
X95381800Y-49352000D01*
X95406304Y-49353204D01*
X95406304Y-49353204D01*
G37*
D11*
G04 #@! TD*
G04 #@! TO.P,C4,1*
G04 #@! TO.N,XTAL2*
X94756800Y-50064500D03*
D10*
G04 #@! TO.N,GND*
G04 #@! TO.C,C4*
G36*
X95406304Y-46378204D02*
X95430573Y-46381804D01*
X95454371Y-46387765D01*
X95477471Y-46396030D01*
X95499649Y-46406520D01*
X95520693Y-46419133D01*
X95540398Y-46433747D01*
X95558577Y-46450223D01*
X95575053Y-46468402D01*
X95589667Y-46488107D01*
X95602280Y-46509151D01*
X95612770Y-46531329D01*
X95621035Y-46554429D01*
X95626996Y-46578227D01*
X95630596Y-46602496D01*
X95631800Y-46627000D01*
X95631800Y-47552000D01*
X95630596Y-47576504D01*
X95626996Y-47600773D01*
X95621035Y-47624571D01*
X95612770Y-47647671D01*
X95602280Y-47669849D01*
X95589667Y-47690893D01*
X95575053Y-47710598D01*
X95558577Y-47728777D01*
X95540398Y-47745253D01*
X95520693Y-47759867D01*
X95499649Y-47772480D01*
X95477471Y-47782970D01*
X95454371Y-47791235D01*
X95430573Y-47797196D01*
X95406304Y-47800796D01*
X95381800Y-47802000D01*
X94131800Y-47802000D01*
X94107296Y-47800796D01*
X94083027Y-47797196D01*
X94059229Y-47791235D01*
X94036129Y-47782970D01*
X94013951Y-47772480D01*
X93992907Y-47759867D01*
X93973202Y-47745253D01*
X93955023Y-47728777D01*
X93938547Y-47710598D01*
X93923933Y-47690893D01*
X93911320Y-47669849D01*
X93900830Y-47647671D01*
X93892565Y-47624571D01*
X93886604Y-47600773D01*
X93883004Y-47576504D01*
X93881800Y-47552000D01*
X93881800Y-46627000D01*
X93883004Y-46602496D01*
X93886604Y-46578227D01*
X93892565Y-46554429D01*
X93900830Y-46531329D01*
X93911320Y-46509151D01*
X93923933Y-46488107D01*
X93938547Y-46468402D01*
X93955023Y-46450223D01*
X93973202Y-46433747D01*
X93992907Y-46419133D01*
X94013951Y-46406520D01*
X94036129Y-46396030D01*
X94059229Y-46387765D01*
X94083027Y-46381804D01*
X94107296Y-46378204D01*
X94131800Y-46377000D01*
X95381800Y-46377000D01*
X95406304Y-46378204D01*
X95406304Y-46378204D01*
G37*
D11*
G04 #@! TD*
G04 #@! TO.P,C4,2*
G04 #@! TO.N,GND*
X94756800Y-47089500D03*
D10*
G04 #@! TO.N,Net-(C5-Pad1)*
G04 #@! TO.C,C5*
G36*
X80718220Y-46007404D02*
X80742489Y-46011004D01*
X80766287Y-46016965D01*
X80789387Y-46025230D01*
X80811565Y-46035720D01*
X80832609Y-46048333D01*
X80852314Y-46062947D01*
X80870493Y-46079423D01*
X81754377Y-46963307D01*
X81770853Y-46981486D01*
X81785467Y-47001191D01*
X81798080Y-47022235D01*
X81808570Y-47044413D01*
X81816835Y-47067513D01*
X81822796Y-47091311D01*
X81826396Y-47115580D01*
X81827600Y-47140084D01*
X81826396Y-47164588D01*
X81822796Y-47188857D01*
X81816835Y-47212655D01*
X81808570Y-47235755D01*
X81798080Y-47257933D01*
X81785467Y-47278977D01*
X81770853Y-47298682D01*
X81754377Y-47316861D01*
X81100303Y-47970935D01*
X81082124Y-47987411D01*
X81062419Y-48002025D01*
X81041375Y-48014638D01*
X81019197Y-48025128D01*
X80996097Y-48033393D01*
X80972299Y-48039354D01*
X80948030Y-48042954D01*
X80923526Y-48044158D01*
X80899022Y-48042954D01*
X80874753Y-48039354D01*
X80850955Y-48033393D01*
X80827855Y-48025128D01*
X80805677Y-48014638D01*
X80784633Y-48002025D01*
X80764928Y-47987411D01*
X80746749Y-47970935D01*
X79862865Y-47087051D01*
X79846389Y-47068872D01*
X79831775Y-47049167D01*
X79819162Y-47028123D01*
X79808672Y-47005945D01*
X79800407Y-46982845D01*
X79794446Y-46959047D01*
X79790846Y-46934778D01*
X79789642Y-46910274D01*
X79790846Y-46885770D01*
X79794446Y-46861501D01*
X79800407Y-46837703D01*
X79808672Y-46814603D01*
X79819162Y-46792425D01*
X79831775Y-46771381D01*
X79846389Y-46751676D01*
X79862865Y-46733497D01*
X80516939Y-46079423D01*
X80535118Y-46062947D01*
X80554823Y-46048333D01*
X80575867Y-46035720D01*
X80598045Y-46025230D01*
X80621145Y-46016965D01*
X80644943Y-46011004D01*
X80669212Y-46007404D01*
X80693716Y-46006200D01*
X80718220Y-46007404D01*
X80718220Y-46007404D01*
G37*
D11*
G04 #@! TD*
G04 #@! TO.P,C5,1*
G04 #@! TO.N,Net-(C5-Pad1)*
X80808621Y-47025179D03*
D10*
G04 #@! TO.N,GND*
G04 #@! TO.C,C5*
G36*
X78614578Y-48111046D02*
X78638847Y-48114646D01*
X78662645Y-48120607D01*
X78685745Y-48128872D01*
X78707923Y-48139362D01*
X78728967Y-48151975D01*
X78748672Y-48166589D01*
X78766851Y-48183065D01*
X79650735Y-49066949D01*
X79667211Y-49085128D01*
X79681825Y-49104833D01*
X79694438Y-49125877D01*
X79704928Y-49148055D01*
X79713193Y-49171155D01*
X79719154Y-49194953D01*
X79722754Y-49219222D01*
X79723958Y-49243726D01*
X79722754Y-49268230D01*
X79719154Y-49292499D01*
X79713193Y-49316297D01*
X79704928Y-49339397D01*
X79694438Y-49361575D01*
X79681825Y-49382619D01*
X79667211Y-49402324D01*
X79650735Y-49420503D01*
X78996661Y-50074577D01*
X78978482Y-50091053D01*
X78958777Y-50105667D01*
X78937733Y-50118280D01*
X78915555Y-50128770D01*
X78892455Y-50137035D01*
X78868657Y-50142996D01*
X78844388Y-50146596D01*
X78819884Y-50147800D01*
X78795380Y-50146596D01*
X78771111Y-50142996D01*
X78747313Y-50137035D01*
X78724213Y-50128770D01*
X78702035Y-50118280D01*
X78680991Y-50105667D01*
X78661286Y-50091053D01*
X78643107Y-50074577D01*
X77759223Y-49190693D01*
X77742747Y-49172514D01*
X77728133Y-49152809D01*
X77715520Y-49131765D01*
X77705030Y-49109587D01*
X77696765Y-49086487D01*
X77690804Y-49062689D01*
X77687204Y-49038420D01*
X77686000Y-49013916D01*
X77687204Y-48989412D01*
X77690804Y-48965143D01*
X77696765Y-48941345D01*
X77705030Y-48918245D01*
X77715520Y-48896067D01*
X77728133Y-48875023D01*
X77742747Y-48855318D01*
X77759223Y-48837139D01*
X78413297Y-48183065D01*
X78431476Y-48166589D01*
X78451181Y-48151975D01*
X78472225Y-48139362D01*
X78494403Y-48128872D01*
X78517503Y-48120607D01*
X78541301Y-48114646D01*
X78565570Y-48111046D01*
X78590074Y-48109842D01*
X78614578Y-48111046D01*
X78614578Y-48111046D01*
G37*
D11*
G04 #@! TD*
G04 #@! TO.P,C5,2*
G04 #@! TO.N,GND*
X78704979Y-49128821D03*
D12*
G04 #@! TO.P,J1,6*
G04 #@! TO.N,GND*
X62219300Y-53577000D03*
D13*
X64919300Y-57077000D03*
D14*
G04 #@! TO.P,J1,2*
G04 #@! TO.N,Net-(J1-Pad2)*
X64919300Y-55227000D03*
G04 #@! TO.P,J1,1*
G04 #@! TO.N,UVCC*
X64919300Y-55877000D03*
G04 #@! TO.P,J1,5*
G04 #@! TO.N,GND*
X64919300Y-53277000D03*
G04 #@! TO.P,J1,4*
G04 #@! TO.N,Net-(J1-Pad4)*
X64919300Y-53927000D03*
G04 #@! TO.P,J1,3*
G04 #@! TO.N,Net-(J1-Pad3)*
X64919300Y-54577000D03*
D13*
G04 #@! TO.P,J1,6*
G04 #@! TO.N,GND*
X64919300Y-52077000D03*
D12*
X62219300Y-55577000D03*
D15*
X62219300Y-58077000D03*
X62219300Y-51077000D03*
D16*
X62219300Y-51677000D03*
X62219300Y-57477000D03*
G04 #@! TD*
D10*
G04 #@! TO.N,RESET*
G04 #@! TO.C,R1*
G36*
X80948030Y-61111046D02*
X80972299Y-61114646D01*
X80996097Y-61120607D01*
X81019197Y-61128872D01*
X81041375Y-61139362D01*
X81062419Y-61151975D01*
X81082124Y-61166589D01*
X81100303Y-61183065D01*
X81754377Y-61837139D01*
X81770853Y-61855318D01*
X81785467Y-61875023D01*
X81798080Y-61896067D01*
X81808570Y-61918245D01*
X81816835Y-61941345D01*
X81822796Y-61965143D01*
X81826396Y-61989412D01*
X81827600Y-62013916D01*
X81826396Y-62038420D01*
X81822796Y-62062689D01*
X81816835Y-62086487D01*
X81808570Y-62109587D01*
X81798080Y-62131765D01*
X81785467Y-62152809D01*
X81770853Y-62172514D01*
X81754377Y-62190693D01*
X80870493Y-63074577D01*
X80852314Y-63091053D01*
X80832609Y-63105667D01*
X80811565Y-63118280D01*
X80789387Y-63128770D01*
X80766287Y-63137035D01*
X80742489Y-63142996D01*
X80718220Y-63146596D01*
X80693716Y-63147800D01*
X80669212Y-63146596D01*
X80644943Y-63142996D01*
X80621145Y-63137035D01*
X80598045Y-63128770D01*
X80575867Y-63118280D01*
X80554823Y-63105667D01*
X80535118Y-63091053D01*
X80516939Y-63074577D01*
X79862865Y-62420503D01*
X79846389Y-62402324D01*
X79831775Y-62382619D01*
X79819162Y-62361575D01*
X79808672Y-62339397D01*
X79800407Y-62316297D01*
X79794446Y-62292499D01*
X79790846Y-62268230D01*
X79789642Y-62243726D01*
X79790846Y-62219222D01*
X79794446Y-62194953D01*
X79800407Y-62171155D01*
X79808672Y-62148055D01*
X79819162Y-62125877D01*
X79831775Y-62104833D01*
X79846389Y-62085128D01*
X79862865Y-62066949D01*
X80746749Y-61183065D01*
X80764928Y-61166589D01*
X80784633Y-61151975D01*
X80805677Y-61139362D01*
X80827855Y-61128872D01*
X80850955Y-61120607D01*
X80874753Y-61114646D01*
X80899022Y-61111046D01*
X80923526Y-61109842D01*
X80948030Y-61111046D01*
X80948030Y-61111046D01*
G37*
D11*
G04 #@! TD*
G04 #@! TO.P,R1,2*
G04 #@! TO.N,RESET*
X80808621Y-62128821D03*
D10*
G04 #@! TO.N,UVCC*
G04 #@! TO.C,R1*
G36*
X78844388Y-59007404D02*
X78868657Y-59011004D01*
X78892455Y-59016965D01*
X78915555Y-59025230D01*
X78937733Y-59035720D01*
X78958777Y-59048333D01*
X78978482Y-59062947D01*
X78996661Y-59079423D01*
X79650735Y-59733497D01*
X79667211Y-59751676D01*
X79681825Y-59771381D01*
X79694438Y-59792425D01*
X79704928Y-59814603D01*
X79713193Y-59837703D01*
X79719154Y-59861501D01*
X79722754Y-59885770D01*
X79723958Y-59910274D01*
X79722754Y-59934778D01*
X79719154Y-59959047D01*
X79713193Y-59982845D01*
X79704928Y-60005945D01*
X79694438Y-60028123D01*
X79681825Y-60049167D01*
X79667211Y-60068872D01*
X79650735Y-60087051D01*
X78766851Y-60970935D01*
X78748672Y-60987411D01*
X78728967Y-61002025D01*
X78707923Y-61014638D01*
X78685745Y-61025128D01*
X78662645Y-61033393D01*
X78638847Y-61039354D01*
X78614578Y-61042954D01*
X78590074Y-61044158D01*
X78565570Y-61042954D01*
X78541301Y-61039354D01*
X78517503Y-61033393D01*
X78494403Y-61025128D01*
X78472225Y-61014638D01*
X78451181Y-61002025D01*
X78431476Y-60987411D01*
X78413297Y-60970935D01*
X77759223Y-60316861D01*
X77742747Y-60298682D01*
X77728133Y-60278977D01*
X77715520Y-60257933D01*
X77705030Y-60235755D01*
X77696765Y-60212655D01*
X77690804Y-60188857D01*
X77687204Y-60164588D01*
X77686000Y-60140084D01*
X77687204Y-60115580D01*
X77690804Y-60091311D01*
X77696765Y-60067513D01*
X77705030Y-60044413D01*
X77715520Y-60022235D01*
X77728133Y-60001191D01*
X77742747Y-59981486D01*
X77759223Y-59963307D01*
X78643107Y-59079423D01*
X78661286Y-59062947D01*
X78680991Y-59048333D01*
X78702035Y-59035720D01*
X78724213Y-59025230D01*
X78747313Y-59016965D01*
X78771111Y-59011004D01*
X78795380Y-59007404D01*
X78819884Y-59006200D01*
X78844388Y-59007404D01*
X78844388Y-59007404D01*
G37*
D11*
G04 #@! TD*
G04 #@! TO.P,R1,1*
G04 #@! TO.N,UVCC*
X78704979Y-60025179D03*
D10*
G04 #@! TO.N,Net-(J1-Pad3)*
G04 #@! TO.C,R2*
G36*
X70756304Y-48703204D02*
X70780573Y-48706804D01*
X70804371Y-48712765D01*
X70827471Y-48721030D01*
X70849649Y-48731520D01*
X70870693Y-48744133D01*
X70890398Y-48758747D01*
X70908577Y-48775223D01*
X70925053Y-48793402D01*
X70939667Y-48813107D01*
X70952280Y-48834151D01*
X70962770Y-48856329D01*
X70971035Y-48879429D01*
X70976996Y-48903227D01*
X70980596Y-48927496D01*
X70981800Y-48952000D01*
X70981800Y-50202000D01*
X70980596Y-50226504D01*
X70976996Y-50250773D01*
X70971035Y-50274571D01*
X70962770Y-50297671D01*
X70952280Y-50319849D01*
X70939667Y-50340893D01*
X70925053Y-50360598D01*
X70908577Y-50378777D01*
X70890398Y-50395253D01*
X70870693Y-50409867D01*
X70849649Y-50422480D01*
X70827471Y-50432970D01*
X70804371Y-50441235D01*
X70780573Y-50447196D01*
X70756304Y-50450796D01*
X70731800Y-50452000D01*
X69806800Y-50452000D01*
X69782296Y-50450796D01*
X69758027Y-50447196D01*
X69734229Y-50441235D01*
X69711129Y-50432970D01*
X69688951Y-50422480D01*
X69667907Y-50409867D01*
X69648202Y-50395253D01*
X69630023Y-50378777D01*
X69613547Y-50360598D01*
X69598933Y-50340893D01*
X69586320Y-50319849D01*
X69575830Y-50297671D01*
X69567565Y-50274571D01*
X69561604Y-50250773D01*
X69558004Y-50226504D01*
X69556800Y-50202000D01*
X69556800Y-48952000D01*
X69558004Y-48927496D01*
X69561604Y-48903227D01*
X69567565Y-48879429D01*
X69575830Y-48856329D01*
X69586320Y-48834151D01*
X69598933Y-48813107D01*
X69613547Y-48793402D01*
X69630023Y-48775223D01*
X69648202Y-48758747D01*
X69667907Y-48744133D01*
X69688951Y-48731520D01*
X69711129Y-48721030D01*
X69734229Y-48712765D01*
X69758027Y-48706804D01*
X69782296Y-48703204D01*
X69806800Y-48702000D01*
X70731800Y-48702000D01*
X70756304Y-48703204D01*
X70756304Y-48703204D01*
G37*
D11*
G04 #@! TD*
G04 #@! TO.P,R2,2*
G04 #@! TO.N,Net-(J1-Pad3)*
X70269300Y-49577000D03*
D10*
G04 #@! TO.N,D+*
G04 #@! TO.C,R2*
G36*
X73731304Y-48703204D02*
X73755573Y-48706804D01*
X73779371Y-48712765D01*
X73802471Y-48721030D01*
X73824649Y-48731520D01*
X73845693Y-48744133D01*
X73865398Y-48758747D01*
X73883577Y-48775223D01*
X73900053Y-48793402D01*
X73914667Y-48813107D01*
X73927280Y-48834151D01*
X73937770Y-48856329D01*
X73946035Y-48879429D01*
X73951996Y-48903227D01*
X73955596Y-48927496D01*
X73956800Y-48952000D01*
X73956800Y-50202000D01*
X73955596Y-50226504D01*
X73951996Y-50250773D01*
X73946035Y-50274571D01*
X73937770Y-50297671D01*
X73927280Y-50319849D01*
X73914667Y-50340893D01*
X73900053Y-50360598D01*
X73883577Y-50378777D01*
X73865398Y-50395253D01*
X73845693Y-50409867D01*
X73824649Y-50422480D01*
X73802471Y-50432970D01*
X73779371Y-50441235D01*
X73755573Y-50447196D01*
X73731304Y-50450796D01*
X73706800Y-50452000D01*
X72781800Y-50452000D01*
X72757296Y-50450796D01*
X72733027Y-50447196D01*
X72709229Y-50441235D01*
X72686129Y-50432970D01*
X72663951Y-50422480D01*
X72642907Y-50409867D01*
X72623202Y-50395253D01*
X72605023Y-50378777D01*
X72588547Y-50360598D01*
X72573933Y-50340893D01*
X72561320Y-50319849D01*
X72550830Y-50297671D01*
X72542565Y-50274571D01*
X72536604Y-50250773D01*
X72533004Y-50226504D01*
X72531800Y-50202000D01*
X72531800Y-48952000D01*
X72533004Y-48927496D01*
X72536604Y-48903227D01*
X72542565Y-48879429D01*
X72550830Y-48856329D01*
X72561320Y-48834151D01*
X72573933Y-48813107D01*
X72588547Y-48793402D01*
X72605023Y-48775223D01*
X72623202Y-48758747D01*
X72642907Y-48744133D01*
X72663951Y-48731520D01*
X72686129Y-48721030D01*
X72709229Y-48712765D01*
X72733027Y-48706804D01*
X72757296Y-48703204D01*
X72781800Y-48702000D01*
X73706800Y-48702000D01*
X73731304Y-48703204D01*
X73731304Y-48703204D01*
G37*
D11*
G04 #@! TD*
G04 #@! TO.P,R2,1*
G04 #@! TO.N,D+*
X73244300Y-49577000D03*
D10*
G04 #@! TO.N,D-*
G04 #@! TO.C,R3*
G36*
X73731304Y-52203204D02*
X73755573Y-52206804D01*
X73779371Y-52212765D01*
X73802471Y-52221030D01*
X73824649Y-52231520D01*
X73845693Y-52244133D01*
X73865398Y-52258747D01*
X73883577Y-52275223D01*
X73900053Y-52293402D01*
X73914667Y-52313107D01*
X73927280Y-52334151D01*
X73937770Y-52356329D01*
X73946035Y-52379429D01*
X73951996Y-52403227D01*
X73955596Y-52427496D01*
X73956800Y-52452000D01*
X73956800Y-53702000D01*
X73955596Y-53726504D01*
X73951996Y-53750773D01*
X73946035Y-53774571D01*
X73937770Y-53797671D01*
X73927280Y-53819849D01*
X73914667Y-53840893D01*
X73900053Y-53860598D01*
X73883577Y-53878777D01*
X73865398Y-53895253D01*
X73845693Y-53909867D01*
X73824649Y-53922480D01*
X73802471Y-53932970D01*
X73779371Y-53941235D01*
X73755573Y-53947196D01*
X73731304Y-53950796D01*
X73706800Y-53952000D01*
X72781800Y-53952000D01*
X72757296Y-53950796D01*
X72733027Y-53947196D01*
X72709229Y-53941235D01*
X72686129Y-53932970D01*
X72663951Y-53922480D01*
X72642907Y-53909867D01*
X72623202Y-53895253D01*
X72605023Y-53878777D01*
X72588547Y-53860598D01*
X72573933Y-53840893D01*
X72561320Y-53819849D01*
X72550830Y-53797671D01*
X72542565Y-53774571D01*
X72536604Y-53750773D01*
X72533004Y-53726504D01*
X72531800Y-53702000D01*
X72531800Y-52452000D01*
X72533004Y-52427496D01*
X72536604Y-52403227D01*
X72542565Y-52379429D01*
X72550830Y-52356329D01*
X72561320Y-52334151D01*
X72573933Y-52313107D01*
X72588547Y-52293402D01*
X72605023Y-52275223D01*
X72623202Y-52258747D01*
X72642907Y-52244133D01*
X72663951Y-52231520D01*
X72686129Y-52221030D01*
X72709229Y-52212765D01*
X72733027Y-52206804D01*
X72757296Y-52203204D01*
X72781800Y-52202000D01*
X73706800Y-52202000D01*
X73731304Y-52203204D01*
X73731304Y-52203204D01*
G37*
D11*
G04 #@! TD*
G04 #@! TO.P,R3,1*
G04 #@! TO.N,D-*
X73244300Y-53077000D03*
D10*
G04 #@! TO.N,Net-(J1-Pad2)*
G04 #@! TO.C,R3*
G36*
X70756304Y-52203204D02*
X70780573Y-52206804D01*
X70804371Y-52212765D01*
X70827471Y-52221030D01*
X70849649Y-52231520D01*
X70870693Y-52244133D01*
X70890398Y-52258747D01*
X70908577Y-52275223D01*
X70925053Y-52293402D01*
X70939667Y-52313107D01*
X70952280Y-52334151D01*
X70962770Y-52356329D01*
X70971035Y-52379429D01*
X70976996Y-52403227D01*
X70980596Y-52427496D01*
X70981800Y-52452000D01*
X70981800Y-53702000D01*
X70980596Y-53726504D01*
X70976996Y-53750773D01*
X70971035Y-53774571D01*
X70962770Y-53797671D01*
X70952280Y-53819849D01*
X70939667Y-53840893D01*
X70925053Y-53860598D01*
X70908577Y-53878777D01*
X70890398Y-53895253D01*
X70870693Y-53909867D01*
X70849649Y-53922480D01*
X70827471Y-53932970D01*
X70804371Y-53941235D01*
X70780573Y-53947196D01*
X70756304Y-53950796D01*
X70731800Y-53952000D01*
X69806800Y-53952000D01*
X69782296Y-53950796D01*
X69758027Y-53947196D01*
X69734229Y-53941235D01*
X69711129Y-53932970D01*
X69688951Y-53922480D01*
X69667907Y-53909867D01*
X69648202Y-53895253D01*
X69630023Y-53878777D01*
X69613547Y-53860598D01*
X69598933Y-53840893D01*
X69586320Y-53819849D01*
X69575830Y-53797671D01*
X69567565Y-53774571D01*
X69561604Y-53750773D01*
X69558004Y-53726504D01*
X69556800Y-53702000D01*
X69556800Y-52452000D01*
X69558004Y-52427496D01*
X69561604Y-52403227D01*
X69567565Y-52379429D01*
X69575830Y-52356329D01*
X69586320Y-52334151D01*
X69598933Y-52313107D01*
X69613547Y-52293402D01*
X69630023Y-52275223D01*
X69648202Y-52258747D01*
X69667907Y-52244133D01*
X69688951Y-52231520D01*
X69711129Y-52221030D01*
X69734229Y-52212765D01*
X69758027Y-52206804D01*
X69782296Y-52203204D01*
X69806800Y-52202000D01*
X70731800Y-52202000D01*
X70756304Y-52203204D01*
X70756304Y-52203204D01*
G37*
D11*
G04 #@! TD*
G04 #@! TO.P,R3,2*
G04 #@! TO.N,Net-(J1-Pad2)*
X70269300Y-53077000D03*
D10*
G04 #@! TO.N,Net-(R4-Pad2)*
G04 #@! TO.C,R4*
G36*
X91614578Y-61111046D02*
X91638847Y-61114646D01*
X91662645Y-61120607D01*
X91685745Y-61128872D01*
X91707923Y-61139362D01*
X91728967Y-61151975D01*
X91748672Y-61166589D01*
X91766851Y-61183065D01*
X92650735Y-62066949D01*
X92667211Y-62085128D01*
X92681825Y-62104833D01*
X92694438Y-62125877D01*
X92704928Y-62148055D01*
X92713193Y-62171155D01*
X92719154Y-62194953D01*
X92722754Y-62219222D01*
X92723958Y-62243726D01*
X92722754Y-62268230D01*
X92719154Y-62292499D01*
X92713193Y-62316297D01*
X92704928Y-62339397D01*
X92694438Y-62361575D01*
X92681825Y-62382619D01*
X92667211Y-62402324D01*
X92650735Y-62420503D01*
X91996661Y-63074577D01*
X91978482Y-63091053D01*
X91958777Y-63105667D01*
X91937733Y-63118280D01*
X91915555Y-63128770D01*
X91892455Y-63137035D01*
X91868657Y-63142996D01*
X91844388Y-63146596D01*
X91819884Y-63147800D01*
X91795380Y-63146596D01*
X91771111Y-63142996D01*
X91747313Y-63137035D01*
X91724213Y-63128770D01*
X91702035Y-63118280D01*
X91680991Y-63105667D01*
X91661286Y-63091053D01*
X91643107Y-63074577D01*
X90759223Y-62190693D01*
X90742747Y-62172514D01*
X90728133Y-62152809D01*
X90715520Y-62131765D01*
X90705030Y-62109587D01*
X90696765Y-62086487D01*
X90690804Y-62062689D01*
X90687204Y-62038420D01*
X90686000Y-62013916D01*
X90687204Y-61989412D01*
X90690804Y-61965143D01*
X90696765Y-61941345D01*
X90705030Y-61918245D01*
X90715520Y-61896067D01*
X90728133Y-61875023D01*
X90742747Y-61855318D01*
X90759223Y-61837139D01*
X91413297Y-61183065D01*
X91431476Y-61166589D01*
X91451181Y-61151975D01*
X91472225Y-61139362D01*
X91494403Y-61128872D01*
X91517503Y-61120607D01*
X91541301Y-61114646D01*
X91565570Y-61111046D01*
X91590074Y-61109842D01*
X91614578Y-61111046D01*
X91614578Y-61111046D01*
G37*
D11*
G04 #@! TD*
G04 #@! TO.P,R4,2*
G04 #@! TO.N,Net-(R4-Pad2)*
X91704979Y-62128821D03*
D10*
G04 #@! TO.N,GND*
G04 #@! TO.C,R4*
G36*
X93718220Y-59007404D02*
X93742489Y-59011004D01*
X93766287Y-59016965D01*
X93789387Y-59025230D01*
X93811565Y-59035720D01*
X93832609Y-59048333D01*
X93852314Y-59062947D01*
X93870493Y-59079423D01*
X94754377Y-59963307D01*
X94770853Y-59981486D01*
X94785467Y-60001191D01*
X94798080Y-60022235D01*
X94808570Y-60044413D01*
X94816835Y-60067513D01*
X94822796Y-60091311D01*
X94826396Y-60115580D01*
X94827600Y-60140084D01*
X94826396Y-60164588D01*
X94822796Y-60188857D01*
X94816835Y-60212655D01*
X94808570Y-60235755D01*
X94798080Y-60257933D01*
X94785467Y-60278977D01*
X94770853Y-60298682D01*
X94754377Y-60316861D01*
X94100303Y-60970935D01*
X94082124Y-60987411D01*
X94062419Y-61002025D01*
X94041375Y-61014638D01*
X94019197Y-61025128D01*
X93996097Y-61033393D01*
X93972299Y-61039354D01*
X93948030Y-61042954D01*
X93923526Y-61044158D01*
X93899022Y-61042954D01*
X93874753Y-61039354D01*
X93850955Y-61033393D01*
X93827855Y-61025128D01*
X93805677Y-61014638D01*
X93784633Y-61002025D01*
X93764928Y-60987411D01*
X93746749Y-60970935D01*
X92862865Y-60087051D01*
X92846389Y-60068872D01*
X92831775Y-60049167D01*
X92819162Y-60028123D01*
X92808672Y-60005945D01*
X92800407Y-59982845D01*
X92794446Y-59959047D01*
X92790846Y-59934778D01*
X92789642Y-59910274D01*
X92790846Y-59885770D01*
X92794446Y-59861501D01*
X92800407Y-59837703D01*
X92808672Y-59814603D01*
X92819162Y-59792425D01*
X92831775Y-59771381D01*
X92846389Y-59751676D01*
X92862865Y-59733497D01*
X93516939Y-59079423D01*
X93535118Y-59062947D01*
X93554823Y-59048333D01*
X93575867Y-59035720D01*
X93598045Y-59025230D01*
X93621145Y-59016965D01*
X93644943Y-59011004D01*
X93669212Y-59007404D01*
X93693716Y-59006200D01*
X93718220Y-59007404D01*
X93718220Y-59007404D01*
G37*
D11*
G04 #@! TD*
G04 #@! TO.P,R4,1*
G04 #@! TO.N,GND*
X93808621Y-60025179D03*
D17*
G04 #@! TO.P,U1,1*
G04 #@! TO.N,Net-(U1-Pad1)*
X79397864Y-53374918D03*
D10*
G04 #@! TD*
G04 #@! TO.N,Net-(U1-Pad1)*
G04 #@! TO.C,U1*
G36*
X78673080Y-53039042D02*
X79061988Y-52650134D01*
X80122648Y-53710794D01*
X79733740Y-54099702D01*
X78673080Y-53039042D01*
X78673080Y-53039042D01*
G37*
D17*
G04 #@! TO.P,U1,2*
G04 #@! TO.N,UVCC*
X79963550Y-52809233D03*
D10*
G04 #@! TD*
G04 #@! TO.N,UVCC*
G04 #@! TO.C,U1*
G36*
X79238766Y-52473357D02*
X79627674Y-52084449D01*
X80688334Y-53145109D01*
X80299426Y-53534017D01*
X79238766Y-52473357D01*
X79238766Y-52473357D01*
G37*
D17*
G04 #@! TO.P,U1,3*
G04 #@! TO.N,D-*
X80529235Y-52243548D03*
D10*
G04 #@! TD*
G04 #@! TO.N,D-*
G04 #@! TO.C,U1*
G36*
X79804451Y-51907672D02*
X80193359Y-51518764D01*
X81254019Y-52579424D01*
X80865111Y-52968332D01*
X79804451Y-51907672D01*
X79804451Y-51907672D01*
G37*
D17*
G04 #@! TO.P,U1,4*
G04 #@! TO.N,D+*
X81094920Y-51677862D03*
D10*
G04 #@! TD*
G04 #@! TO.N,D+*
G04 #@! TO.C,U1*
G36*
X80370136Y-51341986D02*
X80759044Y-50953078D01*
X81819704Y-52013738D01*
X81430796Y-52402646D01*
X80370136Y-51341986D01*
X80370136Y-51341986D01*
G37*
D17*
G04 #@! TO.P,U1,5*
G04 #@! TO.N,GND*
X81660606Y-51112177D03*
D10*
G04 #@! TD*
G04 #@! TO.N,GND*
G04 #@! TO.C,U1*
G36*
X80935822Y-50776301D02*
X81324730Y-50387393D01*
X82385390Y-51448053D01*
X81996482Y-51836961D01*
X80935822Y-50776301D01*
X80935822Y-50776301D01*
G37*
D17*
G04 #@! TO.P,U1,6*
G04 #@! TO.N,Net-(C5-Pad1)*
X82226291Y-50546491D03*
D10*
G04 #@! TD*
G04 #@! TO.N,Net-(C5-Pad1)*
G04 #@! TO.C,U1*
G36*
X81501507Y-50210615D02*
X81890415Y-49821707D01*
X82951075Y-50882367D01*
X82562167Y-51271275D01*
X81501507Y-50210615D01*
X81501507Y-50210615D01*
G37*
D17*
G04 #@! TO.P,U1,7*
G04 #@! TO.N,UVCC*
X82791977Y-49980806D03*
D10*
G04 #@! TD*
G04 #@! TO.N,UVCC*
G04 #@! TO.C,U1*
G36*
X82067193Y-49644930D02*
X82456101Y-49256022D01*
X83516761Y-50316682D01*
X83127853Y-50705590D01*
X82067193Y-49644930D01*
X82067193Y-49644930D01*
G37*
D17*
G04 #@! TO.P,U1,8*
G04 #@! TO.N,Net-(U1-Pad8)*
X83357662Y-49415120D03*
D10*
G04 #@! TD*
G04 #@! TO.N,Net-(U1-Pad8)*
G04 #@! TO.C,U1*
G36*
X82632878Y-49079244D02*
X83021786Y-48690336D01*
X84082446Y-49750996D01*
X83693538Y-50139904D01*
X82632878Y-49079244D01*
X82632878Y-49079244D01*
G37*
D17*
G04 #@! TO.P,U1,9*
G04 #@! TO.N,Net-(U1-Pad9)*
X83923348Y-48849435D03*
D10*
G04 #@! TD*
G04 #@! TO.N,Net-(U1-Pad9)*
G04 #@! TO.C,U1*
G36*
X83198564Y-48513559D02*
X83587472Y-48124651D01*
X84648132Y-49185311D01*
X84259224Y-49574219D01*
X83198564Y-48513559D01*
X83198564Y-48513559D01*
G37*
D17*
G04 #@! TO.P,U1,10*
G04 #@! TO.N,Net-(U1-Pad10)*
X84489033Y-48283750D03*
D10*
G04 #@! TD*
G04 #@! TO.N,Net-(U1-Pad10)*
G04 #@! TO.C,U1*
G36*
X83764249Y-47947874D02*
X84153157Y-47558966D01*
X85213817Y-48619626D01*
X84824909Y-49008534D01*
X83764249Y-47947874D01*
X83764249Y-47947874D01*
G37*
D17*
G04 #@! TO.P,U1,11*
G04 #@! TO.N,Net-(U1-Pad11)*
X85054718Y-47718064D03*
D10*
G04 #@! TD*
G04 #@! TO.N,Net-(U1-Pad11)*
G04 #@! TO.C,U1*
G36*
X84329934Y-47382188D02*
X84718842Y-46993280D01*
X85779502Y-48053940D01*
X85390594Y-48442848D01*
X84329934Y-47382188D01*
X84329934Y-47382188D01*
G37*
D17*
G04 #@! TO.P,U1,12*
G04 #@! TO.N,Net-(U1-Pad12)*
X87458882Y-47718064D03*
D10*
G04 #@! TD*
G04 #@! TO.N,Net-(U1-Pad12)*
G04 #@! TO.C,U1*
G36*
X87794758Y-46993280D02*
X88183666Y-47382188D01*
X87123006Y-48442848D01*
X86734098Y-48053940D01*
X87794758Y-46993280D01*
X87794758Y-46993280D01*
G37*
D17*
G04 #@! TO.P,U1,13*
G04 #@! TO.N,RESET*
X88024567Y-48283750D03*
D10*
G04 #@! TD*
G04 #@! TO.N,RESET*
G04 #@! TO.C,U1*
G36*
X88360443Y-47558966D02*
X88749351Y-47947874D01*
X87688691Y-49008534D01*
X87299783Y-48619626D01*
X88360443Y-47558966D01*
X88360443Y-47558966D01*
G37*
D17*
G04 #@! TO.P,U1,14*
G04 #@! TO.N,UVCC*
X88590252Y-48849435D03*
D10*
G04 #@! TD*
G04 #@! TO.N,UVCC*
G04 #@! TO.C,U1*
G36*
X88926128Y-48124651D02*
X89315036Y-48513559D01*
X88254376Y-49574219D01*
X87865468Y-49185311D01*
X88926128Y-48124651D01*
X88926128Y-48124651D01*
G37*
D17*
G04 #@! TO.P,U1,15*
G04 #@! TO.N,GND*
X89155938Y-49415120D03*
D10*
G04 #@! TD*
G04 #@! TO.N,GND*
G04 #@! TO.C,U1*
G36*
X89491814Y-48690336D02*
X89880722Y-49079244D01*
X88820062Y-50139904D01*
X88431154Y-49750996D01*
X89491814Y-48690336D01*
X89491814Y-48690336D01*
G37*
D17*
G04 #@! TO.P,U1,16*
G04 #@! TO.N,XTAL2*
X89721623Y-49980806D03*
D10*
G04 #@! TD*
G04 #@! TO.N,XTAL2*
G04 #@! TO.C,U1*
G36*
X90057499Y-49256022D02*
X90446407Y-49644930D01*
X89385747Y-50705590D01*
X88996839Y-50316682D01*
X90057499Y-49256022D01*
X90057499Y-49256022D01*
G37*
D17*
G04 #@! TO.P,U1,17*
G04 #@! TO.N,XTAL1*
X90287309Y-50546491D03*
D10*
G04 #@! TD*
G04 #@! TO.N,XTAL1*
G04 #@! TO.C,U1*
G36*
X90623185Y-49821707D02*
X91012093Y-50210615D01*
X89951433Y-51271275D01*
X89562525Y-50882367D01*
X90623185Y-49821707D01*
X90623185Y-49821707D01*
G37*
D17*
G04 #@! TO.P,U1,18*
G04 #@! TO.N,SCL*
X90852994Y-51112177D03*
D10*
G04 #@! TD*
G04 #@! TO.N,SCL*
G04 #@! TO.C,U1*
G36*
X91188870Y-50387393D02*
X91577778Y-50776301D01*
X90517118Y-51836961D01*
X90128210Y-51448053D01*
X91188870Y-50387393D01*
X91188870Y-50387393D01*
G37*
D17*
G04 #@! TO.P,U1,19*
G04 #@! TO.N,SDA*
X91418680Y-51677862D03*
D10*
G04 #@! TD*
G04 #@! TO.N,SDA*
G04 #@! TO.C,U1*
G36*
X91754556Y-50953078D02*
X92143464Y-51341986D01*
X91082804Y-52402646D01*
X90693896Y-52013738D01*
X91754556Y-50953078D01*
X91754556Y-50953078D01*
G37*
D17*
G04 #@! TO.P,U1,20*
G04 #@! TO.N,DATA*
X91984365Y-52243548D03*
D10*
G04 #@! TD*
G04 #@! TO.N,DATA*
G04 #@! TO.C,U1*
G36*
X92320241Y-51518764D02*
X92709149Y-51907672D01*
X91648489Y-52968332D01*
X91259581Y-52579424D01*
X92320241Y-51518764D01*
X92320241Y-51518764D01*
G37*
D17*
G04 #@! TO.P,U1,21*
G04 #@! TO.N,LED*
X92550050Y-52809233D03*
D10*
G04 #@! TD*
G04 #@! TO.N,LED*
G04 #@! TO.C,U1*
G36*
X92885926Y-52084449D02*
X93274834Y-52473357D01*
X92214174Y-53534017D01*
X91825266Y-53145109D01*
X92885926Y-52084449D01*
X92885926Y-52084449D01*
G37*
D17*
G04 #@! TO.P,U1,22*
G04 #@! TO.N,Net-(U1-Pad22)*
X93115736Y-53374918D03*
D10*
G04 #@! TD*
G04 #@! TO.N,Net-(U1-Pad22)*
G04 #@! TO.C,U1*
G36*
X93451612Y-52650134D02*
X93840520Y-53039042D01*
X92779860Y-54099702D01*
X92390952Y-53710794D01*
X93451612Y-52650134D01*
X93451612Y-52650134D01*
G37*
D17*
G04 #@! TO.P,U1,23*
G04 #@! TO.N,GND*
X93115736Y-55779082D03*
D10*
G04 #@! TD*
G04 #@! TO.N,GND*
G04 #@! TO.C,U1*
G36*
X92390952Y-55443206D02*
X92779860Y-55054298D01*
X93840520Y-56114958D01*
X93451612Y-56503866D01*
X92390952Y-55443206D01*
X92390952Y-55443206D01*
G37*
D17*
G04 #@! TO.P,U1,24*
G04 #@! TO.N,UVCC*
X92550050Y-56344767D03*
D10*
G04 #@! TD*
G04 #@! TO.N,UVCC*
G04 #@! TO.C,U1*
G36*
X91825266Y-56008891D02*
X92214174Y-55619983D01*
X93274834Y-56680643D01*
X92885926Y-57069551D01*
X91825266Y-56008891D01*
X91825266Y-56008891D01*
G37*
D17*
G04 #@! TO.P,U1,25*
G04 #@! TO.N,COL1*
X91984365Y-56910452D03*
D10*
G04 #@! TD*
G04 #@! TO.N,COL1*
G04 #@! TO.C,U1*
G36*
X91259581Y-56574576D02*
X91648489Y-56185668D01*
X92709149Y-57246328D01*
X92320241Y-57635236D01*
X91259581Y-56574576D01*
X91259581Y-56574576D01*
G37*
D17*
G04 #@! TO.P,U1,26*
G04 #@! TO.N,COL2*
X91418680Y-57476138D03*
D10*
G04 #@! TD*
G04 #@! TO.N,COL2*
G04 #@! TO.C,U1*
G36*
X90693896Y-57140262D02*
X91082804Y-56751354D01*
X92143464Y-57812014D01*
X91754556Y-58200922D01*
X90693896Y-57140262D01*
X90693896Y-57140262D01*
G37*
D17*
G04 #@! TO.P,U1,27*
G04 #@! TO.N,COL3*
X90852994Y-58041823D03*
D10*
G04 #@! TD*
G04 #@! TO.N,COL3*
G04 #@! TO.C,U1*
G36*
X90128210Y-57705947D02*
X90517118Y-57317039D01*
X91577778Y-58377699D01*
X91188870Y-58766607D01*
X90128210Y-57705947D01*
X90128210Y-57705947D01*
G37*
D17*
G04 #@! TO.P,U1,28*
G04 #@! TO.N,COL4*
X90287309Y-58607509D03*
D10*
G04 #@! TD*
G04 #@! TO.N,COL4*
G04 #@! TO.C,U1*
G36*
X89562525Y-58271633D02*
X89951433Y-57882725D01*
X91012093Y-58943385D01*
X90623185Y-59332293D01*
X89562525Y-58271633D01*
X89562525Y-58271633D01*
G37*
D17*
G04 #@! TO.P,U1,29*
G04 #@! TO.N,COL5*
X89721623Y-59173194D03*
D10*
G04 #@! TD*
G04 #@! TO.N,COL5*
G04 #@! TO.C,U1*
G36*
X88996839Y-58837318D02*
X89385747Y-58448410D01*
X90446407Y-59509070D01*
X90057499Y-59897978D01*
X88996839Y-58837318D01*
X88996839Y-58837318D01*
G37*
D17*
G04 #@! TO.P,U1,30*
G04 #@! TO.N,COL6*
X89155938Y-59738880D03*
D10*
G04 #@! TD*
G04 #@! TO.N,COL6*
G04 #@! TO.C,U1*
G36*
X88431154Y-59403004D02*
X88820062Y-59014096D01*
X89880722Y-60074756D01*
X89491814Y-60463664D01*
X88431154Y-59403004D01*
X88431154Y-59403004D01*
G37*
D17*
G04 #@! TO.P,U1,31*
G04 #@! TO.N,COL7*
X88590252Y-60304565D03*
D10*
G04 #@! TD*
G04 #@! TO.N,COL7*
G04 #@! TO.C,U1*
G36*
X87865468Y-59968689D02*
X88254376Y-59579781D01*
X89315036Y-60640441D01*
X88926128Y-61029349D01*
X87865468Y-59968689D01*
X87865468Y-59968689D01*
G37*
D17*
G04 #@! TO.P,U1,32*
G04 #@! TO.N,Net-(U1-Pad32)*
X88024567Y-60870250D03*
D10*
G04 #@! TD*
G04 #@! TO.N,Net-(U1-Pad32)*
G04 #@! TO.C,U1*
G36*
X87299783Y-60534374D02*
X87688691Y-60145466D01*
X88749351Y-61206126D01*
X88360443Y-61595034D01*
X87299783Y-60534374D01*
X87299783Y-60534374D01*
G37*
D17*
G04 #@! TO.P,U1,33*
G04 #@! TO.N,Net-(R4-Pad2)*
X87458882Y-61435936D03*
D10*
G04 #@! TD*
G04 #@! TO.N,Net-(R4-Pad2)*
G04 #@! TO.C,U1*
G36*
X86734098Y-61100060D02*
X87123006Y-60711152D01*
X88183666Y-61771812D01*
X87794758Y-62160720D01*
X86734098Y-61100060D01*
X86734098Y-61100060D01*
G37*
D17*
G04 #@! TO.P,U1,34*
G04 #@! TO.N,UVCC*
X85054718Y-61435936D03*
D10*
G04 #@! TD*
G04 #@! TO.N,UVCC*
G04 #@! TO.C,U1*
G36*
X85390594Y-60711152D02*
X85779502Y-61100060D01*
X84718842Y-62160720D01*
X84329934Y-61771812D01*
X85390594Y-60711152D01*
X85390594Y-60711152D01*
G37*
D17*
G04 #@! TO.P,U1,35*
G04 #@! TO.N,GND*
X84489033Y-60870250D03*
D10*
G04 #@! TD*
G04 #@! TO.N,GND*
G04 #@! TO.C,U1*
G36*
X84824909Y-60145466D02*
X85213817Y-60534374D01*
X84153157Y-61595034D01*
X83764249Y-61206126D01*
X84824909Y-60145466D01*
X84824909Y-60145466D01*
G37*
D17*
G04 #@! TO.P,U1,36*
G04 #@! TO.N,ROW6*
X83923348Y-60304565D03*
D10*
G04 #@! TD*
G04 #@! TO.N,ROW6*
G04 #@! TO.C,U1*
G36*
X84259224Y-59579781D02*
X84648132Y-59968689D01*
X83587472Y-61029349D01*
X83198564Y-60640441D01*
X84259224Y-59579781D01*
X84259224Y-59579781D01*
G37*
D17*
G04 #@! TO.P,U1,37*
G04 #@! TO.N,ROW5*
X83357662Y-59738880D03*
D10*
G04 #@! TD*
G04 #@! TO.N,ROW5*
G04 #@! TO.C,U1*
G36*
X83693538Y-59014096D02*
X84082446Y-59403004D01*
X83021786Y-60463664D01*
X82632878Y-60074756D01*
X83693538Y-59014096D01*
X83693538Y-59014096D01*
G37*
D17*
G04 #@! TO.P,U1,38*
G04 #@! TO.N,ROW4*
X82791977Y-59173194D03*
D10*
G04 #@! TD*
G04 #@! TO.N,ROW4*
G04 #@! TO.C,U1*
G36*
X83127853Y-58448410D02*
X83516761Y-58837318D01*
X82456101Y-59897978D01*
X82067193Y-59509070D01*
X83127853Y-58448410D01*
X83127853Y-58448410D01*
G37*
D17*
G04 #@! TO.P,U1,39*
G04 #@! TO.N,ROW3*
X82226291Y-58607509D03*
D10*
G04 #@! TD*
G04 #@! TO.N,ROW3*
G04 #@! TO.C,U1*
G36*
X82562167Y-57882725D02*
X82951075Y-58271633D01*
X81890415Y-59332293D01*
X81501507Y-58943385D01*
X82562167Y-57882725D01*
X82562167Y-57882725D01*
G37*
D17*
G04 #@! TO.P,U1,40*
G04 #@! TO.N,ROW2*
X81660606Y-58041823D03*
D10*
G04 #@! TD*
G04 #@! TO.N,ROW2*
G04 #@! TO.C,U1*
G36*
X81996482Y-57317039D02*
X82385390Y-57705947D01*
X81324730Y-58766607D01*
X80935822Y-58377699D01*
X81996482Y-57317039D01*
X81996482Y-57317039D01*
G37*
D17*
G04 #@! TO.P,U1,41*
G04 #@! TO.N,ROW1*
X81094920Y-57476138D03*
D10*
G04 #@! TD*
G04 #@! TO.N,ROW1*
G04 #@! TO.C,U1*
G36*
X81430796Y-56751354D02*
X81819704Y-57140262D01*
X80759044Y-58200922D01*
X80370136Y-57812014D01*
X81430796Y-56751354D01*
X81430796Y-56751354D01*
G37*
D17*
G04 #@! TO.P,U1,42*
G04 #@! TO.N,Net-(U1-Pad42)*
X80529235Y-56910452D03*
D10*
G04 #@! TD*
G04 #@! TO.N,Net-(U1-Pad42)*
G04 #@! TO.C,U1*
G36*
X80865111Y-56185668D02*
X81254019Y-56574576D01*
X80193359Y-57635236D01*
X79804451Y-57246328D01*
X80865111Y-56185668D01*
X80865111Y-56185668D01*
G37*
D17*
G04 #@! TO.P,U1,43*
G04 #@! TO.N,GND*
X79963550Y-56344767D03*
D10*
G04 #@! TD*
G04 #@! TO.N,GND*
G04 #@! TO.C,U1*
G36*
X80299426Y-55619983D02*
X80688334Y-56008891D01*
X79627674Y-57069551D01*
X79238766Y-56680643D01*
X80299426Y-55619983D01*
X80299426Y-55619983D01*
G37*
D17*
G04 #@! TO.P,U1,44*
G04 #@! TO.N,UVCC*
X79397864Y-55779082D03*
D10*
G04 #@! TD*
G04 #@! TO.N,UVCC*
G04 #@! TO.C,U1*
G36*
X79733740Y-55054298D02*
X80122648Y-55443206D01*
X79061988Y-56503866D01*
X78673080Y-56114958D01*
X79733740Y-55054298D01*
X79733740Y-55054298D01*
G37*
D18*
G04 #@! TO.P,Y1,1*
G04 #@! TO.N,XTAL1*
X97606800Y-50027000D03*
G04 #@! TO.P,Y1,2*
G04 #@! TO.N,GND*
X97606800Y-47127000D03*
G04 #@! TO.P,Y1,3*
G04 #@! TO.N,XTAL2*
X99906800Y-47127000D03*
G04 #@! TO.P,Y1,4*
G04 #@! TO.N,GND*
X99906800Y-50027000D03*
G04 #@! TD*
D19*
G04 #@! TO.P,Ref\002A\002A,*
G04 #@! TO.N,*
X158256800Y-47077000D03*
G04 #@! TD*
G04 #@! TO.P,Ref\002A\002A,*
G04 #@! TO.N,*
X158256800Y-62077000D03*
G04 #@! TD*
G04 #@! TO.P,Ref\002A\002A,*
G04 #@! TO.N,*
X63256800Y-47077000D03*
G04 #@! TD*
G04 #@! TO.P,Ref\002A\002A,*
G04 #@! TO.N,*
X63256800Y-62077000D03*
G04 #@! TD*
D20*
G04 #@! TO.P,SW1,1*
G04 #@! TO.N,RESET*
X97681800Y-58502000D03*
X97681800Y-62652000D03*
G04 #@! TO.P,SW1,2*
G04 #@! TO.N,GND*
X99831800Y-58502000D03*
X99831800Y-62652000D03*
G04 #@! TD*
D21*
G04 #@! TO.N,UVCC*
X77256800Y-63077000D03*
G04 #@! TO.N,LED*
X73756800Y-62077000D03*
G04 #@! TO.N,GND*
X93808621Y-57577000D03*
G04 #@! TD*
D22*
G04 #@! TO.N,XTAL1*
X97269300Y-50364500D02*
X97606800Y-50027000D01*
X97269300Y-53077000D02*
X97269300Y-50364500D01*
X90888349Y-49945451D02*
X90287309Y-50546491D01*
X96456800Y-53077000D02*
X95756800Y-52377000D01*
X97269300Y-53077000D02*
X96456800Y-53077000D01*
X95756800Y-51577000D02*
X95281810Y-51102010D01*
X95756800Y-52377000D02*
X95756800Y-51577000D01*
X93893620Y-51102010D02*
X92621386Y-49829776D01*
X95281810Y-51102010D02*
X93893620Y-51102010D01*
X91004024Y-49829776D02*
X90287309Y-50546491D01*
X92621386Y-49829776D02*
X91004024Y-49829776D01*
D23*
G04 #@! TO.N,UVCC*
X69044300Y-55877000D02*
X69756800Y-56589500D01*
X64919300Y-55877000D02*
X69044300Y-55877000D01*
X69756800Y-56589500D02*
X73756800Y-56589500D01*
X75269300Y-56589500D02*
X78704979Y-60025179D01*
X73756800Y-56589500D02*
X75269300Y-56589500D01*
X78704979Y-56471967D02*
X79397864Y-55779082D01*
X78704979Y-60025179D02*
X78704979Y-56471967D01*
X81946890Y-60025179D02*
X83966755Y-62045044D01*
X84445610Y-62045044D02*
X85054718Y-61435936D01*
X83966755Y-62045044D02*
X84445610Y-62045044D01*
X78704979Y-60025179D02*
X81946890Y-60025179D01*
X80572658Y-53418341D02*
X79963550Y-52809233D01*
X79397864Y-55290174D02*
X80572658Y-54115380D01*
X80572658Y-54115380D02*
X80572658Y-53418341D01*
X79397864Y-55779082D02*
X79397864Y-55290174D01*
X79963550Y-52809233D02*
X80572659Y-53418342D01*
X82791977Y-49980806D02*
X83401085Y-50589914D01*
X91940941Y-55735658D02*
X92550050Y-56344767D01*
X85054718Y-61435936D02*
X90754996Y-55735658D01*
X86284088Y-48185766D02*
X86284088Y-47549712D01*
X83401085Y-50589914D02*
X83879940Y-50589914D01*
X89199361Y-48240326D02*
X88590252Y-48849435D01*
X89199361Y-47761472D02*
X89199361Y-48240326D01*
X87981160Y-46543270D02*
X89199361Y-47761472D01*
X87290530Y-46543270D02*
X87981160Y-46543270D01*
X86284088Y-47549712D02*
X87290530Y-46543270D01*
X91256800Y-55735658D02*
X91256800Y-54213054D01*
X85756800Y-48713054D02*
X86284088Y-48185766D01*
X90754996Y-55735658D02*
X91256800Y-55735658D01*
X83879940Y-50589914D02*
X85756800Y-48713054D01*
X91256800Y-54213054D02*
X85756800Y-48713054D01*
X91256800Y-55735658D02*
X91940941Y-55735658D01*
X69269300Y-57077000D02*
X69756800Y-56589500D01*
X78704979Y-60025179D02*
X78704979Y-61628821D01*
X78704979Y-61628821D02*
X77256800Y-63077000D01*
D22*
G04 #@! TO.N,Net-(C5-Pad1)*
X81498050Y-49818250D02*
X82226291Y-50546491D01*
X81498050Y-47714608D02*
X81498050Y-49818250D01*
X80808621Y-47025179D02*
X81498050Y-47714608D01*
G04 #@! TO.N,Net-(J1-Pad2)*
X68119300Y-55227000D02*
X70269300Y-53077000D01*
X64919300Y-55227000D02*
X68119300Y-55227000D01*
G04 #@! TO.N,Net-(J1-Pad3)*
X69497953Y-50348347D02*
X70269300Y-49577000D01*
X69497953Y-50923347D02*
X69497953Y-50348347D01*
X65844300Y-54577000D02*
X69497953Y-50923347D01*
X64919300Y-54577000D02*
X65844300Y-54577000D01*
G04 #@! TO.N,LED*
X75602620Y-63922820D02*
X73756800Y-62077000D01*
X98331801Y-63437001D02*
X97845982Y-63922820D01*
X98331801Y-57070689D02*
X98331801Y-63437001D01*
X93469305Y-52208193D02*
X98331801Y-57070689D01*
X97845982Y-63922820D02*
X75602620Y-63922820D01*
X93151090Y-52208193D02*
X93469305Y-52208193D01*
X92550050Y-52809233D02*
X93151090Y-52208193D01*
G04 #@! TO.N,RESET*
X97681800Y-58502000D02*
X97681800Y-62652000D01*
X82152610Y-63472810D02*
X80808621Y-62128821D01*
X97060990Y-63472810D02*
X82152610Y-63472810D01*
X97681800Y-62852000D02*
X97060990Y-63472810D01*
X97681800Y-62652000D02*
X97681800Y-62852000D01*
X96722523Y-58502000D02*
X97681800Y-58502000D01*
X87423527Y-49203004D02*
X96722523Y-58502000D01*
X87423527Y-48884790D02*
X87423527Y-49203004D01*
X88024567Y-48283750D02*
X87423527Y-48884790D01*
G04 #@! TO.N,D+*
X79889868Y-50472810D02*
X81094920Y-51677862D01*
X74140110Y-50472810D02*
X79889868Y-50472810D01*
X73244300Y-49577000D02*
X74140110Y-50472810D01*
G04 #@! TO.N,D-*
X79208507Y-50922820D02*
X80529235Y-52243548D01*
X75398480Y-50922820D02*
X79208507Y-50922820D01*
X73244300Y-53077000D02*
X75398480Y-50922820D01*
G04 #@! TO.N,Net-(R4-Pad2)*
X88151767Y-62128821D02*
X87458882Y-61435936D01*
X91704979Y-62128821D02*
X88151767Y-62128821D01*
D23*
G04 #@! TO.N,GND*
X99906800Y-52739500D02*
X100244300Y-53077000D01*
X99906800Y-50027000D02*
X99906800Y-52739500D01*
X97569300Y-47089500D02*
X97606800Y-47127000D01*
X94756800Y-47089500D02*
X97569300Y-47089500D01*
X79677250Y-49128821D02*
X78704979Y-49128821D01*
X81660606Y-51112177D02*
X79677250Y-49128821D01*
X82269714Y-54038603D02*
X79963550Y-56344767D01*
X82269714Y-51721285D02*
X82269714Y-54038603D01*
X81660606Y-51112177D02*
X82269714Y-51721285D01*
X85098142Y-60261141D02*
X84489033Y-60870250D01*
X81051513Y-55735658D02*
X85098142Y-59782287D01*
X85098142Y-59782287D02*
X85098142Y-60261141D01*
X80572659Y-55735658D02*
X81051513Y-55735658D01*
X79963550Y-56344767D02*
X80572659Y-55735658D01*
X97606800Y-46666998D02*
X98696798Y-45577000D01*
X97606800Y-47127000D02*
X97606800Y-46666998D01*
X99906800Y-49877000D02*
X99906800Y-50027000D01*
X101306800Y-45766998D02*
X101306800Y-48477000D01*
X101116802Y-45577000D02*
X101306800Y-45766998D01*
X101306800Y-48477000D02*
X99906800Y-49877000D01*
X98696798Y-45577000D02*
X101116802Y-45577000D01*
X93115736Y-55779082D02*
X93808621Y-56471967D01*
X91481558Y-47089500D02*
X94756800Y-47089500D01*
X89155938Y-49415120D02*
X91481558Y-47089500D01*
X64919300Y-53277000D02*
X64919300Y-52077000D01*
X100244300Y-58089500D02*
X99831800Y-58502000D01*
X100244300Y-53077000D02*
X100244300Y-58089500D01*
X93808621Y-57577000D02*
X93808621Y-60025179D01*
X93808621Y-56471967D02*
X93808621Y-57577000D01*
D22*
G04 #@! TO.N,XTAL2*
X95506799Y-48502001D02*
X99831799Y-48502001D01*
X99906800Y-48427000D02*
X99906800Y-47127000D01*
X94756800Y-49252000D02*
X95506799Y-48502001D01*
X99831799Y-48502001D02*
X99906800Y-48427000D01*
X94756800Y-50064500D02*
X94756800Y-49252000D01*
X93097066Y-49379766D02*
X90322663Y-49379766D01*
X93781800Y-50064500D02*
X93097066Y-49379766D01*
X90322663Y-49379766D02*
X89721623Y-49980806D01*
X94756800Y-50064500D02*
X93781800Y-50064500D01*
G04 #@! TD*
D24*
G04 #@! TO.N,GND*
G36*
X157217356Y-45521362D02*
X156701162Y-46037556D01*
X156421800Y-46711996D01*
X156421800Y-47442004D01*
X156701162Y-48116444D01*
X157217356Y-48632638D01*
X157891796Y-48912000D01*
X158621804Y-48912000D01*
X159296244Y-48632638D01*
X159812438Y-48116444D01*
X160061801Y-47514428D01*
X160061800Y-61639570D01*
X159812438Y-61037556D01*
X159296244Y-60521362D01*
X158621804Y-60242000D01*
X157891796Y-60242000D01*
X157217356Y-60521362D01*
X156701162Y-61037556D01*
X156421800Y-61711996D01*
X156421800Y-62442004D01*
X156701162Y-63116444D01*
X157217356Y-63632638D01*
X157819370Y-63882000D01*
X98948506Y-63882000D01*
X99047705Y-63733539D01*
X99065227Y-63645447D01*
X99067217Y-63635443D01*
X99147101Y-63715327D01*
X99380490Y-63812000D01*
X99546050Y-63812000D01*
X99704800Y-63653250D01*
X99704800Y-62779000D01*
X99958800Y-62779000D01*
X99958800Y-63653250D01*
X100117550Y-63812000D01*
X100283110Y-63812000D01*
X100516499Y-63715327D01*
X100695127Y-63536698D01*
X100791800Y-63303309D01*
X100791800Y-62937750D01*
X100633050Y-62779000D01*
X99958800Y-62779000D01*
X99704800Y-62779000D01*
X99684800Y-62779000D01*
X99684800Y-62525000D01*
X99704800Y-62525000D01*
X99704800Y-61650750D01*
X99958800Y-61650750D01*
X99958800Y-62525000D01*
X100633050Y-62525000D01*
X100791800Y-62366250D01*
X100791800Y-62000691D01*
X100695127Y-61767302D01*
X100516499Y-61588673D01*
X100283110Y-61492000D01*
X100117550Y-61492000D01*
X99958800Y-61650750D01*
X99704800Y-61650750D01*
X99546050Y-61492000D01*
X99380490Y-61492000D01*
X99147101Y-61588673D01*
X99091801Y-61643973D01*
X99091801Y-59510027D01*
X99147101Y-59565327D01*
X99380490Y-59662000D01*
X99546050Y-59662000D01*
X99704800Y-59503250D01*
X99704800Y-58629000D01*
X99958800Y-58629000D01*
X99958800Y-59503250D01*
X100117550Y-59662000D01*
X100283110Y-59662000D01*
X100516499Y-59565327D01*
X100695127Y-59386698D01*
X100791800Y-59153309D01*
X100791800Y-58787750D01*
X100648511Y-58644461D01*
X157071800Y-58644461D01*
X157084962Y-58710631D01*
X157084962Y-58710636D01*
X157123022Y-58901978D01*
X157123023Y-58901980D01*
X157123023Y-58901982D01*
X157140173Y-58943385D01*
X157225303Y-59148907D01*
X157225304Y-59148908D01*
X157225305Y-59148910D01*
X157333692Y-59311121D01*
X157387336Y-59364764D01*
X157522679Y-59500108D01*
X157684890Y-59608495D01*
X157684892Y-59608496D01*
X157684893Y-59608497D01*
X157776776Y-59646556D01*
X157931818Y-59710777D01*
X157931820Y-59710777D01*
X157931822Y-59710778D01*
X158123165Y-59748838D01*
X158390436Y-59748838D01*
X158581778Y-59710778D01*
X158581780Y-59710777D01*
X158581782Y-59710777D01*
X158736824Y-59646556D01*
X158828707Y-59608497D01*
X158828708Y-59608496D01*
X158828710Y-59608495D01*
X158990921Y-59500108D01*
X159126264Y-59364764D01*
X159179908Y-59311121D01*
X159288295Y-59148910D01*
X159288296Y-59148908D01*
X159288297Y-59148907D01*
X159373427Y-58943385D01*
X159390577Y-58901982D01*
X159390577Y-58901980D01*
X159390578Y-58901978D01*
X159428638Y-58710635D01*
X159428638Y-58710632D01*
X159441800Y-58644462D01*
X159441800Y-50509538D01*
X159428638Y-50443368D01*
X159428638Y-50443365D01*
X159390578Y-50252022D01*
X159390577Y-50252020D01*
X159390577Y-50252018D01*
X159338508Y-50126313D01*
X159288297Y-50005093D01*
X159288295Y-50005091D01*
X159288295Y-50005090D01*
X159179908Y-49842879D01*
X159041942Y-49704914D01*
X158990921Y-49653892D01*
X158828710Y-49545505D01*
X158828708Y-49545504D01*
X158828707Y-49545503D01*
X158688636Y-49487484D01*
X158581782Y-49443223D01*
X158581780Y-49443223D01*
X158581778Y-49443222D01*
X158390436Y-49405162D01*
X158123165Y-49405162D01*
X157931822Y-49443222D01*
X157931820Y-49443223D01*
X157931818Y-49443223D01*
X157824964Y-49487484D01*
X157684893Y-49545503D01*
X157684892Y-49545504D01*
X157684890Y-49545505D01*
X157522679Y-49653892D01*
X157471658Y-49704914D01*
X157333692Y-49842879D01*
X157225305Y-50005090D01*
X157225305Y-50005091D01*
X157225303Y-50005093D01*
X157175092Y-50126313D01*
X157123023Y-50252018D01*
X157123023Y-50252020D01*
X157123022Y-50252022D01*
X157084962Y-50443364D01*
X157084962Y-50443373D01*
X157071801Y-50509538D01*
X157071800Y-58644461D01*
X100648511Y-58644461D01*
X100633050Y-58629000D01*
X99958800Y-58629000D01*
X99704800Y-58629000D01*
X99684800Y-58629000D01*
X99684800Y-58375000D01*
X99704800Y-58375000D01*
X99704800Y-57500750D01*
X99958800Y-57500750D01*
X99958800Y-58375000D01*
X100633050Y-58375000D01*
X100791800Y-58216250D01*
X100791800Y-57850691D01*
X100695127Y-57617302D01*
X100516499Y-57438673D01*
X100283110Y-57342000D01*
X100117550Y-57342000D01*
X99958800Y-57500750D01*
X99704800Y-57500750D01*
X99546050Y-57342000D01*
X99380490Y-57342000D01*
X99147101Y-57438673D01*
X99091801Y-57493973D01*
X99091801Y-57145537D01*
X99106689Y-57070689D01*
X99091801Y-56995841D01*
X99091801Y-56995837D01*
X99047705Y-56774152D01*
X99047705Y-56774151D01*
X98922130Y-56586216D01*
X98879730Y-56522760D01*
X98816274Y-56480360D01*
X97039914Y-54704000D01*
X101756800Y-54704000D01*
X101805401Y-54694333D01*
X101846603Y-54666803D01*
X101874133Y-54625601D01*
X101883800Y-54577000D01*
X101883800Y-45272000D01*
X157819370Y-45272000D01*
X157217356Y-45521362D01*
X157217356Y-45521362D01*
G37*
X157217356Y-45521362D02*
X156701162Y-46037556D01*
X156421800Y-46711996D01*
X156421800Y-47442004D01*
X156701162Y-48116444D01*
X157217356Y-48632638D01*
X157891796Y-48912000D01*
X158621804Y-48912000D01*
X159296244Y-48632638D01*
X159812438Y-48116444D01*
X160061801Y-47514428D01*
X160061800Y-61639570D01*
X159812438Y-61037556D01*
X159296244Y-60521362D01*
X158621804Y-60242000D01*
X157891796Y-60242000D01*
X157217356Y-60521362D01*
X156701162Y-61037556D01*
X156421800Y-61711996D01*
X156421800Y-62442004D01*
X156701162Y-63116444D01*
X157217356Y-63632638D01*
X157819370Y-63882000D01*
X98948506Y-63882000D01*
X99047705Y-63733539D01*
X99065227Y-63645447D01*
X99067217Y-63635443D01*
X99147101Y-63715327D01*
X99380490Y-63812000D01*
X99546050Y-63812000D01*
X99704800Y-63653250D01*
X99704800Y-62779000D01*
X99958800Y-62779000D01*
X99958800Y-63653250D01*
X100117550Y-63812000D01*
X100283110Y-63812000D01*
X100516499Y-63715327D01*
X100695127Y-63536698D01*
X100791800Y-63303309D01*
X100791800Y-62937750D01*
X100633050Y-62779000D01*
X99958800Y-62779000D01*
X99704800Y-62779000D01*
X99684800Y-62779000D01*
X99684800Y-62525000D01*
X99704800Y-62525000D01*
X99704800Y-61650750D01*
X99958800Y-61650750D01*
X99958800Y-62525000D01*
X100633050Y-62525000D01*
X100791800Y-62366250D01*
X100791800Y-62000691D01*
X100695127Y-61767302D01*
X100516499Y-61588673D01*
X100283110Y-61492000D01*
X100117550Y-61492000D01*
X99958800Y-61650750D01*
X99704800Y-61650750D01*
X99546050Y-61492000D01*
X99380490Y-61492000D01*
X99147101Y-61588673D01*
X99091801Y-61643973D01*
X99091801Y-59510027D01*
X99147101Y-59565327D01*
X99380490Y-59662000D01*
X99546050Y-59662000D01*
X99704800Y-59503250D01*
X99704800Y-58629000D01*
X99958800Y-58629000D01*
X99958800Y-59503250D01*
X100117550Y-59662000D01*
X100283110Y-59662000D01*
X100516499Y-59565327D01*
X100695127Y-59386698D01*
X100791800Y-59153309D01*
X100791800Y-58787750D01*
X100648511Y-58644461D01*
X157071800Y-58644461D01*
X157084962Y-58710631D01*
X157084962Y-58710636D01*
X157123022Y-58901978D01*
X157123023Y-58901980D01*
X157123023Y-58901982D01*
X157140173Y-58943385D01*
X157225303Y-59148907D01*
X157225304Y-59148908D01*
X157225305Y-59148910D01*
X157333692Y-59311121D01*
X157387336Y-59364764D01*
X157522679Y-59500108D01*
X157684890Y-59608495D01*
X157684892Y-59608496D01*
X157684893Y-59608497D01*
X157776776Y-59646556D01*
X157931818Y-59710777D01*
X157931820Y-59710777D01*
X157931822Y-59710778D01*
X158123165Y-59748838D01*
X158390436Y-59748838D01*
X158581778Y-59710778D01*
X158581780Y-59710777D01*
X158581782Y-59710777D01*
X158736824Y-59646556D01*
X158828707Y-59608497D01*
X158828708Y-59608496D01*
X158828710Y-59608495D01*
X158990921Y-59500108D01*
X159126264Y-59364764D01*
X159179908Y-59311121D01*
X159288295Y-59148910D01*
X159288296Y-59148908D01*
X159288297Y-59148907D01*
X159373427Y-58943385D01*
X159390577Y-58901982D01*
X159390577Y-58901980D01*
X159390578Y-58901978D01*
X159428638Y-58710635D01*
X159428638Y-58710632D01*
X159441800Y-58644462D01*
X159441800Y-50509538D01*
X159428638Y-50443368D01*
X159428638Y-50443365D01*
X159390578Y-50252022D01*
X159390577Y-50252020D01*
X159390577Y-50252018D01*
X159338508Y-50126313D01*
X159288297Y-50005093D01*
X159288295Y-50005091D01*
X159288295Y-50005090D01*
X159179908Y-49842879D01*
X159041942Y-49704914D01*
X158990921Y-49653892D01*
X158828710Y-49545505D01*
X158828708Y-49545504D01*
X158828707Y-49545503D01*
X158688636Y-49487484D01*
X158581782Y-49443223D01*
X158581780Y-49443223D01*
X158581778Y-49443222D01*
X158390436Y-49405162D01*
X158123165Y-49405162D01*
X157931822Y-49443222D01*
X157931820Y-49443223D01*
X157931818Y-49443223D01*
X157824964Y-49487484D01*
X157684893Y-49545503D01*
X157684892Y-49545504D01*
X157684890Y-49545505D01*
X157522679Y-49653892D01*
X157471658Y-49704914D01*
X157333692Y-49842879D01*
X157225305Y-50005090D01*
X157225305Y-50005091D01*
X157225303Y-50005093D01*
X157175092Y-50126313D01*
X157123023Y-50252018D01*
X157123023Y-50252020D01*
X157123022Y-50252022D01*
X157084962Y-50443364D01*
X157084962Y-50443373D01*
X157071801Y-50509538D01*
X157071800Y-58644461D01*
X100648511Y-58644461D01*
X100633050Y-58629000D01*
X99958800Y-58629000D01*
X99704800Y-58629000D01*
X99684800Y-58629000D01*
X99684800Y-58375000D01*
X99704800Y-58375000D01*
X99704800Y-57500750D01*
X99958800Y-57500750D01*
X99958800Y-58375000D01*
X100633050Y-58375000D01*
X100791800Y-58216250D01*
X100791800Y-57850691D01*
X100695127Y-57617302D01*
X100516499Y-57438673D01*
X100283110Y-57342000D01*
X100117550Y-57342000D01*
X99958800Y-57500750D01*
X99704800Y-57500750D01*
X99546050Y-57342000D01*
X99380490Y-57342000D01*
X99147101Y-57438673D01*
X99091801Y-57493973D01*
X99091801Y-57145537D01*
X99106689Y-57070689D01*
X99091801Y-56995841D01*
X99091801Y-56995837D01*
X99047705Y-56774152D01*
X99047705Y-56774151D01*
X98922130Y-56586216D01*
X98879730Y-56522760D01*
X98816274Y-56480360D01*
X97039914Y-54704000D01*
X101756800Y-54704000D01*
X101805401Y-54694333D01*
X101846603Y-54666803D01*
X101874133Y-54625601D01*
X101883800Y-54577000D01*
X101883800Y-45272000D01*
X157819370Y-45272000D01*
X157217356Y-45521362D01*
G36*
X93860190Y-45742000D02*
X93755490Y-45742000D01*
X93522101Y-45838673D01*
X93498066Y-45862708D01*
X93216639Y-45956517D01*
X93166997Y-45987197D01*
X93139467Y-46028399D01*
X93129800Y-46077000D01*
X93129800Y-48611389D01*
X93097066Y-48604878D01*
X93022219Y-48619766D01*
X91285906Y-48619766D01*
X90277679Y-48451728D01*
X90208199Y-48459667D01*
X90166997Y-48487197D01*
X90042660Y-48611534D01*
X90011578Y-48617716D01*
X90033013Y-48585636D01*
X90084361Y-48327491D01*
X90084361Y-48327487D01*
X90101698Y-48240327D01*
X90084361Y-48153167D01*
X90084361Y-47848632D01*
X90101698Y-47761472D01*
X90084361Y-47674311D01*
X90084361Y-47674307D01*
X90033013Y-47416162D01*
X89908713Y-47230135D01*
X89886785Y-47197317D01*
X89886784Y-47197316D01*
X89837410Y-47123423D01*
X89763518Y-47074050D01*
X88668585Y-45979117D01*
X88619209Y-45905221D01*
X88326470Y-45709618D01*
X88068325Y-45658270D01*
X88068320Y-45658270D01*
X87981160Y-45640933D01*
X87893999Y-45658270D01*
X87377691Y-45658270D01*
X87290530Y-45640933D01*
X87203369Y-45658270D01*
X87203365Y-45658270D01*
X86945220Y-45709618D01*
X86726375Y-45855846D01*
X86726374Y-45855847D01*
X86652481Y-45905221D01*
X86603107Y-45979114D01*
X85719933Y-46862289D01*
X85646040Y-46911663D01*
X85608710Y-46967530D01*
X85176651Y-46535471D01*
X84966607Y-46395123D01*
X84718842Y-46345840D01*
X84471077Y-46395123D01*
X84261033Y-46535471D01*
X83872125Y-46924379D01*
X83801317Y-47030351D01*
X83695348Y-47101157D01*
X83306440Y-47490065D01*
X83235633Y-47596035D01*
X83129663Y-47666842D01*
X82740755Y-48055750D01*
X82669949Y-48161719D01*
X82563977Y-48232527D01*
X82258050Y-48538454D01*
X82258050Y-47789456D01*
X82272938Y-47714608D01*
X82268208Y-47690827D01*
X82406726Y-47483519D01*
X82475040Y-47140084D01*
X82406726Y-46796649D01*
X82212186Y-46505498D01*
X81328302Y-45621614D01*
X81037151Y-45427074D01*
X80693716Y-45358760D01*
X80350281Y-45427074D01*
X80059130Y-45621614D01*
X79405056Y-46275688D01*
X79210516Y-46566839D01*
X79142202Y-46910274D01*
X79210516Y-47253709D01*
X79405056Y-47544860D01*
X80288940Y-48428744D01*
X80580091Y-48623284D01*
X80738050Y-48654704D01*
X80738051Y-49743398D01*
X80723162Y-49818250D01*
X80734461Y-49875055D01*
X80394247Y-49534841D01*
X80462511Y-49370036D01*
X80462511Y-49117417D01*
X80365838Y-48884028D01*
X80187210Y-48705399D01*
X79859861Y-48378050D01*
X79635355Y-48378050D01*
X78884584Y-49128821D01*
X78898727Y-49142964D01*
X78719122Y-49322569D01*
X78704979Y-49308426D01*
X78690837Y-49322569D01*
X78511232Y-49142964D01*
X78525374Y-49128821D01*
X77659698Y-48263146D01*
X77435192Y-48263146D01*
X77044120Y-48654217D01*
X76947447Y-48887606D01*
X76947447Y-49140225D01*
X77044120Y-49373614D01*
X77120506Y-49450000D01*
X74883800Y-49450000D01*
X74883800Y-48077000D01*
X74874133Y-48028399D01*
X74846603Y-47987197D01*
X74805401Y-47959667D01*
X74756800Y-47950000D01*
X68756800Y-47950000D01*
X68708199Y-47959667D01*
X68666997Y-47987197D01*
X68639467Y-48028399D01*
X68629800Y-48077000D01*
X68629800Y-50716698D01*
X66196501Y-53149998D01*
X66097552Y-53149998D01*
X66229300Y-53018250D01*
X66229300Y-52950691D01*
X66134085Y-52720821D01*
X66291612Y-52275854D01*
X66263249Y-51735556D01*
X66111053Y-51368122D01*
X65872698Y-51303207D01*
X65098905Y-52077000D01*
X65113048Y-52091143D01*
X64933443Y-52270748D01*
X64919300Y-52256605D01*
X64905158Y-52270748D01*
X64725553Y-52091143D01*
X64739695Y-52077000D01*
X63965902Y-51303207D01*
X63804300Y-51347219D01*
X63804300Y-51123602D01*
X64145507Y-51123602D01*
X64919300Y-51897395D01*
X65693093Y-51123602D01*
X65628178Y-50885247D01*
X65118154Y-50704688D01*
X64577856Y-50733051D01*
X64210422Y-50885247D01*
X64145507Y-51123602D01*
X63804300Y-51123602D01*
X63804300Y-50950691D01*
X63739675Y-50794672D01*
X63762762Y-50759391D01*
X63758892Y-50721719D01*
X63532380Y-50293526D01*
X63159247Y-49984610D01*
X62696300Y-49842000D01*
X62346300Y-49842000D01*
X62346300Y-53450000D01*
X62366300Y-53450000D01*
X62366300Y-53704000D01*
X62346300Y-53704000D01*
X62346300Y-55450000D01*
X62366300Y-55450000D01*
X62366300Y-55704000D01*
X62346300Y-55704000D01*
X62346300Y-59312000D01*
X62696300Y-59312000D01*
X63159247Y-59169390D01*
X63532380Y-58860474D01*
X63603679Y-58725691D01*
X68246800Y-58725691D01*
X68246800Y-59278750D01*
X68405550Y-59437500D01*
X69629800Y-59437500D01*
X69629800Y-58375750D01*
X69883800Y-58375750D01*
X69883800Y-59437500D01*
X71108050Y-59437500D01*
X71266800Y-59278750D01*
X71266800Y-58725691D01*
X72246800Y-58725691D01*
X72246800Y-59278750D01*
X72405550Y-59437500D01*
X73629800Y-59437500D01*
X73629800Y-58375750D01*
X73883800Y-58375750D01*
X73883800Y-59437500D01*
X75108050Y-59437500D01*
X75266800Y-59278750D01*
X75266800Y-58725691D01*
X75170127Y-58492302D01*
X74991499Y-58313673D01*
X74758110Y-58217000D01*
X74042550Y-58217000D01*
X73883800Y-58375750D01*
X73629800Y-58375750D01*
X73471050Y-58217000D01*
X72755490Y-58217000D01*
X72522101Y-58313673D01*
X72343473Y-58492302D01*
X72246800Y-58725691D01*
X71266800Y-58725691D01*
X71170127Y-58492302D01*
X70991499Y-58313673D01*
X70758110Y-58217000D01*
X70042550Y-58217000D01*
X69883800Y-58375750D01*
X69629800Y-58375750D01*
X69471050Y-58217000D01*
X68755490Y-58217000D01*
X68522101Y-58313673D01*
X68343473Y-58492302D01*
X68246800Y-58725691D01*
X63603679Y-58725691D01*
X63758892Y-58432281D01*
X63762762Y-58394609D01*
X63739675Y-58359328D01*
X63804300Y-58203309D01*
X63804300Y-58030398D01*
X64145507Y-58030398D01*
X64210422Y-58268753D01*
X64720446Y-58449312D01*
X65260744Y-58420949D01*
X65628178Y-58268753D01*
X65693093Y-58030398D01*
X64919300Y-57256605D01*
X64145507Y-58030398D01*
X63804300Y-58030398D01*
X63804300Y-57806781D01*
X63965902Y-57850793D01*
X64739695Y-57077000D01*
X64725553Y-57062858D01*
X64905158Y-56883253D01*
X64919300Y-56897395D01*
X64933443Y-56883253D01*
X65113048Y-57062858D01*
X65098905Y-57077000D01*
X65872698Y-57850793D01*
X66111053Y-57785878D01*
X66291612Y-57275854D01*
X66264637Y-56762000D01*
X68234360Y-56762000D01*
X68234360Y-57052000D01*
X68302674Y-57395435D01*
X68497214Y-57686586D01*
X68788365Y-57881126D01*
X68918561Y-57907024D01*
X68923991Y-57910652D01*
X69269300Y-57979337D01*
X69419605Y-57949440D01*
X70381800Y-57949440D01*
X70725235Y-57881126D01*
X71016386Y-57686586D01*
X71158097Y-57474500D01*
X72355503Y-57474500D01*
X72497214Y-57686586D01*
X72788365Y-57881126D01*
X73131800Y-57949440D01*
X74381800Y-57949440D01*
X74725235Y-57881126D01*
X75016386Y-57686586D01*
X75055808Y-57627586D01*
X77154137Y-59725915D01*
X77106874Y-59796649D01*
X77038560Y-60140084D01*
X77106874Y-60483519D01*
X77301414Y-60774670D01*
X77804483Y-61277739D01*
X77032653Y-62049569D01*
X76670520Y-62199569D01*
X76379369Y-62490720D01*
X76221800Y-62871126D01*
X76221800Y-63162820D01*
X75917422Y-63162820D01*
X74791800Y-62037199D01*
X74791800Y-61871126D01*
X74634231Y-61490720D01*
X74343080Y-61199569D01*
X73962674Y-61042000D01*
X73550926Y-61042000D01*
X73170520Y-61199569D01*
X72879369Y-61490720D01*
X72721800Y-61871126D01*
X72721800Y-62282874D01*
X72879369Y-62663280D01*
X73170520Y-62954431D01*
X73550926Y-63112000D01*
X73716999Y-63112000D01*
X74486998Y-63882000D01*
X63694230Y-63882000D01*
X64296244Y-63632638D01*
X64812438Y-63116444D01*
X65091800Y-62442004D01*
X65091800Y-61711996D01*
X64812438Y-61037556D01*
X64296244Y-60521362D01*
X63621804Y-60242000D01*
X62891796Y-60242000D01*
X62217356Y-60521362D01*
X61701162Y-61037556D01*
X61451800Y-61639570D01*
X61451800Y-59850250D01*
X68246800Y-59850250D01*
X68246800Y-60403309D01*
X68343473Y-60636698D01*
X68522101Y-60815327D01*
X68755490Y-60912000D01*
X69471050Y-60912000D01*
X69629800Y-60753250D01*
X69629800Y-59691500D01*
X69883800Y-59691500D01*
X69883800Y-60753250D01*
X70042550Y-60912000D01*
X70758110Y-60912000D01*
X70991499Y-60815327D01*
X71170127Y-60636698D01*
X71266800Y-60403309D01*
X71266800Y-59850250D01*
X72246800Y-59850250D01*
X72246800Y-60403309D01*
X72343473Y-60636698D01*
X72522101Y-60815327D01*
X72755490Y-60912000D01*
X73471050Y-60912000D01*
X73629800Y-60753250D01*
X73629800Y-59691500D01*
X73883800Y-59691500D01*
X73883800Y-60753250D01*
X74042550Y-60912000D01*
X74758110Y-60912000D01*
X74991499Y-60815327D01*
X75170127Y-60636698D01*
X75266800Y-60403309D01*
X75266800Y-59850250D01*
X75108050Y-59691500D01*
X73883800Y-59691500D01*
X73629800Y-59691500D01*
X72405550Y-59691500D01*
X72246800Y-59850250D01*
X71266800Y-59850250D01*
X71108050Y-59691500D01*
X69883800Y-59691500D01*
X69629800Y-59691500D01*
X68405550Y-59691500D01*
X68246800Y-59850250D01*
X61451800Y-59850250D01*
X61451800Y-59222512D01*
X61742300Y-59312000D01*
X62092300Y-59312000D01*
X62092300Y-55704000D01*
X62072300Y-55704000D01*
X62072300Y-55450000D01*
X62092300Y-55450000D01*
X62092300Y-53704000D01*
X62072300Y-53704000D01*
X62072300Y-53450000D01*
X62092300Y-53450000D01*
X62092300Y-49842000D01*
X61742300Y-49842000D01*
X61451800Y-49931488D01*
X61451800Y-47514430D01*
X61701162Y-48116444D01*
X62217356Y-48632638D01*
X62891796Y-48912000D01*
X63621804Y-48912000D01*
X64296244Y-48632638D01*
X64812438Y-48116444D01*
X64919060Y-47859034D01*
X77839304Y-47859034D01*
X77839304Y-48083540D01*
X78704979Y-48949216D01*
X79455750Y-48198445D01*
X79455750Y-47973939D01*
X79128401Y-47646590D01*
X78949772Y-47467962D01*
X78716383Y-47371289D01*
X78463764Y-47371289D01*
X78230375Y-47467962D01*
X77839304Y-47859034D01*
X64919060Y-47859034D01*
X65091800Y-47442004D01*
X65091800Y-46711996D01*
X64812438Y-46037556D01*
X64296244Y-45521362D01*
X63694230Y-45272000D01*
X95270190Y-45272000D01*
X93860190Y-45742000D01*
X93860190Y-45742000D01*
G37*
X93860190Y-45742000D02*
X93755490Y-45742000D01*
X93522101Y-45838673D01*
X93498066Y-45862708D01*
X93216639Y-45956517D01*
X93166997Y-45987197D01*
X93139467Y-46028399D01*
X93129800Y-46077000D01*
X93129800Y-48611389D01*
X93097066Y-48604878D01*
X93022219Y-48619766D01*
X91285906Y-48619766D01*
X90277679Y-48451728D01*
X90208199Y-48459667D01*
X90166997Y-48487197D01*
X90042660Y-48611534D01*
X90011578Y-48617716D01*
X90033013Y-48585636D01*
X90084361Y-48327491D01*
X90084361Y-48327487D01*
X90101698Y-48240327D01*
X90084361Y-48153167D01*
X90084361Y-47848632D01*
X90101698Y-47761472D01*
X90084361Y-47674311D01*
X90084361Y-47674307D01*
X90033013Y-47416162D01*
X89908713Y-47230135D01*
X89886785Y-47197317D01*
X89886784Y-47197316D01*
X89837410Y-47123423D01*
X89763518Y-47074050D01*
X88668585Y-45979117D01*
X88619209Y-45905221D01*
X88326470Y-45709618D01*
X88068325Y-45658270D01*
X88068320Y-45658270D01*
X87981160Y-45640933D01*
X87893999Y-45658270D01*
X87377691Y-45658270D01*
X87290530Y-45640933D01*
X87203369Y-45658270D01*
X87203365Y-45658270D01*
X86945220Y-45709618D01*
X86726375Y-45855846D01*
X86726374Y-45855847D01*
X86652481Y-45905221D01*
X86603107Y-45979114D01*
X85719933Y-46862289D01*
X85646040Y-46911663D01*
X85608710Y-46967530D01*
X85176651Y-46535471D01*
X84966607Y-46395123D01*
X84718842Y-46345840D01*
X84471077Y-46395123D01*
X84261033Y-46535471D01*
X83872125Y-46924379D01*
X83801317Y-47030351D01*
X83695348Y-47101157D01*
X83306440Y-47490065D01*
X83235633Y-47596035D01*
X83129663Y-47666842D01*
X82740755Y-48055750D01*
X82669949Y-48161719D01*
X82563977Y-48232527D01*
X82258050Y-48538454D01*
X82258050Y-47789456D01*
X82272938Y-47714608D01*
X82268208Y-47690827D01*
X82406726Y-47483519D01*
X82475040Y-47140084D01*
X82406726Y-46796649D01*
X82212186Y-46505498D01*
X81328302Y-45621614D01*
X81037151Y-45427074D01*
X80693716Y-45358760D01*
X80350281Y-45427074D01*
X80059130Y-45621614D01*
X79405056Y-46275688D01*
X79210516Y-46566839D01*
X79142202Y-46910274D01*
X79210516Y-47253709D01*
X79405056Y-47544860D01*
X80288940Y-48428744D01*
X80580091Y-48623284D01*
X80738050Y-48654704D01*
X80738051Y-49743398D01*
X80723162Y-49818250D01*
X80734461Y-49875055D01*
X80394247Y-49534841D01*
X80462511Y-49370036D01*
X80462511Y-49117417D01*
X80365838Y-48884028D01*
X80187210Y-48705399D01*
X79859861Y-48378050D01*
X79635355Y-48378050D01*
X78884584Y-49128821D01*
X78898727Y-49142964D01*
X78719122Y-49322569D01*
X78704979Y-49308426D01*
X78690837Y-49322569D01*
X78511232Y-49142964D01*
X78525374Y-49128821D01*
X77659698Y-48263146D01*
X77435192Y-48263146D01*
X77044120Y-48654217D01*
X76947447Y-48887606D01*
X76947447Y-49140225D01*
X77044120Y-49373614D01*
X77120506Y-49450000D01*
X74883800Y-49450000D01*
X74883800Y-48077000D01*
X74874133Y-48028399D01*
X74846603Y-47987197D01*
X74805401Y-47959667D01*
X74756800Y-47950000D01*
X68756800Y-47950000D01*
X68708199Y-47959667D01*
X68666997Y-47987197D01*
X68639467Y-48028399D01*
X68629800Y-48077000D01*
X68629800Y-50716698D01*
X66196501Y-53149998D01*
X66097552Y-53149998D01*
X66229300Y-53018250D01*
X66229300Y-52950691D01*
X66134085Y-52720821D01*
X66291612Y-52275854D01*
X66263249Y-51735556D01*
X66111053Y-51368122D01*
X65872698Y-51303207D01*
X65098905Y-52077000D01*
X65113048Y-52091143D01*
X64933443Y-52270748D01*
X64919300Y-52256605D01*
X64905158Y-52270748D01*
X64725553Y-52091143D01*
X64739695Y-52077000D01*
X63965902Y-51303207D01*
X63804300Y-51347219D01*
X63804300Y-51123602D01*
X64145507Y-51123602D01*
X64919300Y-51897395D01*
X65693093Y-51123602D01*
X65628178Y-50885247D01*
X65118154Y-50704688D01*
X64577856Y-50733051D01*
X64210422Y-50885247D01*
X64145507Y-51123602D01*
X63804300Y-51123602D01*
X63804300Y-50950691D01*
X63739675Y-50794672D01*
X63762762Y-50759391D01*
X63758892Y-50721719D01*
X63532380Y-50293526D01*
X63159247Y-49984610D01*
X62696300Y-49842000D01*
X62346300Y-49842000D01*
X62346300Y-53450000D01*
X62366300Y-53450000D01*
X62366300Y-53704000D01*
X62346300Y-53704000D01*
X62346300Y-55450000D01*
X62366300Y-55450000D01*
X62366300Y-55704000D01*
X62346300Y-55704000D01*
X62346300Y-59312000D01*
X62696300Y-59312000D01*
X63159247Y-59169390D01*
X63532380Y-58860474D01*
X63603679Y-58725691D01*
X68246800Y-58725691D01*
X68246800Y-59278750D01*
X68405550Y-59437500D01*
X69629800Y-59437500D01*
X69629800Y-58375750D01*
X69883800Y-58375750D01*
X69883800Y-59437500D01*
X71108050Y-59437500D01*
X71266800Y-59278750D01*
X71266800Y-58725691D01*
X72246800Y-58725691D01*
X72246800Y-59278750D01*
X72405550Y-59437500D01*
X73629800Y-59437500D01*
X73629800Y-58375750D01*
X73883800Y-58375750D01*
X73883800Y-59437500D01*
X75108050Y-59437500D01*
X75266800Y-59278750D01*
X75266800Y-58725691D01*
X75170127Y-58492302D01*
X74991499Y-58313673D01*
X74758110Y-58217000D01*
X74042550Y-58217000D01*
X73883800Y-58375750D01*
X73629800Y-58375750D01*
X73471050Y-58217000D01*
X72755490Y-58217000D01*
X72522101Y-58313673D01*
X72343473Y-58492302D01*
X72246800Y-58725691D01*
X71266800Y-58725691D01*
X71170127Y-58492302D01*
X70991499Y-58313673D01*
X70758110Y-58217000D01*
X70042550Y-58217000D01*
X69883800Y-58375750D01*
X69629800Y-58375750D01*
X69471050Y-58217000D01*
X68755490Y-58217000D01*
X68522101Y-58313673D01*
X68343473Y-58492302D01*
X68246800Y-58725691D01*
X63603679Y-58725691D01*
X63758892Y-58432281D01*
X63762762Y-58394609D01*
X63739675Y-58359328D01*
X63804300Y-58203309D01*
X63804300Y-58030398D01*
X64145507Y-58030398D01*
X64210422Y-58268753D01*
X64720446Y-58449312D01*
X65260744Y-58420949D01*
X65628178Y-58268753D01*
X65693093Y-58030398D01*
X64919300Y-57256605D01*
X64145507Y-58030398D01*
X63804300Y-58030398D01*
X63804300Y-57806781D01*
X63965902Y-57850793D01*
X64739695Y-57077000D01*
X64725553Y-57062858D01*
X64905158Y-56883253D01*
X64919300Y-56897395D01*
X64933443Y-56883253D01*
X65113048Y-57062858D01*
X65098905Y-57077000D01*
X65872698Y-57850793D01*
X66111053Y-57785878D01*
X66291612Y-57275854D01*
X66264637Y-56762000D01*
X68234360Y-56762000D01*
X68234360Y-57052000D01*
X68302674Y-57395435D01*
X68497214Y-57686586D01*
X68788365Y-57881126D01*
X68918561Y-57907024D01*
X68923991Y-57910652D01*
X69269300Y-57979337D01*
X69419605Y-57949440D01*
X70381800Y-57949440D01*
X70725235Y-57881126D01*
X71016386Y-57686586D01*
X71158097Y-57474500D01*
X72355503Y-57474500D01*
X72497214Y-57686586D01*
X72788365Y-57881126D01*
X73131800Y-57949440D01*
X74381800Y-57949440D01*
X74725235Y-57881126D01*
X75016386Y-57686586D01*
X75055808Y-57627586D01*
X77154137Y-59725915D01*
X77106874Y-59796649D01*
X77038560Y-60140084D01*
X77106874Y-60483519D01*
X77301414Y-60774670D01*
X77804483Y-61277739D01*
X77032653Y-62049569D01*
X76670520Y-62199569D01*
X76379369Y-62490720D01*
X76221800Y-62871126D01*
X76221800Y-63162820D01*
X75917422Y-63162820D01*
X74791800Y-62037199D01*
X74791800Y-61871126D01*
X74634231Y-61490720D01*
X74343080Y-61199569D01*
X73962674Y-61042000D01*
X73550926Y-61042000D01*
X73170520Y-61199569D01*
X72879369Y-61490720D01*
X72721800Y-61871126D01*
X72721800Y-62282874D01*
X72879369Y-62663280D01*
X73170520Y-62954431D01*
X73550926Y-63112000D01*
X73716999Y-63112000D01*
X74486998Y-63882000D01*
X63694230Y-63882000D01*
X64296244Y-63632638D01*
X64812438Y-63116444D01*
X65091800Y-62442004D01*
X65091800Y-61711996D01*
X64812438Y-61037556D01*
X64296244Y-60521362D01*
X63621804Y-60242000D01*
X62891796Y-60242000D01*
X62217356Y-60521362D01*
X61701162Y-61037556D01*
X61451800Y-61639570D01*
X61451800Y-59850250D01*
X68246800Y-59850250D01*
X68246800Y-60403309D01*
X68343473Y-60636698D01*
X68522101Y-60815327D01*
X68755490Y-60912000D01*
X69471050Y-60912000D01*
X69629800Y-60753250D01*
X69629800Y-59691500D01*
X69883800Y-59691500D01*
X69883800Y-60753250D01*
X70042550Y-60912000D01*
X70758110Y-60912000D01*
X70991499Y-60815327D01*
X71170127Y-60636698D01*
X71266800Y-60403309D01*
X71266800Y-59850250D01*
X72246800Y-59850250D01*
X72246800Y-60403309D01*
X72343473Y-60636698D01*
X72522101Y-60815327D01*
X72755490Y-60912000D01*
X73471050Y-60912000D01*
X73629800Y-60753250D01*
X73629800Y-59691500D01*
X73883800Y-59691500D01*
X73883800Y-60753250D01*
X74042550Y-60912000D01*
X74758110Y-60912000D01*
X74991499Y-60815327D01*
X75170127Y-60636698D01*
X75266800Y-60403309D01*
X75266800Y-59850250D01*
X75108050Y-59691500D01*
X73883800Y-59691500D01*
X73629800Y-59691500D01*
X72405550Y-59691500D01*
X72246800Y-59850250D01*
X71266800Y-59850250D01*
X71108050Y-59691500D01*
X69883800Y-59691500D01*
X69629800Y-59691500D01*
X68405550Y-59691500D01*
X68246800Y-59850250D01*
X61451800Y-59850250D01*
X61451800Y-59222512D01*
X61742300Y-59312000D01*
X62092300Y-59312000D01*
X62092300Y-55704000D01*
X62072300Y-55704000D01*
X62072300Y-55450000D01*
X62092300Y-55450000D01*
X62092300Y-53704000D01*
X62072300Y-53704000D01*
X62072300Y-53450000D01*
X62092300Y-53450000D01*
X62092300Y-49842000D01*
X61742300Y-49842000D01*
X61451800Y-49931488D01*
X61451800Y-47514430D01*
X61701162Y-48116444D01*
X62217356Y-48632638D01*
X62891796Y-48912000D01*
X63621804Y-48912000D01*
X64296244Y-48632638D01*
X64812438Y-48116444D01*
X64919060Y-47859034D01*
X77839304Y-47859034D01*
X77839304Y-48083540D01*
X78704979Y-48949216D01*
X79455750Y-48198445D01*
X79455750Y-47973939D01*
X79128401Y-47646590D01*
X78949772Y-47467962D01*
X78716383Y-47371289D01*
X78463764Y-47371289D01*
X78230375Y-47467962D01*
X77839304Y-47859034D01*
X64919060Y-47859034D01*
X65091800Y-47442004D01*
X65091800Y-46711996D01*
X64812438Y-46037556D01*
X64296244Y-45521362D01*
X63694230Y-45272000D01*
X95270190Y-45272000D01*
X93860190Y-45742000D01*
G36*
X96132194Y-58986473D02*
X96174594Y-59049929D01*
X96425986Y-59217904D01*
X96647671Y-59262000D01*
X96647675Y-59262000D01*
X96722522Y-59276888D01*
X96757674Y-59269896D01*
X96758643Y-59274765D01*
X96898991Y-59484809D01*
X96921800Y-59500050D01*
X96921801Y-61653950D01*
X96898991Y-61669191D01*
X96758643Y-61879235D01*
X96709360Y-62127000D01*
X96709360Y-62712810D01*
X93219128Y-62712810D01*
X93303084Y-62587161D01*
X93371398Y-62243726D01*
X93303084Y-61900291D01*
X93108544Y-61609140D01*
X92454959Y-60955555D01*
X93057850Y-60955555D01*
X93057850Y-61180061D01*
X93385199Y-61507410D01*
X93563828Y-61686038D01*
X93797217Y-61782711D01*
X94049836Y-61782711D01*
X94283225Y-61686038D01*
X94674296Y-61294966D01*
X94674296Y-61070460D01*
X93808621Y-60204784D01*
X93057850Y-60955555D01*
X92454959Y-60955555D01*
X92224660Y-60725256D01*
X91933509Y-60530716D01*
X91590074Y-60462402D01*
X91246639Y-60530716D01*
X90955488Y-60725256D01*
X90311923Y-61368821D01*
X89502274Y-61368821D01*
X89772845Y-61098250D01*
X89843651Y-60992281D01*
X89949623Y-60921473D01*
X90338531Y-60532565D01*
X90409339Y-60426593D01*
X90515308Y-60355787D01*
X90904216Y-59966879D01*
X90975022Y-59860910D01*
X91080994Y-59790102D01*
X91087132Y-59783964D01*
X92051089Y-59783964D01*
X92051089Y-60036583D01*
X92147762Y-60269972D01*
X92326390Y-60448601D01*
X92653739Y-60775950D01*
X92878245Y-60775950D01*
X93629016Y-60025179D01*
X93988226Y-60025179D01*
X94853902Y-60890854D01*
X95078408Y-60890854D01*
X95469480Y-60499783D01*
X95566153Y-60266394D01*
X95566153Y-60013775D01*
X95469480Y-59780386D01*
X95290852Y-59601757D01*
X94963503Y-59274408D01*
X94738997Y-59274408D01*
X93988226Y-60025179D01*
X93629016Y-60025179D01*
X92763340Y-59159504D01*
X92538834Y-59159504D01*
X92147762Y-59550575D01*
X92051089Y-59783964D01*
X91087132Y-59783964D01*
X91469902Y-59401194D01*
X91540710Y-59295222D01*
X91646679Y-59224416D01*
X92035587Y-58835508D01*
X92089118Y-58755392D01*
X92942946Y-58755392D01*
X92942946Y-58979898D01*
X93808621Y-59845574D01*
X94559392Y-59094803D01*
X94559392Y-58870297D01*
X94232043Y-58542948D01*
X94053414Y-58364320D01*
X93820025Y-58267647D01*
X93567406Y-58267647D01*
X93334017Y-58364320D01*
X92942946Y-58755392D01*
X92089118Y-58755392D01*
X92106393Y-58729539D01*
X92212365Y-58658731D01*
X92601273Y-58269823D01*
X92672081Y-58163851D01*
X92778050Y-58093045D01*
X93166958Y-57704137D01*
X93237765Y-57598167D01*
X93343735Y-57527360D01*
X93732643Y-57138452D01*
X93791470Y-57050412D01*
X93811310Y-57042194D01*
X93893023Y-56960481D01*
X93893023Y-56827699D01*
X93906362Y-56760640D01*
X96132194Y-58986473D01*
X96132194Y-58986473D01*
G37*
X96132194Y-58986473D02*
X96174594Y-59049929D01*
X96425986Y-59217904D01*
X96647671Y-59262000D01*
X96647675Y-59262000D01*
X96722522Y-59276888D01*
X96757674Y-59269896D01*
X96758643Y-59274765D01*
X96898991Y-59484809D01*
X96921800Y-59500050D01*
X96921801Y-61653950D01*
X96898991Y-61669191D01*
X96758643Y-61879235D01*
X96709360Y-62127000D01*
X96709360Y-62712810D01*
X93219128Y-62712810D01*
X93303084Y-62587161D01*
X93371398Y-62243726D01*
X93303084Y-61900291D01*
X93108544Y-61609140D01*
X92454959Y-60955555D01*
X93057850Y-60955555D01*
X93057850Y-61180061D01*
X93385199Y-61507410D01*
X93563828Y-61686038D01*
X93797217Y-61782711D01*
X94049836Y-61782711D01*
X94283225Y-61686038D01*
X94674296Y-61294966D01*
X94674296Y-61070460D01*
X93808621Y-60204784D01*
X93057850Y-60955555D01*
X92454959Y-60955555D01*
X92224660Y-60725256D01*
X91933509Y-60530716D01*
X91590074Y-60462402D01*
X91246639Y-60530716D01*
X90955488Y-60725256D01*
X90311923Y-61368821D01*
X89502274Y-61368821D01*
X89772845Y-61098250D01*
X89843651Y-60992281D01*
X89949623Y-60921473D01*
X90338531Y-60532565D01*
X90409339Y-60426593D01*
X90515308Y-60355787D01*
X90904216Y-59966879D01*
X90975022Y-59860910D01*
X91080994Y-59790102D01*
X91087132Y-59783964D01*
X92051089Y-59783964D01*
X92051089Y-60036583D01*
X92147762Y-60269972D01*
X92326390Y-60448601D01*
X92653739Y-60775950D01*
X92878245Y-60775950D01*
X93629016Y-60025179D01*
X93988226Y-60025179D01*
X94853902Y-60890854D01*
X95078408Y-60890854D01*
X95469480Y-60499783D01*
X95566153Y-60266394D01*
X95566153Y-60013775D01*
X95469480Y-59780386D01*
X95290852Y-59601757D01*
X94963503Y-59274408D01*
X94738997Y-59274408D01*
X93988226Y-60025179D01*
X93629016Y-60025179D01*
X92763340Y-59159504D01*
X92538834Y-59159504D01*
X92147762Y-59550575D01*
X92051089Y-59783964D01*
X91087132Y-59783964D01*
X91469902Y-59401194D01*
X91540710Y-59295222D01*
X91646679Y-59224416D01*
X92035587Y-58835508D01*
X92089118Y-58755392D01*
X92942946Y-58755392D01*
X92942946Y-58979898D01*
X93808621Y-59845574D01*
X94559392Y-59094803D01*
X94559392Y-58870297D01*
X94232043Y-58542948D01*
X94053414Y-58364320D01*
X93820025Y-58267647D01*
X93567406Y-58267647D01*
X93334017Y-58364320D01*
X92942946Y-58755392D01*
X92089118Y-58755392D01*
X92106393Y-58729539D01*
X92212365Y-58658731D01*
X92601273Y-58269823D01*
X92672081Y-58163851D01*
X92778050Y-58093045D01*
X93166958Y-57704137D01*
X93237765Y-57598167D01*
X93343735Y-57527360D01*
X93732643Y-57138452D01*
X93791470Y-57050412D01*
X93811310Y-57042194D01*
X93893023Y-56960481D01*
X93893023Y-56827699D01*
X93906362Y-56760640D01*
X96132194Y-58986473D01*
G36*
X90371801Y-54579634D02*
X90371801Y-54927320D01*
X90344696Y-54945431D01*
X90190841Y-55048234D01*
X90190840Y-55048235D01*
X90116947Y-55097609D01*
X90067573Y-55171502D01*
X85408272Y-59830803D01*
X85378572Y-59801103D01*
X85281539Y-59898136D01*
X85266320Y-59821628D01*
X85266320Y-59688851D01*
X85184607Y-59607138D01*
X85164768Y-59598921D01*
X85105941Y-59510880D01*
X84717033Y-59121972D01*
X84611061Y-59051164D01*
X84540255Y-58945195D01*
X84151347Y-58556287D01*
X84045378Y-58485481D01*
X83974570Y-58379509D01*
X83585662Y-57990601D01*
X83479690Y-57919793D01*
X83408884Y-57813824D01*
X83019976Y-57424916D01*
X82914007Y-57354110D01*
X82843199Y-57248138D01*
X82454291Y-56859230D01*
X82348319Y-56788422D01*
X82277513Y-56682453D01*
X81888605Y-56293545D01*
X81782636Y-56222739D01*
X81711828Y-56116767D01*
X81322920Y-55727859D01*
X81234879Y-55669032D01*
X81226662Y-55649193D01*
X81144949Y-55567480D01*
X81012172Y-55567480D01*
X80865111Y-55538228D01*
X80746494Y-55561822D01*
X80770088Y-55443206D01*
X80740837Y-55296150D01*
X80740837Y-55198780D01*
X81136814Y-54802803D01*
X81210707Y-54753429D01*
X81296120Y-54625601D01*
X81406310Y-54460690D01*
X81414543Y-54419298D01*
X81457658Y-54202545D01*
X81457658Y-54202541D01*
X81474995Y-54115380D01*
X81457658Y-54028219D01*
X81457658Y-53555748D01*
X82846603Y-52166803D01*
X82874133Y-52125601D01*
X82883800Y-52077000D01*
X82874133Y-52028399D01*
X82846603Y-51987197D01*
X82748870Y-51889464D01*
X82842005Y-51889464D01*
X82923718Y-51807751D01*
X82931936Y-51787911D01*
X83019976Y-51729084D01*
X83280745Y-51468315D01*
X83313920Y-51474914D01*
X83313924Y-51474914D01*
X83401085Y-51492251D01*
X83488246Y-51474914D01*
X83792779Y-51474914D01*
X83879940Y-51492251D01*
X83967101Y-51474914D01*
X83967105Y-51474914D01*
X84225250Y-51423566D01*
X84517989Y-51227963D01*
X84567365Y-51154067D01*
X85756800Y-49964632D01*
X90371801Y-54579634D01*
X90371801Y-54579634D01*
G37*
X90371801Y-54579634D02*
X90371801Y-54927320D01*
X90344696Y-54945431D01*
X90190841Y-55048234D01*
X90190840Y-55048235D01*
X90116947Y-55097609D01*
X90067573Y-55171502D01*
X85408272Y-59830803D01*
X85378572Y-59801103D01*
X85281539Y-59898136D01*
X85266320Y-59821628D01*
X85266320Y-59688851D01*
X85184607Y-59607138D01*
X85164768Y-59598921D01*
X85105941Y-59510880D01*
X84717033Y-59121972D01*
X84611061Y-59051164D01*
X84540255Y-58945195D01*
X84151347Y-58556287D01*
X84045378Y-58485481D01*
X83974570Y-58379509D01*
X83585662Y-57990601D01*
X83479690Y-57919793D01*
X83408884Y-57813824D01*
X83019976Y-57424916D01*
X82914007Y-57354110D01*
X82843199Y-57248138D01*
X82454291Y-56859230D01*
X82348319Y-56788422D01*
X82277513Y-56682453D01*
X81888605Y-56293545D01*
X81782636Y-56222739D01*
X81711828Y-56116767D01*
X81322920Y-55727859D01*
X81234879Y-55669032D01*
X81226662Y-55649193D01*
X81144949Y-55567480D01*
X81012172Y-55567480D01*
X80865111Y-55538228D01*
X80746494Y-55561822D01*
X80770088Y-55443206D01*
X80740837Y-55296150D01*
X80740837Y-55198780D01*
X81136814Y-54802803D01*
X81210707Y-54753429D01*
X81296120Y-54625601D01*
X81406310Y-54460690D01*
X81414543Y-54419298D01*
X81457658Y-54202545D01*
X81457658Y-54202541D01*
X81474995Y-54115380D01*
X81457658Y-54028219D01*
X81457658Y-53555748D01*
X82846603Y-52166803D01*
X82874133Y-52125601D01*
X82883800Y-52077000D01*
X82874133Y-52028399D01*
X82846603Y-51987197D01*
X82748870Y-51889464D01*
X82842005Y-51889464D01*
X82923718Y-51807751D01*
X82931936Y-51787911D01*
X83019976Y-51729084D01*
X83280745Y-51468315D01*
X83313920Y-51474914D01*
X83313924Y-51474914D01*
X83401085Y-51492251D01*
X83488246Y-51474914D01*
X83792779Y-51474914D01*
X83879940Y-51492251D01*
X83967101Y-51474914D01*
X83967105Y-51474914D01*
X84225250Y-51423566D01*
X84517989Y-51227963D01*
X84567365Y-51154067D01*
X85756800Y-49964632D01*
X90371801Y-54579634D01*
G04 #@! TD*
M02*
