G04 #@! TF.GenerationSoftware,KiCad,Pcbnew,(5.0.1-3-g963ef8bb5)*
G04 #@! TF.CreationDate,2019-09-07T00:25:15+09:00*
G04 #@! TF.ProjectId,switch42,73776974636834322E6B696361645F70,rev?*
G04 #@! TF.SameCoordinates,Original*
G04 #@! TF.FileFunction,Legend,Bot*
G04 #@! TF.FilePolarity,Positive*
%FSLAX46Y46*%
G04 Gerber Fmt 4.6, Leading zero omitted, Abs format (unit mm)*
G04 Created by KiCad (PCBNEW (5.0.1-3-g963ef8bb5)) date 2019 September 07, Saturday 00:25:15*
%MOMM*%
%LPD*%
G01*
G04 APERTURE LIST*
%ADD10C,0.120000*%
%ADD11C,0.100000*%
%ADD12C,0.150000*%
G04 APERTURE END LIST*
D10*
X120256800Y-63577000D02*
G75*
G02X119756800Y-63077000I0J500000D01*
G01*
X119756800Y-46077000D02*
G75*
G02X120256800Y-45577000I500000J0D01*
G01*
X155256800Y-45577000D02*
G75*
G02X155756800Y-46077000I0J-500000D01*
G01*
D11*
X155756800Y-63077000D02*
G75*
G02X155256800Y-63577000I-500000J0D01*
G01*
D12*
X111971085Y-60188904D02*
X112237752Y-59807952D01*
X112428228Y-60188904D02*
X112428228Y-59388904D01*
X112123466Y-59388904D01*
X112047276Y-59427000D01*
X112009180Y-59465095D01*
X111971085Y-59541285D01*
X111971085Y-59655571D01*
X112009180Y-59731761D01*
X112047276Y-59769857D01*
X112123466Y-59807952D01*
X112428228Y-59807952D01*
X111285371Y-60188904D02*
X111285371Y-59769857D01*
X111323466Y-59693666D01*
X111399657Y-59655571D01*
X111552038Y-59655571D01*
X111628228Y-59693666D01*
X111285371Y-60150809D02*
X111361561Y-60188904D01*
X111552038Y-60188904D01*
X111628228Y-60150809D01*
X111666323Y-60074619D01*
X111666323Y-59998428D01*
X111628228Y-59922238D01*
X111552038Y-59884142D01*
X111361561Y-59884142D01*
X111285371Y-59846047D01*
X110904419Y-60188904D02*
X110904419Y-59655571D01*
X110904419Y-59807952D02*
X110866323Y-59731761D01*
X110828228Y-59693666D01*
X110752038Y-59655571D01*
X110675847Y-59655571D01*
X110485371Y-59655571D02*
X110294895Y-60188904D01*
X110104419Y-59655571D02*
X110294895Y-60188904D01*
X110371085Y-60379380D01*
X110409180Y-60417476D01*
X110485371Y-60455571D01*
X109685371Y-60188904D02*
X109761561Y-60150809D01*
X109799657Y-60112714D01*
X109837752Y-60036523D01*
X109837752Y-59807952D01*
X109799657Y-59731761D01*
X109761561Y-59693666D01*
X109685371Y-59655571D01*
X109571085Y-59655571D01*
X109494895Y-59693666D01*
X109456800Y-59731761D01*
X109418704Y-59807952D01*
X109418704Y-60036523D01*
X109456800Y-60112714D01*
X109494895Y-60150809D01*
X109571085Y-60188904D01*
X109685371Y-60188904D01*
X109113942Y-60150809D02*
X109037752Y-60188904D01*
X108885371Y-60188904D01*
X108809180Y-60150809D01*
X108771085Y-60074619D01*
X108771085Y-60036523D01*
X108809180Y-59960333D01*
X108885371Y-59922238D01*
X108999657Y-59922238D01*
X109075847Y-59884142D01*
X109113942Y-59807952D01*
X109113942Y-59769857D01*
X109075847Y-59693666D01*
X108999657Y-59655571D01*
X108885371Y-59655571D01*
X108809180Y-59693666D01*
X108085371Y-59655571D02*
X108085371Y-60188904D01*
X108428228Y-59655571D02*
X108428228Y-60074619D01*
X108390133Y-60150809D01*
X108313942Y-60188904D01*
X108199657Y-60188904D01*
X108123466Y-60150809D01*
X108085371Y-60112714D01*
D10*
X130256800Y-45577000D02*
X130256800Y-63577000D01*
X148256800Y-45577000D02*
X148256800Y-63577000D01*
X119756800Y-63077000D02*
X119756800Y-46077000D01*
X155256800Y-63577000D02*
X120256800Y-63577000D01*
X155756800Y-46077000D02*
X155756800Y-63077000D01*
X120256800Y-45577000D02*
X155256800Y-45577000D01*
D12*
X129064061Y-46604380D02*
X128492633Y-46604380D01*
X128778347Y-47604380D02*
X128778347Y-46604380D01*
X127492633Y-47699619D02*
X127587871Y-47652000D01*
X127683109Y-47556761D01*
X127825966Y-47413904D01*
X127921204Y-47366285D01*
X128016442Y-47366285D01*
X127968823Y-47604380D02*
X128064061Y-47556761D01*
X128159300Y-47461523D01*
X128206919Y-47271047D01*
X128206919Y-46937714D01*
X128159300Y-46747238D01*
X128064061Y-46652000D01*
X127968823Y-46604380D01*
X127778347Y-46604380D01*
X127683109Y-46652000D01*
X127587871Y-46747238D01*
X127540252Y-46937714D01*
X127540252Y-47271047D01*
X127587871Y-47461523D01*
X127683109Y-47556761D01*
X127778347Y-47604380D01*
X127968823Y-47604380D01*
X126778347Y-47080571D02*
X127111680Y-47080571D01*
X127111680Y-47604380D02*
X127111680Y-46604380D01*
X126635490Y-46604380D01*
X126254538Y-47604380D02*
X126254538Y-46604380D01*
X125873585Y-46604380D01*
X125778347Y-46652000D01*
X125730728Y-46699619D01*
X125683109Y-46794857D01*
X125683109Y-46937714D01*
X125730728Y-47032952D01*
X125778347Y-47080571D01*
X125873585Y-47128190D01*
X126254538Y-47128190D01*
X128921204Y-48873428D02*
X128159300Y-48873428D01*
X128921204Y-50523428D02*
X128159300Y-50523428D01*
X129016442Y-51554380D02*
X128397395Y-51554380D01*
X128730728Y-51935333D01*
X128587871Y-51935333D01*
X128492633Y-51982952D01*
X128445014Y-52030571D01*
X128397395Y-52125809D01*
X128397395Y-52363904D01*
X128445014Y-52459142D01*
X128492633Y-52506761D01*
X128587871Y-52554380D01*
X128873585Y-52554380D01*
X128968823Y-52506761D01*
X129016442Y-52459142D01*
X128016442Y-51649619D02*
X127968823Y-51602000D01*
X127873585Y-51554380D01*
X127635490Y-51554380D01*
X127540252Y-51602000D01*
X127492633Y-51649619D01*
X127445014Y-51744857D01*
X127445014Y-51840095D01*
X127492633Y-51982952D01*
X128064061Y-52554380D01*
X127445014Y-52554380D01*
X127064061Y-51649619D02*
X127016442Y-51602000D01*
X126921204Y-51554380D01*
X126683109Y-51554380D01*
X126587871Y-51602000D01*
X126540252Y-51649619D01*
X126492633Y-51744857D01*
X126492633Y-51840095D01*
X126540252Y-51982952D01*
X127111680Y-52554380D01*
X126492633Y-52554380D01*
X125587871Y-51554380D02*
X126064061Y-51554380D01*
X126111680Y-52030571D01*
X126064061Y-51982952D01*
X125968823Y-51935333D01*
X125730728Y-51935333D01*
X125635490Y-51982952D01*
X125587871Y-52030571D01*
X125540252Y-52125809D01*
X125540252Y-52363904D01*
X125587871Y-52459142D01*
X125635490Y-52506761D01*
X125730728Y-52554380D01*
X125968823Y-52554380D01*
X126064061Y-52506761D01*
X126111680Y-52459142D01*
X125111680Y-52173428D02*
X124349776Y-52173428D01*
X123445014Y-51887714D02*
X123445014Y-52554380D01*
X123683109Y-51506761D02*
X123921204Y-52221047D01*
X123302157Y-52221047D01*
X122921204Y-52554380D02*
X122921204Y-51554380D01*
X122540252Y-51554380D01*
X122445014Y-51602000D01*
X122397395Y-51649619D01*
X122349776Y-51744857D01*
X122349776Y-51887714D01*
X122397395Y-51982952D01*
X122445014Y-52030571D01*
X122540252Y-52078190D01*
X122921204Y-52078190D01*
X121921204Y-52554380D02*
X121921204Y-51887714D01*
X121921204Y-51554380D02*
X121968823Y-51602000D01*
X121921204Y-51649619D01*
X121873585Y-51602000D01*
X121921204Y-51554380D01*
X121921204Y-51649619D01*
X121445014Y-51887714D02*
X121445014Y-52554380D01*
X121445014Y-51982952D02*
X121397395Y-51935333D01*
X121302157Y-51887714D01*
X121159300Y-51887714D01*
X121064061Y-51935333D01*
X121016442Y-52030571D01*
X121016442Y-52554380D01*
X128397395Y-54204380D02*
X128968823Y-54204380D01*
X128683109Y-54204380D02*
X128683109Y-53204380D01*
X128778347Y-53347238D01*
X128873585Y-53442476D01*
X128968823Y-53490095D01*
X128016442Y-53299619D02*
X127968823Y-53252000D01*
X127873585Y-53204380D01*
X127635490Y-53204380D01*
X127540252Y-53252000D01*
X127492633Y-53299619D01*
X127445014Y-53394857D01*
X127445014Y-53490095D01*
X127492633Y-53632952D01*
X128064061Y-54204380D01*
X127445014Y-54204380D01*
X126825966Y-53204380D02*
X126730728Y-53204380D01*
X126635490Y-53252000D01*
X126587871Y-53299619D01*
X126540252Y-53394857D01*
X126492633Y-53585333D01*
X126492633Y-53823428D01*
X126540252Y-54013904D01*
X126587871Y-54109142D01*
X126635490Y-54156761D01*
X126730728Y-54204380D01*
X126825966Y-54204380D01*
X126921204Y-54156761D01*
X126968823Y-54109142D01*
X127016442Y-54013904D01*
X127064061Y-53823428D01*
X127064061Y-53585333D01*
X127016442Y-53394857D01*
X126968823Y-53299619D01*
X126921204Y-53252000D01*
X126825966Y-53204380D01*
X125635490Y-53204380D02*
X125825966Y-53204380D01*
X125921204Y-53252000D01*
X125968823Y-53299619D01*
X126064061Y-53442476D01*
X126111680Y-53632952D01*
X126111680Y-54013904D01*
X126064061Y-54109142D01*
X126016442Y-54156761D01*
X125921204Y-54204380D01*
X125730728Y-54204380D01*
X125635490Y-54156761D01*
X125587871Y-54109142D01*
X125540252Y-54013904D01*
X125540252Y-53775809D01*
X125587871Y-53680571D01*
X125635490Y-53632952D01*
X125730728Y-53585333D01*
X125921204Y-53585333D01*
X126016442Y-53632952D01*
X126064061Y-53680571D01*
X126111680Y-53775809D01*
X128397395Y-55854380D02*
X128968823Y-55854380D01*
X128683109Y-55854380D02*
X128683109Y-54854380D01*
X128778347Y-54997238D01*
X128873585Y-55092476D01*
X128968823Y-55140095D01*
X128016442Y-54949619D02*
X127968823Y-54902000D01*
X127873585Y-54854380D01*
X127635490Y-54854380D01*
X127540252Y-54902000D01*
X127492633Y-54949619D01*
X127445014Y-55044857D01*
X127445014Y-55140095D01*
X127492633Y-55282952D01*
X128064061Y-55854380D01*
X127445014Y-55854380D01*
X126825966Y-54854380D02*
X126730728Y-54854380D01*
X126635490Y-54902000D01*
X126587871Y-54949619D01*
X126540252Y-55044857D01*
X126492633Y-55235333D01*
X126492633Y-55473428D01*
X126540252Y-55663904D01*
X126587871Y-55759142D01*
X126635490Y-55806761D01*
X126730728Y-55854380D01*
X126825966Y-55854380D01*
X126921204Y-55806761D01*
X126968823Y-55759142D01*
X127016442Y-55663904D01*
X127064061Y-55473428D01*
X127064061Y-55235333D01*
X127016442Y-55044857D01*
X126968823Y-54949619D01*
X126921204Y-54902000D01*
X126825966Y-54854380D01*
X125635490Y-54854380D02*
X125825966Y-54854380D01*
X125921204Y-54902000D01*
X125968823Y-54949619D01*
X126064061Y-55092476D01*
X126111680Y-55282952D01*
X126111680Y-55663904D01*
X126064061Y-55759142D01*
X126016442Y-55806761D01*
X125921204Y-55854380D01*
X125730728Y-55854380D01*
X125635490Y-55806761D01*
X125587871Y-55759142D01*
X125540252Y-55663904D01*
X125540252Y-55425809D01*
X125587871Y-55330571D01*
X125635490Y-55282952D01*
X125730728Y-55235333D01*
X125921204Y-55235333D01*
X126016442Y-55282952D01*
X126064061Y-55330571D01*
X126111680Y-55425809D01*
X128397395Y-57504380D02*
X128968823Y-57504380D01*
X128683109Y-57504380D02*
X128683109Y-56504380D01*
X128778347Y-56647238D01*
X128873585Y-56742476D01*
X128968823Y-56790095D01*
X128016442Y-56599619D02*
X127968823Y-56552000D01*
X127873585Y-56504380D01*
X127635490Y-56504380D01*
X127540252Y-56552000D01*
X127492633Y-56599619D01*
X127445014Y-56694857D01*
X127445014Y-56790095D01*
X127492633Y-56932952D01*
X128064061Y-57504380D01*
X127445014Y-57504380D01*
X126825966Y-56504380D02*
X126730728Y-56504380D01*
X126635490Y-56552000D01*
X126587871Y-56599619D01*
X126540252Y-56694857D01*
X126492633Y-56885333D01*
X126492633Y-57123428D01*
X126540252Y-57313904D01*
X126587871Y-57409142D01*
X126635490Y-57456761D01*
X126730728Y-57504380D01*
X126825966Y-57504380D01*
X126921204Y-57456761D01*
X126968823Y-57409142D01*
X127016442Y-57313904D01*
X127064061Y-57123428D01*
X127064061Y-56885333D01*
X127016442Y-56694857D01*
X126968823Y-56599619D01*
X126921204Y-56552000D01*
X126825966Y-56504380D01*
X125635490Y-56504380D02*
X125825966Y-56504380D01*
X125921204Y-56552000D01*
X125968823Y-56599619D01*
X126064061Y-56742476D01*
X126111680Y-56932952D01*
X126111680Y-57313904D01*
X126064061Y-57409142D01*
X126016442Y-57456761D01*
X125921204Y-57504380D01*
X125730728Y-57504380D01*
X125635490Y-57456761D01*
X125587871Y-57409142D01*
X125540252Y-57313904D01*
X125540252Y-57075809D01*
X125587871Y-56980571D01*
X125635490Y-56932952D01*
X125730728Y-56885333D01*
X125921204Y-56885333D01*
X126016442Y-56932952D01*
X126064061Y-56980571D01*
X126111680Y-57075809D01*
X128397395Y-59154380D02*
X128968823Y-59154380D01*
X128683109Y-59154380D02*
X128683109Y-58154380D01*
X128778347Y-58297238D01*
X128873585Y-58392476D01*
X128968823Y-58440095D01*
X128016442Y-58249619D02*
X127968823Y-58202000D01*
X127873585Y-58154380D01*
X127635490Y-58154380D01*
X127540252Y-58202000D01*
X127492633Y-58249619D01*
X127445014Y-58344857D01*
X127445014Y-58440095D01*
X127492633Y-58582952D01*
X128064061Y-59154380D01*
X127445014Y-59154380D01*
X126825966Y-58154380D02*
X126730728Y-58154380D01*
X126635490Y-58202000D01*
X126587871Y-58249619D01*
X126540252Y-58344857D01*
X126492633Y-58535333D01*
X126492633Y-58773428D01*
X126540252Y-58963904D01*
X126587871Y-59059142D01*
X126635490Y-59106761D01*
X126730728Y-59154380D01*
X126825966Y-59154380D01*
X126921204Y-59106761D01*
X126968823Y-59059142D01*
X127016442Y-58963904D01*
X127064061Y-58773428D01*
X127064061Y-58535333D01*
X127016442Y-58344857D01*
X126968823Y-58249619D01*
X126921204Y-58202000D01*
X126825966Y-58154380D01*
X125635490Y-58154380D02*
X125825966Y-58154380D01*
X125921204Y-58202000D01*
X125968823Y-58249619D01*
X126064061Y-58392476D01*
X126111680Y-58582952D01*
X126111680Y-58963904D01*
X126064061Y-59059142D01*
X126016442Y-59106761D01*
X125921204Y-59154380D01*
X125730728Y-59154380D01*
X125635490Y-59106761D01*
X125587871Y-59059142D01*
X125540252Y-58963904D01*
X125540252Y-58725809D01*
X125587871Y-58630571D01*
X125635490Y-58582952D01*
X125730728Y-58535333D01*
X125921204Y-58535333D01*
X126016442Y-58582952D01*
X126064061Y-58630571D01*
X126111680Y-58725809D01*
X128397395Y-60804380D02*
X128968823Y-60804380D01*
X128683109Y-60804380D02*
X128683109Y-59804380D01*
X128778347Y-59947238D01*
X128873585Y-60042476D01*
X128968823Y-60090095D01*
X128016442Y-59899619D02*
X127968823Y-59852000D01*
X127873585Y-59804380D01*
X127635490Y-59804380D01*
X127540252Y-59852000D01*
X127492633Y-59899619D01*
X127445014Y-59994857D01*
X127445014Y-60090095D01*
X127492633Y-60232952D01*
X128064061Y-60804380D01*
X127445014Y-60804380D01*
X126825966Y-59804380D02*
X126730728Y-59804380D01*
X126635490Y-59852000D01*
X126587871Y-59899619D01*
X126540252Y-59994857D01*
X126492633Y-60185333D01*
X126492633Y-60423428D01*
X126540252Y-60613904D01*
X126587871Y-60709142D01*
X126635490Y-60756761D01*
X126730728Y-60804380D01*
X126825966Y-60804380D01*
X126921204Y-60756761D01*
X126968823Y-60709142D01*
X127016442Y-60613904D01*
X127064061Y-60423428D01*
X127064061Y-60185333D01*
X127016442Y-59994857D01*
X126968823Y-59899619D01*
X126921204Y-59852000D01*
X126825966Y-59804380D01*
X125635490Y-59804380D02*
X125825966Y-59804380D01*
X125921204Y-59852000D01*
X125968823Y-59899619D01*
X126064061Y-60042476D01*
X126111680Y-60232952D01*
X126111680Y-60613904D01*
X126064061Y-60709142D01*
X126016442Y-60756761D01*
X125921204Y-60804380D01*
X125730728Y-60804380D01*
X125635490Y-60756761D01*
X125587871Y-60709142D01*
X125540252Y-60613904D01*
X125540252Y-60375809D01*
X125587871Y-60280571D01*
X125635490Y-60232952D01*
X125730728Y-60185333D01*
X125921204Y-60185333D01*
X126016442Y-60232952D01*
X126064061Y-60280571D01*
X126111680Y-60375809D01*
X128921204Y-62073428D02*
X128159300Y-62073428D01*
X154421204Y-46604380D02*
X154421204Y-47413904D01*
X154373585Y-47509142D01*
X154325966Y-47556761D01*
X154230728Y-47604380D01*
X154040252Y-47604380D01*
X153945014Y-47556761D01*
X153897395Y-47509142D01*
X153849776Y-47413904D01*
X153849776Y-46604380D01*
X152849776Y-47604380D02*
X153421204Y-47604380D01*
X153135490Y-47604380D02*
X153135490Y-46604380D01*
X153230728Y-46747238D01*
X153325966Y-46842476D01*
X153421204Y-46890095D01*
X154135490Y-48254380D02*
X154135490Y-48968666D01*
X154183109Y-49111523D01*
X154278347Y-49206761D01*
X154421204Y-49254380D01*
X154516442Y-49254380D01*
X153135490Y-49254380D02*
X153706919Y-49254380D01*
X153421204Y-49254380D02*
X153421204Y-48254380D01*
X153516442Y-48397238D01*
X153611680Y-48492476D01*
X153706919Y-48540095D01*
X154468823Y-50856761D02*
X154325966Y-50904380D01*
X154087871Y-50904380D01*
X153992633Y-50856761D01*
X153945014Y-50809142D01*
X153897395Y-50713904D01*
X153897395Y-50618666D01*
X153945014Y-50523428D01*
X153992633Y-50475809D01*
X154087871Y-50428190D01*
X154278347Y-50380571D01*
X154373585Y-50332952D01*
X154421204Y-50285333D01*
X154468823Y-50190095D01*
X154468823Y-50094857D01*
X154421204Y-49999619D01*
X154373585Y-49952000D01*
X154278347Y-49904380D01*
X154040252Y-49904380D01*
X153897395Y-49952000D01*
X153564061Y-49904380D02*
X153325966Y-50904380D01*
X153135490Y-50190095D01*
X152945014Y-50904380D01*
X152706919Y-49904380D01*
X151802157Y-50904380D02*
X152373585Y-50904380D01*
X152087871Y-50904380D02*
X152087871Y-49904380D01*
X152183109Y-50047238D01*
X152278347Y-50142476D01*
X152373585Y-50190095D01*
X154230728Y-52078190D02*
X154230728Y-52554380D01*
X154564061Y-51554380D02*
X154230728Y-52078190D01*
X153897395Y-51554380D01*
X153040252Y-52554380D02*
X153611680Y-52554380D01*
X153325966Y-52554380D02*
X153325966Y-51554380D01*
X153421204Y-51697238D01*
X153516442Y-51792476D01*
X153611680Y-51840095D01*
X153849776Y-54204380D02*
X154183109Y-53728190D01*
X154421204Y-54204380D02*
X154421204Y-53204380D01*
X154040252Y-53204380D01*
X153945014Y-53252000D01*
X153897395Y-53299619D01*
X153849776Y-53394857D01*
X153849776Y-53537714D01*
X153897395Y-53632952D01*
X153945014Y-53680571D01*
X154040252Y-53728190D01*
X154421204Y-53728190D01*
X152897395Y-54204380D02*
X153468823Y-54204380D01*
X153183109Y-54204380D02*
X153183109Y-53204380D01*
X153278347Y-53347238D01*
X153373585Y-53442476D01*
X153468823Y-53490095D01*
X152421204Y-54156761D02*
X152421204Y-54204380D01*
X152468823Y-54299619D01*
X152516442Y-54347238D01*
X150659300Y-54204380D02*
X150992633Y-53728190D01*
X151230728Y-54204380D02*
X151230728Y-53204380D01*
X150849776Y-53204380D01*
X150754538Y-53252000D01*
X150706919Y-53299619D01*
X150659300Y-53394857D01*
X150659300Y-53537714D01*
X150706919Y-53632952D01*
X150754538Y-53680571D01*
X150849776Y-53728190D01*
X151230728Y-53728190D01*
X149802157Y-53537714D02*
X149802157Y-54204380D01*
X150040252Y-53156761D02*
X150278347Y-53871047D01*
X149659300Y-53871047D01*
X153849776Y-55854380D02*
X154183109Y-55378190D01*
X154421204Y-55854380D02*
X154421204Y-54854380D01*
X154040252Y-54854380D01*
X153945014Y-54902000D01*
X153897395Y-54949619D01*
X153849776Y-55044857D01*
X153849776Y-55187714D01*
X153897395Y-55282952D01*
X153945014Y-55330571D01*
X154040252Y-55378190D01*
X154421204Y-55378190D01*
X153468823Y-54949619D02*
X153421204Y-54902000D01*
X153325966Y-54854380D01*
X153087871Y-54854380D01*
X152992633Y-54902000D01*
X152945014Y-54949619D01*
X152897395Y-55044857D01*
X152897395Y-55140095D01*
X152945014Y-55282952D01*
X153516442Y-55854380D01*
X152897395Y-55854380D01*
X152421204Y-55806761D02*
X152421204Y-55854380D01*
X152468823Y-55949619D01*
X152516442Y-55997238D01*
X150659300Y-55854380D02*
X150992633Y-55378190D01*
X151230728Y-55854380D02*
X151230728Y-54854380D01*
X150849776Y-54854380D01*
X150754538Y-54902000D01*
X150706919Y-54949619D01*
X150659300Y-55044857D01*
X150659300Y-55187714D01*
X150706919Y-55282952D01*
X150754538Y-55330571D01*
X150849776Y-55378190D01*
X151230728Y-55378190D01*
X150325966Y-54854380D02*
X149706919Y-54854380D01*
X150040252Y-55235333D01*
X149897395Y-55235333D01*
X149802157Y-55282952D01*
X149754538Y-55330571D01*
X149706919Y-55425809D01*
X149706919Y-55663904D01*
X149754538Y-55759142D01*
X149802157Y-55806761D01*
X149897395Y-55854380D01*
X150183109Y-55854380D01*
X150278347Y-55806761D01*
X150325966Y-55759142D01*
X153849776Y-57409142D02*
X153897395Y-57456761D01*
X154040252Y-57504380D01*
X154135490Y-57504380D01*
X154278347Y-57456761D01*
X154373585Y-57361523D01*
X154421204Y-57266285D01*
X154468823Y-57075809D01*
X154468823Y-56932952D01*
X154421204Y-56742476D01*
X154373585Y-56647238D01*
X154278347Y-56552000D01*
X154135490Y-56504380D01*
X154040252Y-56504380D01*
X153897395Y-56552000D01*
X153849776Y-56599619D01*
X152897395Y-57504380D02*
X153468823Y-57504380D01*
X153183109Y-57504380D02*
X153183109Y-56504380D01*
X153278347Y-56647238D01*
X153373585Y-56742476D01*
X153468823Y-56790095D01*
X153849776Y-59059142D02*
X153897395Y-59106761D01*
X154040252Y-59154380D01*
X154135490Y-59154380D01*
X154278347Y-59106761D01*
X154373585Y-59011523D01*
X154421204Y-58916285D01*
X154468823Y-58725809D01*
X154468823Y-58582952D01*
X154421204Y-58392476D01*
X154373585Y-58297238D01*
X154278347Y-58202000D01*
X154135490Y-58154380D01*
X154040252Y-58154380D01*
X153897395Y-58202000D01*
X153849776Y-58249619D01*
X153468823Y-58249619D02*
X153421204Y-58202000D01*
X153325966Y-58154380D01*
X153087871Y-58154380D01*
X152992633Y-58202000D01*
X152945014Y-58249619D01*
X152897395Y-58344857D01*
X152897395Y-58440095D01*
X152945014Y-58582952D01*
X153516442Y-59154380D01*
X152897395Y-59154380D01*
X152421204Y-59106761D02*
X152421204Y-59154380D01*
X152468823Y-59249619D01*
X152516442Y-59297238D01*
X150659300Y-59059142D02*
X150706919Y-59106761D01*
X150849776Y-59154380D01*
X150945014Y-59154380D01*
X151087871Y-59106761D01*
X151183109Y-59011523D01*
X151230728Y-58916285D01*
X151278347Y-58725809D01*
X151278347Y-58582952D01*
X151230728Y-58392476D01*
X151183109Y-58297238D01*
X151087871Y-58202000D01*
X150945014Y-58154380D01*
X150849776Y-58154380D01*
X150706919Y-58202000D01*
X150659300Y-58249619D01*
X149754538Y-58154380D02*
X150230728Y-58154380D01*
X150278347Y-58630571D01*
X150230728Y-58582952D01*
X150135490Y-58535333D01*
X149897395Y-58535333D01*
X149802157Y-58582952D01*
X149754538Y-58630571D01*
X149706919Y-58725809D01*
X149706919Y-58963904D01*
X149754538Y-59059142D01*
X149802157Y-59106761D01*
X149897395Y-59154380D01*
X150135490Y-59154380D01*
X150230728Y-59106761D01*
X150278347Y-59059142D01*
X153849776Y-60709142D02*
X153897395Y-60756761D01*
X154040252Y-60804380D01*
X154135490Y-60804380D01*
X154278347Y-60756761D01*
X154373585Y-60661523D01*
X154421204Y-60566285D01*
X154468823Y-60375809D01*
X154468823Y-60232952D01*
X154421204Y-60042476D01*
X154373585Y-59947238D01*
X154278347Y-59852000D01*
X154135490Y-59804380D01*
X154040252Y-59804380D01*
X153897395Y-59852000D01*
X153849776Y-59899619D01*
X153516442Y-59804380D02*
X152897395Y-59804380D01*
X153230728Y-60185333D01*
X153087871Y-60185333D01*
X152992633Y-60232952D01*
X152945014Y-60280571D01*
X152897395Y-60375809D01*
X152897395Y-60613904D01*
X152945014Y-60709142D01*
X152992633Y-60756761D01*
X153087871Y-60804380D01*
X153373585Y-60804380D01*
X153468823Y-60756761D01*
X153516442Y-60709142D01*
X152421204Y-60756761D02*
X152421204Y-60804380D01*
X152468823Y-60899619D01*
X152516442Y-60947238D01*
X150659300Y-60709142D02*
X150706919Y-60756761D01*
X150849776Y-60804380D01*
X150945014Y-60804380D01*
X151087871Y-60756761D01*
X151183109Y-60661523D01*
X151230728Y-60566285D01*
X151278347Y-60375809D01*
X151278347Y-60232952D01*
X151230728Y-60042476D01*
X151183109Y-59947238D01*
X151087871Y-59852000D01*
X150945014Y-59804380D01*
X150849776Y-59804380D01*
X150706919Y-59852000D01*
X150659300Y-59899619D01*
X149802157Y-60137714D02*
X149802157Y-60804380D01*
X150040252Y-59756761D02*
X150278347Y-60471047D01*
X149659300Y-60471047D01*
X154421204Y-62073428D02*
X153659300Y-62073428D01*
X146968823Y-47318666D02*
X146492633Y-47318666D01*
X147064061Y-47604380D02*
X146730728Y-46604380D01*
X146397395Y-47604380D01*
X146206919Y-46604380D02*
X145635490Y-46604380D01*
X145921204Y-47604380D02*
X145921204Y-46604380D01*
X145302157Y-47604380D02*
X145302157Y-46937714D01*
X145302157Y-47032952D02*
X145254538Y-46985333D01*
X145159300Y-46937714D01*
X145016442Y-46937714D01*
X144921204Y-46985333D01*
X144873585Y-47080571D01*
X144873585Y-47604380D01*
X144873585Y-47080571D02*
X144825966Y-46985333D01*
X144730728Y-46937714D01*
X144587871Y-46937714D01*
X144492633Y-46985333D01*
X144445014Y-47080571D01*
X144445014Y-47604380D01*
X143587871Y-47556761D02*
X143683109Y-47604380D01*
X143873585Y-47604380D01*
X143968823Y-47556761D01*
X144016442Y-47461523D01*
X144016442Y-47080571D01*
X143968823Y-46985333D01*
X143873585Y-46937714D01*
X143683109Y-46937714D01*
X143587871Y-46985333D01*
X143540252Y-47080571D01*
X143540252Y-47175809D01*
X144016442Y-47271047D01*
X142683109Y-46937714D02*
X142683109Y-47747238D01*
X142730728Y-47842476D01*
X142778347Y-47890095D01*
X142873585Y-47937714D01*
X143016442Y-47937714D01*
X143111680Y-47890095D01*
X142683109Y-47556761D02*
X142778347Y-47604380D01*
X142968823Y-47604380D01*
X143064061Y-47556761D01*
X143111680Y-47509142D01*
X143159300Y-47413904D01*
X143159300Y-47128190D01*
X143111680Y-47032952D01*
X143064061Y-46985333D01*
X142968823Y-46937714D01*
X142778347Y-46937714D01*
X142683109Y-46985333D01*
X141778347Y-47604380D02*
X141778347Y-47080571D01*
X141825966Y-46985333D01*
X141921204Y-46937714D01*
X142111680Y-46937714D01*
X142206919Y-46985333D01*
X141778347Y-47556761D02*
X141873585Y-47604380D01*
X142111680Y-47604380D01*
X142206919Y-47556761D01*
X142254538Y-47461523D01*
X142254538Y-47366285D01*
X142206919Y-47271047D01*
X142111680Y-47223428D01*
X141873585Y-47223428D01*
X141778347Y-47175809D01*
X141397395Y-46604380D02*
X140778347Y-46604380D01*
X141111680Y-46985333D01*
X140968823Y-46985333D01*
X140873585Y-47032952D01*
X140825966Y-47080571D01*
X140778347Y-47175809D01*
X140778347Y-47413904D01*
X140825966Y-47509142D01*
X140873585Y-47556761D01*
X140968823Y-47604380D01*
X141254538Y-47604380D01*
X141349776Y-47556761D01*
X141397395Y-47509142D01*
X140397395Y-46699619D02*
X140349776Y-46652000D01*
X140254538Y-46604380D01*
X140016442Y-46604380D01*
X139921204Y-46652000D01*
X139873585Y-46699619D01*
X139825966Y-46794857D01*
X139825966Y-46890095D01*
X139873585Y-47032952D01*
X140445014Y-47604380D01*
X139825966Y-47604380D01*
X138968823Y-46937714D02*
X138968823Y-47604380D01*
X139397395Y-46937714D02*
X139397395Y-47461523D01*
X139349776Y-47556761D01*
X139254538Y-47604380D01*
X139111680Y-47604380D01*
X139016442Y-47556761D01*
X138968823Y-47509142D01*
X138064061Y-46937714D02*
X138064061Y-47604380D01*
X138302157Y-46556761D02*
X138540252Y-47271047D01*
X137921204Y-47271047D01*
X146921204Y-49254380D02*
X146921204Y-48254380D01*
X146587871Y-48968666D01*
X146254538Y-48254380D01*
X146254538Y-49254380D01*
X145635490Y-49254380D02*
X145730728Y-49206761D01*
X145778347Y-49159142D01*
X145825966Y-49063904D01*
X145825966Y-48778190D01*
X145778347Y-48682952D01*
X145730728Y-48635333D01*
X145635490Y-48587714D01*
X145492633Y-48587714D01*
X145397395Y-48635333D01*
X145349776Y-48682952D01*
X145302157Y-48778190D01*
X145302157Y-49063904D01*
X145349776Y-49159142D01*
X145397395Y-49206761D01*
X145492633Y-49254380D01*
X145635490Y-49254380D01*
X144730728Y-49254380D02*
X144825966Y-49206761D01*
X144873585Y-49111523D01*
X144873585Y-48254380D01*
X143968823Y-49206761D02*
X144064061Y-49254380D01*
X144254538Y-49254380D01*
X144349776Y-49206761D01*
X144397395Y-49111523D01*
X144397395Y-48730571D01*
X144349776Y-48635333D01*
X144254538Y-48587714D01*
X144064061Y-48587714D01*
X143968823Y-48635333D01*
X143921204Y-48730571D01*
X143921204Y-48825809D01*
X144397395Y-48921047D01*
X143587871Y-49254380D02*
X143064061Y-48587714D01*
X143587871Y-48587714D02*
X143064061Y-49254380D01*
X141397395Y-49254380D02*
X141968823Y-49254380D01*
X141683109Y-49254380D02*
X141683109Y-48254380D01*
X141778347Y-48397238D01*
X141873585Y-48492476D01*
X141968823Y-48540095D01*
X140778347Y-48254380D02*
X140683109Y-48254380D01*
X140587871Y-48302000D01*
X140540252Y-48349619D01*
X140492633Y-48444857D01*
X140445014Y-48635333D01*
X140445014Y-48873428D01*
X140492633Y-49063904D01*
X140540252Y-49159142D01*
X140587871Y-49206761D01*
X140683109Y-49254380D01*
X140778347Y-49254380D01*
X140873585Y-49206761D01*
X140921204Y-49159142D01*
X140968823Y-49063904D01*
X141016442Y-48873428D01*
X141016442Y-48635333D01*
X140968823Y-48444857D01*
X140921204Y-48349619D01*
X140873585Y-48302000D01*
X140778347Y-48254380D01*
X139540252Y-48254380D02*
X140016442Y-48254380D01*
X140064061Y-48730571D01*
X140016442Y-48682952D01*
X139921204Y-48635333D01*
X139683109Y-48635333D01*
X139587871Y-48682952D01*
X139540252Y-48730571D01*
X139492633Y-48825809D01*
X139492633Y-49063904D01*
X139540252Y-49159142D01*
X139587871Y-49206761D01*
X139683109Y-49254380D01*
X139921204Y-49254380D01*
X140016442Y-49206761D01*
X140064061Y-49159142D01*
X138873585Y-48254380D02*
X138778347Y-48254380D01*
X138683109Y-48302000D01*
X138635490Y-48349619D01*
X138587871Y-48444857D01*
X138540252Y-48635333D01*
X138540252Y-48873428D01*
X138587871Y-49063904D01*
X138635490Y-49159142D01*
X138683109Y-49206761D01*
X138778347Y-49254380D01*
X138873585Y-49254380D01*
X138968823Y-49206761D01*
X139016442Y-49159142D01*
X139064061Y-49063904D01*
X139111680Y-48873428D01*
X139111680Y-48635333D01*
X139064061Y-48444857D01*
X139016442Y-48349619D01*
X138968823Y-48302000D01*
X138873585Y-48254380D01*
X137587871Y-49254380D02*
X138159300Y-49254380D01*
X137873585Y-49254380D02*
X137873585Y-48254380D01*
X137968823Y-48397238D01*
X138064061Y-48492476D01*
X138159300Y-48540095D01*
X137254538Y-48254380D02*
X136587871Y-48254380D01*
X137016442Y-49254380D01*
X136206919Y-48873428D02*
X135445014Y-48873428D01*
X134778347Y-48254380D02*
X134683109Y-48254380D01*
X134587871Y-48302000D01*
X134540252Y-48349619D01*
X134492633Y-48444857D01*
X134445014Y-48635333D01*
X134445014Y-48873428D01*
X134492633Y-49063904D01*
X134540252Y-49159142D01*
X134587871Y-49206761D01*
X134683109Y-49254380D01*
X134778347Y-49254380D01*
X134873585Y-49206761D01*
X134921204Y-49159142D01*
X134968823Y-49063904D01*
X135016442Y-48873428D01*
X135016442Y-48635333D01*
X134968823Y-48444857D01*
X134921204Y-48349619D01*
X134873585Y-48302000D01*
X134778347Y-48254380D01*
X133825966Y-48254380D02*
X133730728Y-48254380D01*
X133635490Y-48302000D01*
X133587871Y-48349619D01*
X133540252Y-48444857D01*
X133492633Y-48635333D01*
X133492633Y-48873428D01*
X133540252Y-49063904D01*
X133587871Y-49159142D01*
X133635490Y-49206761D01*
X133730728Y-49254380D01*
X133825966Y-49254380D01*
X133921204Y-49206761D01*
X133968823Y-49159142D01*
X134016442Y-49063904D01*
X134064061Y-48873428D01*
X134064061Y-48635333D01*
X134016442Y-48444857D01*
X133968823Y-48349619D01*
X133921204Y-48302000D01*
X133825966Y-48254380D01*
X132873585Y-48254380D02*
X132778347Y-48254380D01*
X132683109Y-48302000D01*
X132635490Y-48349619D01*
X132587871Y-48444857D01*
X132540252Y-48635333D01*
X132540252Y-48873428D01*
X132587871Y-49063904D01*
X132635490Y-49159142D01*
X132683109Y-49206761D01*
X132778347Y-49254380D01*
X132873585Y-49254380D01*
X132968823Y-49206761D01*
X133016442Y-49159142D01*
X133064061Y-49063904D01*
X133111680Y-48873428D01*
X133111680Y-48635333D01*
X133064061Y-48444857D01*
X133016442Y-48349619D01*
X132968823Y-48302000D01*
X132873585Y-48254380D01*
X131587871Y-49254380D02*
X132159300Y-49254380D01*
X131873585Y-49254380D02*
X131873585Y-48254380D01*
X131968823Y-48397238D01*
X132064061Y-48492476D01*
X132159300Y-48540095D01*
X146968823Y-50618666D02*
X146492633Y-50618666D01*
X147064061Y-50904380D02*
X146730728Y-49904380D01*
X146397395Y-50904380D01*
X145587871Y-50904380D02*
X146064061Y-50904380D01*
X146064061Y-49904380D01*
X145254538Y-50904380D02*
X145254538Y-49904380D01*
X144873585Y-49904380D01*
X144778347Y-49952000D01*
X144730728Y-49999619D01*
X144683109Y-50094857D01*
X144683109Y-50237714D01*
X144730728Y-50332952D01*
X144778347Y-50380571D01*
X144873585Y-50428190D01*
X145254538Y-50428190D01*
X144302157Y-50856761D02*
X144159300Y-50904380D01*
X143921204Y-50904380D01*
X143825966Y-50856761D01*
X143778347Y-50809142D01*
X143730728Y-50713904D01*
X143730728Y-50618666D01*
X143778347Y-50523428D01*
X143825966Y-50475809D01*
X143921204Y-50428190D01*
X144111680Y-50380571D01*
X144206919Y-50332952D01*
X144254538Y-50285333D01*
X144302157Y-50190095D01*
X144302157Y-50094857D01*
X144254538Y-49999619D01*
X144206919Y-49952000D01*
X144111680Y-49904380D01*
X143873585Y-49904380D01*
X143730728Y-49952000D01*
X142587871Y-50856761D02*
X142445014Y-50904380D01*
X142206919Y-50904380D01*
X142111680Y-50856761D01*
X142064061Y-50809142D01*
X142016442Y-50713904D01*
X142016442Y-50618666D01*
X142064061Y-50523428D01*
X142111680Y-50475809D01*
X142206919Y-50428190D01*
X142397395Y-50380571D01*
X142492633Y-50332952D01*
X142540252Y-50285333D01*
X142587871Y-50190095D01*
X142587871Y-50094857D01*
X142540252Y-49999619D01*
X142492633Y-49952000D01*
X142397395Y-49904380D01*
X142159300Y-49904380D01*
X142016442Y-49952000D01*
X141587871Y-50904380D02*
X141587871Y-49904380D01*
X141016442Y-50904380D02*
X141445014Y-50332952D01*
X141016442Y-49904380D02*
X141587871Y-50475809D01*
X140016442Y-50904380D02*
X140349776Y-50428190D01*
X140587871Y-50904380D02*
X140587871Y-49904380D01*
X140206919Y-49904380D01*
X140111680Y-49952000D01*
X140064061Y-49999619D01*
X140016442Y-50094857D01*
X140016442Y-50237714D01*
X140064061Y-50332952D01*
X140111680Y-50380571D01*
X140206919Y-50428190D01*
X140587871Y-50428190D01*
X139587871Y-50904380D02*
X139587871Y-49904380D01*
X139206919Y-49904380D01*
X139111680Y-49952000D01*
X139064061Y-49999619D01*
X139016442Y-50094857D01*
X139016442Y-50237714D01*
X139064061Y-50332952D01*
X139111680Y-50380571D01*
X139206919Y-50428190D01*
X139587871Y-50428190D01*
X138635490Y-50618666D02*
X138159300Y-50618666D01*
X138730728Y-50904380D02*
X138397395Y-49904380D01*
X138064061Y-50904380D01*
X137159300Y-50809142D02*
X137206919Y-50856761D01*
X137349776Y-50904380D01*
X137445014Y-50904380D01*
X137587871Y-50856761D01*
X137683109Y-50761523D01*
X137730728Y-50666285D01*
X137778347Y-50475809D01*
X137778347Y-50332952D01*
X137730728Y-50142476D01*
X137683109Y-50047238D01*
X137587871Y-49952000D01*
X137445014Y-49904380D01*
X137349776Y-49904380D01*
X137206919Y-49952000D01*
X137159300Y-49999619D01*
X136730728Y-50380571D02*
X136397395Y-50380571D01*
X136254538Y-50904380D02*
X136730728Y-50904380D01*
X136730728Y-49904380D01*
X136254538Y-49904380D01*
X135635490Y-49904380D02*
X135540252Y-49904380D01*
X135445014Y-49952000D01*
X135397395Y-49999619D01*
X135349776Y-50094857D01*
X135302157Y-50285333D01*
X135302157Y-50523428D01*
X135349776Y-50713904D01*
X135397395Y-50809142D01*
X135445014Y-50856761D01*
X135540252Y-50904380D01*
X135635490Y-50904380D01*
X135730728Y-50856761D01*
X135778347Y-50809142D01*
X135825966Y-50713904D01*
X135873585Y-50523428D01*
X135873585Y-50285333D01*
X135825966Y-50094857D01*
X135778347Y-49999619D01*
X135730728Y-49952000D01*
X135635490Y-49904380D01*
X134349776Y-50904380D02*
X134921204Y-50904380D01*
X134635490Y-50904380D02*
X134635490Y-49904380D01*
X134730728Y-50047238D01*
X134825966Y-50142476D01*
X134921204Y-50190095D01*
X133730728Y-49904380D02*
X133635490Y-49904380D01*
X133540252Y-49952000D01*
X133492633Y-49999619D01*
X133445014Y-50094857D01*
X133397395Y-50285333D01*
X133397395Y-50523428D01*
X133445014Y-50713904D01*
X133492633Y-50809142D01*
X133540252Y-50856761D01*
X133635490Y-50904380D01*
X133730728Y-50904380D01*
X133825966Y-50856761D01*
X133873585Y-50809142D01*
X133921204Y-50713904D01*
X133968823Y-50523428D01*
X133968823Y-50285333D01*
X133921204Y-50094857D01*
X133873585Y-49999619D01*
X133825966Y-49952000D01*
X133730728Y-49904380D01*
X146397395Y-52554380D02*
X146968823Y-52554380D01*
X146683109Y-52554380D02*
X146683109Y-51554380D01*
X146778347Y-51697238D01*
X146873585Y-51792476D01*
X146968823Y-51840095D01*
X145540252Y-51554380D02*
X145730728Y-51554380D01*
X145825966Y-51602000D01*
X145873585Y-51649619D01*
X145968823Y-51792476D01*
X146016442Y-51982952D01*
X146016442Y-52363904D01*
X145968823Y-52459142D01*
X145921204Y-52506761D01*
X145825966Y-52554380D01*
X145635490Y-52554380D01*
X145540252Y-52506761D01*
X145492633Y-52459142D01*
X145445014Y-52363904D01*
X145445014Y-52125809D01*
X145492633Y-52030571D01*
X145540252Y-51982952D01*
X145635490Y-51935333D01*
X145825966Y-51935333D01*
X145921204Y-51982952D01*
X145968823Y-52030571D01*
X146016442Y-52125809D01*
X145016442Y-52554380D02*
X145016442Y-51554380D01*
X144683109Y-52268666D01*
X144349776Y-51554380D01*
X144349776Y-52554380D01*
X143873585Y-52554380D02*
X143873585Y-51554380D01*
X143873585Y-52030571D02*
X143302157Y-52030571D01*
X143302157Y-52554380D02*
X143302157Y-51554380D01*
X142921204Y-51887714D02*
X142397395Y-51887714D01*
X142921204Y-52554380D01*
X142397395Y-52554380D01*
X146397395Y-54204380D02*
X146968823Y-54204380D01*
X146683109Y-54204380D02*
X146683109Y-53204380D01*
X146778347Y-53347238D01*
X146873585Y-53442476D01*
X146968823Y-53490095D01*
X145778347Y-53204380D02*
X145683109Y-53204380D01*
X145587871Y-53252000D01*
X145540252Y-53299619D01*
X145492633Y-53394857D01*
X145445014Y-53585333D01*
X145445014Y-53823428D01*
X145492633Y-54013904D01*
X145540252Y-54109142D01*
X145587871Y-54156761D01*
X145683109Y-54204380D01*
X145778347Y-54204380D01*
X145873585Y-54156761D01*
X145921204Y-54109142D01*
X145968823Y-54013904D01*
X146016442Y-53823428D01*
X146016442Y-53585333D01*
X145968823Y-53394857D01*
X145921204Y-53299619D01*
X145873585Y-53252000D01*
X145778347Y-53204380D01*
X145016442Y-54204380D02*
X145016442Y-53204380D01*
X144445014Y-54204380D02*
X144873585Y-53632952D01*
X144445014Y-53204380D02*
X145016442Y-53775809D01*
X143825966Y-53204380D02*
X143635490Y-53204380D01*
X143540252Y-53252000D01*
X143445014Y-53347238D01*
X143397395Y-53537714D01*
X143397395Y-53871047D01*
X143445014Y-54061523D01*
X143540252Y-54156761D01*
X143635490Y-54204380D01*
X143825966Y-54204380D01*
X143921204Y-54156761D01*
X144016442Y-54061523D01*
X144064061Y-53871047D01*
X144064061Y-53537714D01*
X144016442Y-53347238D01*
X143921204Y-53252000D01*
X143825966Y-53204380D01*
X142968823Y-54204380D02*
X142968823Y-53204380D01*
X142540252Y-54204380D02*
X142540252Y-53680571D01*
X142587871Y-53585333D01*
X142683109Y-53537714D01*
X142825966Y-53537714D01*
X142921204Y-53585333D01*
X142968823Y-53632952D01*
X142064061Y-54204380D02*
X142064061Y-53537714D01*
X142064061Y-53632952D02*
X142016442Y-53585333D01*
X141921204Y-53537714D01*
X141778347Y-53537714D01*
X141683109Y-53585333D01*
X141635490Y-53680571D01*
X141635490Y-54204380D01*
X141635490Y-53680571D02*
X141587871Y-53585333D01*
X141492633Y-53537714D01*
X141349776Y-53537714D01*
X141254538Y-53585333D01*
X141206919Y-53680571D01*
X141206919Y-54204380D01*
X146968823Y-54949619D02*
X146921204Y-54902000D01*
X146825966Y-54854380D01*
X146587871Y-54854380D01*
X146492633Y-54902000D01*
X146445014Y-54949619D01*
X146397395Y-55044857D01*
X146397395Y-55140095D01*
X146445014Y-55282952D01*
X147016442Y-55854380D01*
X146397395Y-55854380D01*
X146016442Y-54949619D02*
X145968823Y-54902000D01*
X145873585Y-54854380D01*
X145635490Y-54854380D01*
X145540252Y-54902000D01*
X145492633Y-54949619D01*
X145445014Y-55044857D01*
X145445014Y-55140095D01*
X145492633Y-55282952D01*
X146064061Y-55854380D01*
X145445014Y-55854380D01*
X144825966Y-54854380D02*
X144635490Y-54854380D01*
X144540252Y-54902000D01*
X144445014Y-54997238D01*
X144397395Y-55187714D01*
X144397395Y-55521047D01*
X144445014Y-55711523D01*
X144540252Y-55806761D01*
X144635490Y-55854380D01*
X144825966Y-55854380D01*
X144921204Y-55806761D01*
X145016442Y-55711523D01*
X145064061Y-55521047D01*
X145064061Y-55187714D01*
X145016442Y-54997238D01*
X144921204Y-54902000D01*
X144825966Y-54854380D01*
X143968823Y-55854380D02*
X143968823Y-54854380D01*
X143540252Y-55854380D02*
X143540252Y-55330571D01*
X143587871Y-55235333D01*
X143683109Y-55187714D01*
X143825966Y-55187714D01*
X143921204Y-55235333D01*
X143968823Y-55282952D01*
X143064061Y-55854380D02*
X143064061Y-55187714D01*
X143064061Y-55282952D02*
X143016442Y-55235333D01*
X142921204Y-55187714D01*
X142778347Y-55187714D01*
X142683109Y-55235333D01*
X142635490Y-55330571D01*
X142635490Y-55854380D01*
X142635490Y-55330571D02*
X142587871Y-55235333D01*
X142492633Y-55187714D01*
X142349776Y-55187714D01*
X142254538Y-55235333D01*
X142206919Y-55330571D01*
X142206919Y-55854380D01*
X146730728Y-56504380D02*
X146635490Y-56504380D01*
X146540252Y-56552000D01*
X146492633Y-56599619D01*
X146445014Y-56694857D01*
X146397395Y-56885333D01*
X146397395Y-57123428D01*
X146445014Y-57313904D01*
X146492633Y-57409142D01*
X146540252Y-57456761D01*
X146635490Y-57504380D01*
X146730728Y-57504380D01*
X146825966Y-57456761D01*
X146873585Y-57409142D01*
X146921204Y-57313904D01*
X146968823Y-57123428D01*
X146968823Y-56885333D01*
X146921204Y-56694857D01*
X146873585Y-56599619D01*
X146825966Y-56552000D01*
X146730728Y-56504380D01*
X145968823Y-57409142D02*
X145921204Y-57456761D01*
X145968823Y-57504380D01*
X146016442Y-57456761D01*
X145968823Y-57409142D01*
X145968823Y-57504380D01*
X144968823Y-57504380D02*
X145540252Y-57504380D01*
X145254538Y-57504380D02*
X145254538Y-56504380D01*
X145349776Y-56647238D01*
X145445014Y-56742476D01*
X145540252Y-56790095D01*
X144111680Y-56837714D02*
X144111680Y-57504380D01*
X144540252Y-56837714D02*
X144540252Y-57361523D01*
X144492633Y-57456761D01*
X144397395Y-57504380D01*
X144254538Y-57504380D01*
X144159300Y-57456761D01*
X144111680Y-57409142D01*
X143302157Y-56980571D02*
X143635490Y-56980571D01*
X143635490Y-57504380D02*
X143635490Y-56504380D01*
X143159300Y-56504380D01*
X146397395Y-59154380D02*
X146968823Y-59154380D01*
X146683109Y-59154380D02*
X146683109Y-58154380D01*
X146778347Y-58297238D01*
X146873585Y-58392476D01*
X146968823Y-58440095D01*
X145778347Y-58154380D02*
X145683109Y-58154380D01*
X145587871Y-58202000D01*
X145540252Y-58249619D01*
X145492633Y-58344857D01*
X145445014Y-58535333D01*
X145445014Y-58773428D01*
X145492633Y-58963904D01*
X145540252Y-59059142D01*
X145587871Y-59106761D01*
X145683109Y-59154380D01*
X145778347Y-59154380D01*
X145873585Y-59106761D01*
X145921204Y-59059142D01*
X145968823Y-58963904D01*
X146016442Y-58773428D01*
X146016442Y-58535333D01*
X145968823Y-58344857D01*
X145921204Y-58249619D01*
X145873585Y-58202000D01*
X145778347Y-58154380D01*
X144587871Y-58487714D02*
X144587871Y-59154380D01*
X145016442Y-58487714D02*
X145016442Y-59011523D01*
X144968823Y-59106761D01*
X144873585Y-59154380D01*
X144730728Y-59154380D01*
X144635490Y-59106761D01*
X144587871Y-59059142D01*
X143778347Y-58630571D02*
X144111680Y-58630571D01*
X144111680Y-59154380D02*
X144111680Y-58154380D01*
X143635490Y-58154380D01*
X146968823Y-59899619D02*
X146921204Y-59852000D01*
X146825966Y-59804380D01*
X146587871Y-59804380D01*
X146492633Y-59852000D01*
X146445014Y-59899619D01*
X146397395Y-59994857D01*
X146397395Y-60090095D01*
X146445014Y-60232952D01*
X147016442Y-60804380D01*
X146397395Y-60804380D01*
X146016442Y-59899619D02*
X145968823Y-59852000D01*
X145873585Y-59804380D01*
X145635490Y-59804380D01*
X145540252Y-59852000D01*
X145492633Y-59899619D01*
X145445014Y-59994857D01*
X145445014Y-60090095D01*
X145492633Y-60232952D01*
X146064061Y-60804380D01*
X145445014Y-60804380D01*
X145016442Y-60137714D02*
X145016442Y-61137714D01*
X145016442Y-60185333D02*
X144921204Y-60137714D01*
X144730728Y-60137714D01*
X144635490Y-60185333D01*
X144587871Y-60232952D01*
X144540252Y-60328190D01*
X144540252Y-60613904D01*
X144587871Y-60709142D01*
X144635490Y-60756761D01*
X144730728Y-60804380D01*
X144921204Y-60804380D01*
X145016442Y-60756761D01*
X143778347Y-60280571D02*
X144111680Y-60280571D01*
X144111680Y-60804380D02*
X144111680Y-59804380D01*
X143635490Y-59804380D01*
X146968823Y-62406761D02*
X146825966Y-62454380D01*
X146587871Y-62454380D01*
X146492633Y-62406761D01*
X146445014Y-62359142D01*
X146397395Y-62263904D01*
X146397395Y-62168666D01*
X146445014Y-62073428D01*
X146492633Y-62025809D01*
X146587871Y-61978190D01*
X146778347Y-61930571D01*
X146873585Y-61882952D01*
X146921204Y-61835333D01*
X146968823Y-61740095D01*
X146968823Y-61644857D01*
X146921204Y-61549619D01*
X146873585Y-61502000D01*
X146778347Y-61454380D01*
X146540252Y-61454380D01*
X146397395Y-61502000D01*
X145968823Y-62454380D02*
X145968823Y-61454380D01*
X145397395Y-62454380D02*
X145825966Y-61882952D01*
X145397395Y-61454380D02*
X145968823Y-62025809D01*
X144540252Y-61454380D02*
X144730728Y-61454380D01*
X144825966Y-61502000D01*
X144873585Y-61549619D01*
X144968823Y-61692476D01*
X145016442Y-61882952D01*
X145016442Y-62263904D01*
X144968823Y-62359142D01*
X144921204Y-62406761D01*
X144825966Y-62454380D01*
X144635490Y-62454380D01*
X144540252Y-62406761D01*
X144492633Y-62359142D01*
X144445014Y-62263904D01*
X144445014Y-62025809D01*
X144492633Y-61930571D01*
X144540252Y-61882952D01*
X144635490Y-61835333D01*
X144825966Y-61835333D01*
X144921204Y-61882952D01*
X144968823Y-61930571D01*
X145016442Y-62025809D01*
X143873585Y-61882952D02*
X143968823Y-61835333D01*
X144016442Y-61787714D01*
X144064061Y-61692476D01*
X144064061Y-61644857D01*
X144016442Y-61549619D01*
X143968823Y-61502000D01*
X143873585Y-61454380D01*
X143683109Y-61454380D01*
X143587871Y-61502000D01*
X143540252Y-61549619D01*
X143492633Y-61644857D01*
X143492633Y-61692476D01*
X143540252Y-61787714D01*
X143587871Y-61835333D01*
X143683109Y-61882952D01*
X143873585Y-61882952D01*
X143968823Y-61930571D01*
X144016442Y-61978190D01*
X144064061Y-62073428D01*
X144064061Y-62263904D01*
X144016442Y-62359142D01*
X143968823Y-62406761D01*
X143873585Y-62454380D01*
X143683109Y-62454380D01*
X143587871Y-62406761D01*
X143540252Y-62359142D01*
X143492633Y-62263904D01*
X143492633Y-62073428D01*
X143540252Y-61978190D01*
X143587871Y-61930571D01*
X143683109Y-61882952D01*
X142540252Y-62454380D02*
X143111680Y-62454380D01*
X142825966Y-62454380D02*
X142825966Y-61454380D01*
X142921204Y-61597238D01*
X143016442Y-61692476D01*
X143111680Y-61740095D01*
X142159300Y-61549619D02*
X142111680Y-61502000D01*
X142016442Y-61454380D01*
X141778347Y-61454380D01*
X141683109Y-61502000D01*
X141635490Y-61549619D01*
X141587871Y-61644857D01*
X141587871Y-61740095D01*
X141635490Y-61882952D01*
X142206919Y-62454380D01*
X141587871Y-62454380D01*
X141159300Y-62454380D02*
X141159300Y-61787714D01*
X141159300Y-61882952D02*
X141111680Y-61835333D01*
X141016442Y-61787714D01*
X140873585Y-61787714D01*
X140778347Y-61835333D01*
X140730728Y-61930571D01*
X140730728Y-62454380D01*
X140730728Y-61930571D02*
X140683109Y-61835333D01*
X140587871Y-61787714D01*
X140445014Y-61787714D01*
X140349776Y-61835333D01*
X140302157Y-61930571D01*
X140302157Y-62454380D01*
X139825966Y-62454380D02*
X139825966Y-61787714D01*
X139825966Y-61454380D02*
X139873585Y-61502000D01*
X139825966Y-61549619D01*
X139778347Y-61502000D01*
X139825966Y-61454380D01*
X139825966Y-61549619D01*
X139349776Y-61787714D02*
X139349776Y-62454380D01*
X139349776Y-61882952D02*
X139302157Y-61835333D01*
X139206919Y-61787714D01*
X139064061Y-61787714D01*
X138968823Y-61835333D01*
X138921204Y-61930571D01*
X138921204Y-62454380D01*
X138445014Y-62454380D02*
X138445014Y-61787714D01*
X138445014Y-61454380D02*
X138492633Y-61502000D01*
X138445014Y-61549619D01*
X138397395Y-61502000D01*
X138445014Y-61454380D01*
X138445014Y-61549619D01*
D10*
G04 #@! TO.C,C1*
X70666800Y-57474936D02*
X70666800Y-58679064D01*
X68846800Y-57474936D02*
X68846800Y-58679064D01*
G04 #@! TO.C,C2*
X72846800Y-57474936D02*
X72846800Y-58679064D01*
X74666800Y-57474936D02*
X74666800Y-58679064D01*
G04 #@! TO.C,C3*
X98154736Y-52167000D02*
X99358864Y-52167000D01*
X98154736Y-53987000D02*
X99358864Y-53987000D01*
G04 #@! TO.C,C4*
X95666800Y-49179064D02*
X95666800Y-47974936D01*
X93846800Y-49179064D02*
X93846800Y-47974936D01*
G04 #@! TO.C,C5*
X79539056Y-47007809D02*
X78687609Y-47859256D01*
X80825991Y-48294744D02*
X79974544Y-49146191D01*
G04 #@! TO.C,J1*
X65219300Y-58477000D02*
X65219300Y-58027000D01*
X63369300Y-58477000D02*
X65219300Y-58477000D01*
X60819300Y-50677000D02*
X61069300Y-50677000D01*
X60819300Y-58477000D02*
X61069300Y-58477000D01*
X63369300Y-50677000D02*
X65219300Y-50677000D01*
X65219300Y-50677000D02*
X65219300Y-51127000D01*
X65769300Y-56277000D02*
X65769300Y-55827000D01*
X65769300Y-56277000D02*
X65319300Y-56277000D01*
G04 #@! TO.C,R1*
X79974544Y-60007809D02*
X80825991Y-60859256D01*
X78687609Y-61294744D02*
X79539056Y-62146191D01*
G04 #@! TO.C,R2*
X72358864Y-50487000D02*
X71154736Y-50487000D01*
X72358864Y-48667000D02*
X71154736Y-48667000D01*
G04 #@! TO.C,R3*
X72358864Y-52167000D02*
X71154736Y-52167000D01*
X72358864Y-53987000D02*
X71154736Y-53987000D01*
G04 #@! TO.C,R4*
X93825991Y-61294744D02*
X92974544Y-62146191D01*
X92539056Y-60007809D02*
X91687609Y-60859256D01*
D12*
G04 #@! TO.C,U1*
X78938245Y-54577000D02*
X79344831Y-54170414D01*
X86256800Y-61895555D02*
X86734097Y-61418258D01*
X93575355Y-54577000D02*
X93098058Y-55054297D01*
X86256800Y-47258445D02*
X85779503Y-47735742D01*
X78938245Y-54577000D02*
X79415542Y-55054297D01*
X86256800Y-47258445D02*
X86734097Y-47735742D01*
X93575355Y-54577000D02*
X93098058Y-54099703D01*
X86256800Y-61895555D02*
X85779503Y-61418258D01*
X79344831Y-54170414D02*
X78443270Y-53268852D01*
D10*
G04 #@! TO.C,Y1*
X101006800Y-51277000D02*
X96506800Y-51277000D01*
X96506800Y-51277000D02*
X96506800Y-45877000D01*
G04 #@! TO.C,SW1*
X97176800Y-62777000D02*
X97056800Y-62777000D01*
X99326800Y-62777000D02*
X98186800Y-62777000D01*
X100456800Y-62777000D02*
X100336800Y-62777000D01*
X100456800Y-58377000D02*
X100456800Y-62777000D01*
X100336800Y-58377000D02*
X100456800Y-58377000D01*
X98186800Y-58377000D02*
X99326800Y-58377000D01*
X97056800Y-58377000D02*
X97176800Y-58377000D01*
X97056800Y-62777000D02*
X97056800Y-58377000D01*
G04 #@! TO.C,C1*
D12*
X68293942Y-57910333D02*
X68341561Y-57862714D01*
X68389180Y-57719857D01*
X68389180Y-57624619D01*
X68341561Y-57481761D01*
X68246323Y-57386523D01*
X68151085Y-57338904D01*
X67960609Y-57291285D01*
X67817752Y-57291285D01*
X67627276Y-57338904D01*
X67532038Y-57386523D01*
X67436800Y-57481761D01*
X67389180Y-57624619D01*
X67389180Y-57719857D01*
X67436800Y-57862714D01*
X67484419Y-57910333D01*
X68389180Y-58862714D02*
X68389180Y-58291285D01*
X68389180Y-58577000D02*
X67389180Y-58577000D01*
X67532038Y-58481761D01*
X67627276Y-58386523D01*
X67674895Y-58291285D01*
G04 #@! TO.C,C2*
X72293942Y-57910333D02*
X72341561Y-57862714D01*
X72389180Y-57719857D01*
X72389180Y-57624619D01*
X72341561Y-57481761D01*
X72246323Y-57386523D01*
X72151085Y-57338904D01*
X71960609Y-57291285D01*
X71817752Y-57291285D01*
X71627276Y-57338904D01*
X71532038Y-57386523D01*
X71436800Y-57481761D01*
X71389180Y-57624619D01*
X71389180Y-57719857D01*
X71436800Y-57862714D01*
X71484419Y-57910333D01*
X71484419Y-58291285D02*
X71436800Y-58338904D01*
X71389180Y-58434142D01*
X71389180Y-58672238D01*
X71436800Y-58767476D01*
X71484419Y-58815095D01*
X71579657Y-58862714D01*
X71674895Y-58862714D01*
X71817752Y-58815095D01*
X72389180Y-58243666D01*
X72389180Y-58862714D01*
G04 #@! TO.C,C3*
X98923466Y-55254142D02*
X98971085Y-55301761D01*
X99113942Y-55349380D01*
X99209180Y-55349380D01*
X99352038Y-55301761D01*
X99447276Y-55206523D01*
X99494895Y-55111285D01*
X99542514Y-54920809D01*
X99542514Y-54777952D01*
X99494895Y-54587476D01*
X99447276Y-54492238D01*
X99352038Y-54397000D01*
X99209180Y-54349380D01*
X99113942Y-54349380D01*
X98971085Y-54397000D01*
X98923466Y-54444619D01*
X98590133Y-54349380D02*
X97971085Y-54349380D01*
X98304419Y-54730333D01*
X98161561Y-54730333D01*
X98066323Y-54777952D01*
X98018704Y-54825571D01*
X97971085Y-54920809D01*
X97971085Y-55158904D01*
X98018704Y-55254142D01*
X98066323Y-55301761D01*
X98161561Y-55349380D01*
X98447276Y-55349380D01*
X98542514Y-55301761D01*
X98590133Y-55254142D01*
G04 #@! TO.C,C4*
X93113942Y-48410333D02*
X93161561Y-48362714D01*
X93209180Y-48219857D01*
X93209180Y-48124619D01*
X93161561Y-47981761D01*
X93066323Y-47886523D01*
X92971085Y-47838904D01*
X92780609Y-47791285D01*
X92637752Y-47791285D01*
X92447276Y-47838904D01*
X92352038Y-47886523D01*
X92256800Y-47981761D01*
X92209180Y-48124619D01*
X92209180Y-48219857D01*
X92256800Y-48362714D01*
X92304419Y-48410333D01*
X92542514Y-49267476D02*
X93209180Y-49267476D01*
X92161561Y-49029380D02*
X92875847Y-48791285D01*
X92875847Y-49410333D01*
G04 #@! TO.C,C5*
X78840255Y-46924753D02*
X78907598Y-46924753D01*
X79042285Y-46857409D01*
X79109629Y-46790066D01*
X79176972Y-46655378D01*
X79176972Y-46520691D01*
X79143301Y-46419676D01*
X79042285Y-46251317D01*
X78941270Y-46150302D01*
X78772911Y-46049287D01*
X78671896Y-46015615D01*
X78537209Y-46015615D01*
X78402522Y-46082959D01*
X78335178Y-46150302D01*
X78267835Y-46284989D01*
X78267835Y-46352333D01*
X77560728Y-46924753D02*
X77897446Y-46588035D01*
X78267835Y-46891081D01*
X78200491Y-46891081D01*
X78099476Y-46924753D01*
X77931117Y-47093111D01*
X77897446Y-47194127D01*
X77897446Y-47261470D01*
X77931117Y-47362485D01*
X78099476Y-47530844D01*
X78200491Y-47564516D01*
X78267835Y-47564516D01*
X78368850Y-47530844D01*
X78537209Y-47362485D01*
X78570881Y-47261470D01*
X78570881Y-47194127D01*
G04 #@! TO.C,J1*
X66021680Y-54243666D02*
X66735966Y-54243666D01*
X66878823Y-54196047D01*
X66974061Y-54100809D01*
X67021680Y-53957952D01*
X67021680Y-53862714D01*
X67021680Y-55243666D02*
X67021680Y-54672238D01*
X67021680Y-54957952D02*
X66021680Y-54957952D01*
X66164538Y-54862714D01*
X66259776Y-54767476D01*
X66307395Y-54672238D01*
G04 #@! TO.C,R1*
X78267835Y-62801666D02*
X78840255Y-62700651D01*
X78671896Y-63205727D02*
X79379003Y-62498621D01*
X79109629Y-62229246D01*
X79008614Y-62195575D01*
X78941270Y-62195575D01*
X78840255Y-62229246D01*
X78739240Y-62330262D01*
X78705568Y-62431277D01*
X78705568Y-62498621D01*
X78739240Y-62599636D01*
X79008614Y-62869010D01*
X77594400Y-62128231D02*
X77998461Y-62532292D01*
X77796430Y-62330262D02*
X78503537Y-61623155D01*
X78469866Y-61791514D01*
X78469866Y-61926201D01*
X78503537Y-62027216D01*
G04 #@! TO.C,R2*
X71923466Y-48209380D02*
X72256800Y-47733190D01*
X72494895Y-48209380D02*
X72494895Y-47209380D01*
X72113942Y-47209380D01*
X72018704Y-47257000D01*
X71971085Y-47304619D01*
X71923466Y-47399857D01*
X71923466Y-47542714D01*
X71971085Y-47637952D01*
X72018704Y-47685571D01*
X72113942Y-47733190D01*
X72494895Y-47733190D01*
X71542514Y-47304619D02*
X71494895Y-47257000D01*
X71399657Y-47209380D01*
X71161561Y-47209380D01*
X71066323Y-47257000D01*
X71018704Y-47304619D01*
X70971085Y-47399857D01*
X70971085Y-47495095D01*
X71018704Y-47637952D01*
X71590133Y-48209380D01*
X70971085Y-48209380D01*
G04 #@! TO.C,R3*
X71923466Y-51709380D02*
X72256800Y-51233190D01*
X72494895Y-51709380D02*
X72494895Y-50709380D01*
X72113942Y-50709380D01*
X72018704Y-50757000D01*
X71971085Y-50804619D01*
X71923466Y-50899857D01*
X71923466Y-51042714D01*
X71971085Y-51137952D01*
X72018704Y-51185571D01*
X72113942Y-51233190D01*
X72494895Y-51233190D01*
X71590133Y-50709380D02*
X70971085Y-50709380D01*
X71304419Y-51090333D01*
X71161561Y-51090333D01*
X71066323Y-51137952D01*
X71018704Y-51185571D01*
X70971085Y-51280809D01*
X70971085Y-51518904D01*
X71018704Y-51614142D01*
X71066323Y-51661761D01*
X71161561Y-51709380D01*
X71447276Y-51709380D01*
X71542514Y-51661761D01*
X71590133Y-51614142D01*
G04 #@! TO.C,R4*
X91907598Y-59992096D02*
X91806583Y-59419676D01*
X92311659Y-59588035D02*
X91604553Y-58880928D01*
X91335178Y-59150302D01*
X91301507Y-59251317D01*
X91301507Y-59318661D01*
X91335178Y-59419676D01*
X91436194Y-59520691D01*
X91537209Y-59554363D01*
X91604553Y-59554363D01*
X91705568Y-59520691D01*
X91974942Y-59251317D01*
X90830102Y-60126783D02*
X91301507Y-60598188D01*
X90729087Y-59689050D02*
X91402522Y-60025768D01*
X90964789Y-60463501D01*
G04 #@! TO.C,U1*
X78018704Y-54029380D02*
X78018704Y-54838904D01*
X77971085Y-54934142D01*
X77923466Y-54981761D01*
X77828228Y-55029380D01*
X77637752Y-55029380D01*
X77542514Y-54981761D01*
X77494895Y-54934142D01*
X77447276Y-54838904D01*
X77447276Y-54029380D01*
X76447276Y-55029380D02*
X77018704Y-55029380D01*
X76732990Y-55029380D02*
X76732990Y-54029380D01*
X76828228Y-54172238D01*
X76923466Y-54267476D01*
X77018704Y-54315095D01*
G04 #@! TO.C,Y1*
X101782990Y-48100809D02*
X102259180Y-48100809D01*
X101259180Y-47767476D02*
X101782990Y-48100809D01*
X101259180Y-48434142D01*
X102259180Y-49291285D02*
X102259180Y-48719857D01*
X102259180Y-49005571D02*
X101259180Y-49005571D01*
X101402038Y-48910333D01*
X101497276Y-48815095D01*
X101544895Y-48719857D01*
G04 #@! TO.C,SW1*
X96561561Y-59243666D02*
X96609180Y-59386523D01*
X96609180Y-59624619D01*
X96561561Y-59719857D01*
X96513942Y-59767476D01*
X96418704Y-59815095D01*
X96323466Y-59815095D01*
X96228228Y-59767476D01*
X96180609Y-59719857D01*
X96132990Y-59624619D01*
X96085371Y-59434142D01*
X96037752Y-59338904D01*
X95990133Y-59291285D01*
X95894895Y-59243666D01*
X95799657Y-59243666D01*
X95704419Y-59291285D01*
X95656800Y-59338904D01*
X95609180Y-59434142D01*
X95609180Y-59672238D01*
X95656800Y-59815095D01*
X95609180Y-60148428D02*
X96609180Y-60386523D01*
X95894895Y-60577000D01*
X96609180Y-60767476D01*
X95609180Y-61005571D01*
X96609180Y-61910333D02*
X96609180Y-61338904D01*
X96609180Y-61624619D02*
X95609180Y-61624619D01*
X95752038Y-61529380D01*
X95847276Y-61434142D01*
X95894895Y-61338904D01*
G04 #@! TD*
M02*
