G04 #@! TF.GenerationSoftware,KiCad,Pcbnew,(5.0.1-3-g963ef8bb5)*
G04 #@! TF.CreationDate,2019-09-07T00:25:15+09:00*
G04 #@! TF.ProjectId,switch42,73776974636834322E6B696361645F70,rev?*
G04 #@! TF.SameCoordinates,Original*
G04 #@! TF.FileFunction,Soldermask,Bot*
G04 #@! TF.FilePolarity,Negative*
%FSLAX46Y46*%
G04 Gerber Fmt 4.6, Leading zero omitted, Abs format (unit mm)*
G04 Created by KiCad (PCBNEW (5.0.1-3-g963ef8bb5)) date 2019 September 07, Saturday 00:25:15*
%MOMM*%
%LPD*%
G01*
G04 APERTURE LIST*
%ADD10C,0.010000*%
%ADD11C,0.100000*%
G04 APERTURE END LIST*
D10*
G04 #@! TO.C,G\002A\002A\002A*
G36*
X112474389Y-48718353D02*
X112229898Y-48747324D01*
X112196436Y-48752905D01*
X111829336Y-48832178D01*
X111500972Y-48936197D01*
X111211418Y-49064920D01*
X110960746Y-49218308D01*
X110749029Y-49396319D01*
X110576337Y-49598913D01*
X110508005Y-49703738D01*
X110460710Y-49780856D01*
X110421065Y-49830450D01*
X110378383Y-49856015D01*
X110321974Y-49861046D01*
X110241152Y-49849038D01*
X110135010Y-49825712D01*
X109997196Y-49790785D01*
X109892960Y-49753484D01*
X109809940Y-49706725D01*
X109735774Y-49643427D01*
X109658099Y-49556505D01*
X109651804Y-49548857D01*
X109491868Y-49378643D01*
X109303808Y-49219751D01*
X109099466Y-49080407D01*
X108890685Y-48968837D01*
X108722261Y-48903143D01*
X108513943Y-48856068D01*
X108300682Y-48846901D01*
X108071879Y-48875298D01*
X108043351Y-48881113D01*
X107742785Y-48962204D01*
X107453837Y-49074224D01*
X107182846Y-49213369D01*
X106936151Y-49375830D01*
X106720094Y-49557802D01*
X106541013Y-49755478D01*
X106503718Y-49805564D01*
X106402584Y-49947291D01*
X106217100Y-49971780D01*
X106073562Y-49999660D01*
X105943554Y-50041320D01*
X105902101Y-50059634D01*
X105827454Y-50101144D01*
X105769562Y-50148698D01*
X105714666Y-50215424D01*
X105670824Y-50280307D01*
X105618339Y-50355395D01*
X105570034Y-50414026D01*
X105534604Y-50445903D01*
X105528795Y-50448482D01*
X105453199Y-50467794D01*
X105352824Y-50491957D01*
X105239495Y-50518298D01*
X105125040Y-50544142D01*
X105021283Y-50566813D01*
X104940051Y-50583639D01*
X104896279Y-50591529D01*
X104821241Y-50612806D01*
X104755732Y-50647801D01*
X104753719Y-50649354D01*
X104702743Y-50710245D01*
X104661272Y-50798203D01*
X104631598Y-50900854D01*
X104616011Y-51005829D01*
X104616805Y-51100755D01*
X104636270Y-51173261D01*
X104652453Y-51196007D01*
X104701143Y-51221882D01*
X104782418Y-51233066D01*
X104898904Y-51229450D01*
X105053229Y-51210921D01*
X105248022Y-51177368D01*
X105292254Y-51168808D01*
X105421994Y-51144622D01*
X105532965Y-51127819D01*
X105639246Y-51117230D01*
X105754917Y-51111690D01*
X105894055Y-51110031D01*
X105996527Y-51110427D01*
X106131636Y-51110970D01*
X106255029Y-51110632D01*
X106357386Y-51109502D01*
X106429389Y-51107669D01*
X106456697Y-51106020D01*
X106493718Y-51105963D01*
X106523779Y-51120550D01*
X106555669Y-51157864D01*
X106598174Y-51225991D01*
X106611052Y-51248033D01*
X106708165Y-51398318D01*
X106808506Y-51522703D01*
X106906369Y-51614869D01*
X106987540Y-51665016D01*
X107095983Y-51700725D01*
X107241299Y-51732327D01*
X107414312Y-51759213D01*
X107605843Y-51780770D01*
X107806718Y-51796388D01*
X108007759Y-51805457D01*
X108199789Y-51807366D01*
X108373633Y-51801505D01*
X108520113Y-51787262D01*
X108600027Y-51772327D01*
X108794370Y-51706000D01*
X108994499Y-51603486D01*
X109190635Y-51472079D01*
X109373001Y-51319072D01*
X109531817Y-51151759D01*
X109650222Y-50989045D01*
X109732273Y-50856273D01*
X109884855Y-50856406D01*
X110034994Y-50863094D01*
X110185893Y-50881421D01*
X110328015Y-50909172D01*
X110451823Y-50944130D01*
X110547778Y-50984078D01*
X110603311Y-51023386D01*
X110643424Y-51081324D01*
X110673460Y-51151291D01*
X110688790Y-51217954D01*
X110684786Y-51265978D01*
X110679087Y-51274495D01*
X110647813Y-51284416D01*
X110580060Y-51285774D01*
X110472367Y-51278523D01*
X110392346Y-51270579D01*
X110231105Y-51257648D01*
X110106026Y-51258568D01*
X110008889Y-51274427D01*
X109931472Y-51306315D01*
X109885976Y-51337647D01*
X109843174Y-51400703D01*
X109822950Y-51498853D01*
X109825571Y-51626758D01*
X109851305Y-51779077D01*
X109861714Y-51821632D01*
X109882865Y-51913968D01*
X109897163Y-52006696D01*
X109905746Y-52112221D01*
X109909750Y-52242947D01*
X109910436Y-52353489D01*
X109910808Y-52481866D01*
X109913159Y-52581095D01*
X109919346Y-52663525D01*
X109931221Y-52741504D01*
X109950642Y-52827379D01*
X109979461Y-52933498D01*
X110017188Y-53064146D01*
X110059446Y-53212956D01*
X110089813Y-53331613D01*
X110110783Y-53433850D01*
X110124848Y-53533399D01*
X110134501Y-53643993D01*
X110140356Y-53742636D01*
X110147552Y-53860392D01*
X110155695Y-53963252D01*
X110163880Y-54041506D01*
X110171206Y-54085440D01*
X110172595Y-54089497D01*
X110215773Y-54140338D01*
X110294317Y-54174959D01*
X110412038Y-54194783D01*
X110464618Y-54198565D01*
X110563354Y-54201252D01*
X110634070Y-54194825D01*
X110694503Y-54176441D01*
X110741709Y-54154150D01*
X110828154Y-54094857D01*
X110887953Y-54013404D01*
X110896523Y-53996636D01*
X110936379Y-53887119D01*
X110969892Y-53736659D01*
X110996462Y-53550136D01*
X111015488Y-53332431D01*
X111026369Y-53088424D01*
X111028772Y-52922909D01*
X111030345Y-52484182D01*
X110929049Y-52322749D01*
X110849884Y-52182163D01*
X110789562Y-52045500D01*
X110752253Y-51923507D01*
X110741745Y-51839794D01*
X110754582Y-51762999D01*
X110787067Y-51681512D01*
X110830262Y-51614364D01*
X110860439Y-51587059D01*
X110889694Y-51581474D01*
X110939839Y-51591582D01*
X111017296Y-51619332D01*
X111128489Y-51666672D01*
X111140748Y-51672129D01*
X111339176Y-51750041D01*
X111551208Y-51815247D01*
X111645473Y-51838275D01*
X111752879Y-51864814D01*
X111891307Y-51903207D01*
X112048294Y-51949766D01*
X112211376Y-52000800D01*
X112358072Y-52049209D01*
X112524272Y-52104745D01*
X112655725Y-52146137D01*
X112760892Y-52175549D01*
X112848231Y-52195147D01*
X112926203Y-52207096D01*
X112999349Y-52213338D01*
X113097778Y-52217613D01*
X113167713Y-52214513D01*
X113226647Y-52200893D01*
X113292074Y-52173605D01*
X113334167Y-52153120D01*
X113482747Y-52066273D01*
X113623089Y-51959819D01*
X113749348Y-51840476D01*
X113855680Y-51714965D01*
X113936240Y-51590006D01*
X113985186Y-51472317D01*
X113997656Y-51390233D01*
X114003720Y-51344019D01*
X114018486Y-51278546D01*
X114021832Y-51266136D01*
X114043213Y-51208395D01*
X114072238Y-51183839D01*
X114108929Y-51179545D01*
X114184585Y-51194956D01*
X114252260Y-51244644D01*
X114318454Y-51333794D01*
X114332832Y-51358114D01*
X114419323Y-51483630D01*
X114527079Y-51601962D01*
X114642705Y-51699667D01*
X114722531Y-51749295D01*
X114834649Y-51790186D01*
X114989706Y-51820498D01*
X115185622Y-51839954D01*
X115420319Y-51848274D01*
X115462282Y-51848556D01*
X115605763Y-51842885D01*
X115716268Y-51821099D01*
X115805809Y-51777533D01*
X115886395Y-51706518D01*
X115962661Y-51612461D01*
X116016195Y-51536169D01*
X116059310Y-51468045D01*
X116083661Y-51421384D01*
X116085053Y-51417463D01*
X116084199Y-51374742D01*
X116069114Y-51299005D01*
X116042823Y-51200073D01*
X116008350Y-51087765D01*
X115968721Y-50971902D01*
X115926961Y-50862304D01*
X115886095Y-50768792D01*
X115883738Y-50763909D01*
X115833254Y-50660000D01*
X115636982Y-50654587D01*
X115484141Y-50647649D01*
X115323565Y-50635596D01*
X115162104Y-50619441D01*
X115006610Y-50600193D01*
X114863934Y-50578864D01*
X114740928Y-50556463D01*
X114644443Y-50534002D01*
X114581331Y-50512491D01*
X114558990Y-50495578D01*
X114556956Y-50457579D01*
X114563708Y-50389790D01*
X114576535Y-50313612D01*
X114591814Y-50223484D01*
X114592592Y-50199058D01*
X113240621Y-50199058D01*
X113233699Y-50317999D01*
X113190222Y-50442195D01*
X113110001Y-50565663D01*
X113065607Y-50615552D01*
X112944277Y-50740818D01*
X112656947Y-50740477D01*
X112499266Y-50736602D01*
X112357084Y-50726090D01*
X112243937Y-50710037D01*
X112221548Y-50705233D01*
X112096083Y-50664440D01*
X111969316Y-50604086D01*
X111855336Y-50532267D01*
X111768237Y-50457081D01*
X111747922Y-50433078D01*
X111691150Y-50324468D01*
X111671782Y-50205205D01*
X111684636Y-50114792D01*
X111685802Y-50111367D01*
X108613890Y-50111367D01*
X108612414Y-50183388D01*
X108611651Y-50191594D01*
X108596371Y-50269396D01*
X108570490Y-50332845D01*
X108559090Y-50348856D01*
X108482755Y-50402077D01*
X108380521Y-50431407D01*
X108266722Y-50435632D01*
X108155690Y-50413537D01*
X108097800Y-50387954D01*
X108010113Y-50317736D01*
X107951901Y-50228202D01*
X107925540Y-50129628D01*
X107933407Y-50032295D01*
X107977878Y-49946480D01*
X107992114Y-49930860D01*
X108036124Y-49892401D01*
X108080858Y-49872071D01*
X108143500Y-49864307D01*
X108200674Y-49863364D01*
X108339428Y-49874831D01*
X108447443Y-49911872D01*
X108534792Y-49978441D01*
X108557407Y-50003493D01*
X108597781Y-50059123D01*
X108613890Y-50111367D01*
X111685802Y-50111367D01*
X111744321Y-49939507D01*
X111806870Y-49808183D01*
X111873866Y-49718616D01*
X111946894Y-49668603D01*
X112014940Y-49655545D01*
X112069407Y-49664985D01*
X112150077Y-49690045D01*
X112241774Y-49725833D01*
X112265709Y-49736364D01*
X112354338Y-49773766D01*
X112432241Y-49801989D01*
X112485989Y-49816305D01*
X112495377Y-49817182D01*
X112568744Y-49823263D01*
X112670520Y-49839322D01*
X112785248Y-49862079D01*
X112897473Y-49888255D01*
X112991739Y-49914570D01*
X113043958Y-49933573D01*
X113145560Y-50000864D01*
X113211178Y-50091352D01*
X113240621Y-50199058D01*
X114592592Y-50199058D01*
X114593952Y-50156403D01*
X114582273Y-50090950D01*
X114567975Y-50042356D01*
X114490141Y-49860393D01*
X114368111Y-49666461D01*
X114202171Y-49461004D01*
X114164382Y-49419266D01*
X114083073Y-49329611D01*
X114028898Y-49265095D01*
X113996761Y-49217781D01*
X113981568Y-49179733D01*
X113978221Y-49143015D01*
X113978819Y-49130263D01*
X113975630Y-49070748D01*
X113949731Y-49024376D01*
X113906336Y-48983629D01*
X113780159Y-48902118D01*
X113616319Y-48833588D01*
X113421737Y-48778975D01*
X113203333Y-48739211D01*
X112968027Y-48715230D01*
X112722739Y-48707966D01*
X112474389Y-48718353D01*
X112474389Y-48718353D01*
G37*
X112474389Y-48718353D02*
X112229898Y-48747324D01*
X112196436Y-48752905D01*
X111829336Y-48832178D01*
X111500972Y-48936197D01*
X111211418Y-49064920D01*
X110960746Y-49218308D01*
X110749029Y-49396319D01*
X110576337Y-49598913D01*
X110508005Y-49703738D01*
X110460710Y-49780856D01*
X110421065Y-49830450D01*
X110378383Y-49856015D01*
X110321974Y-49861046D01*
X110241152Y-49849038D01*
X110135010Y-49825712D01*
X109997196Y-49790785D01*
X109892960Y-49753484D01*
X109809940Y-49706725D01*
X109735774Y-49643427D01*
X109658099Y-49556505D01*
X109651804Y-49548857D01*
X109491868Y-49378643D01*
X109303808Y-49219751D01*
X109099466Y-49080407D01*
X108890685Y-48968837D01*
X108722261Y-48903143D01*
X108513943Y-48856068D01*
X108300682Y-48846901D01*
X108071879Y-48875298D01*
X108043351Y-48881113D01*
X107742785Y-48962204D01*
X107453837Y-49074224D01*
X107182846Y-49213369D01*
X106936151Y-49375830D01*
X106720094Y-49557802D01*
X106541013Y-49755478D01*
X106503718Y-49805564D01*
X106402584Y-49947291D01*
X106217100Y-49971780D01*
X106073562Y-49999660D01*
X105943554Y-50041320D01*
X105902101Y-50059634D01*
X105827454Y-50101144D01*
X105769562Y-50148698D01*
X105714666Y-50215424D01*
X105670824Y-50280307D01*
X105618339Y-50355395D01*
X105570034Y-50414026D01*
X105534604Y-50445903D01*
X105528795Y-50448482D01*
X105453199Y-50467794D01*
X105352824Y-50491957D01*
X105239495Y-50518298D01*
X105125040Y-50544142D01*
X105021283Y-50566813D01*
X104940051Y-50583639D01*
X104896279Y-50591529D01*
X104821241Y-50612806D01*
X104755732Y-50647801D01*
X104753719Y-50649354D01*
X104702743Y-50710245D01*
X104661272Y-50798203D01*
X104631598Y-50900854D01*
X104616011Y-51005829D01*
X104616805Y-51100755D01*
X104636270Y-51173261D01*
X104652453Y-51196007D01*
X104701143Y-51221882D01*
X104782418Y-51233066D01*
X104898904Y-51229450D01*
X105053229Y-51210921D01*
X105248022Y-51177368D01*
X105292254Y-51168808D01*
X105421994Y-51144622D01*
X105532965Y-51127819D01*
X105639246Y-51117230D01*
X105754917Y-51111690D01*
X105894055Y-51110031D01*
X105996527Y-51110427D01*
X106131636Y-51110970D01*
X106255029Y-51110632D01*
X106357386Y-51109502D01*
X106429389Y-51107669D01*
X106456697Y-51106020D01*
X106493718Y-51105963D01*
X106523779Y-51120550D01*
X106555669Y-51157864D01*
X106598174Y-51225991D01*
X106611052Y-51248033D01*
X106708165Y-51398318D01*
X106808506Y-51522703D01*
X106906369Y-51614869D01*
X106987540Y-51665016D01*
X107095983Y-51700725D01*
X107241299Y-51732327D01*
X107414312Y-51759213D01*
X107605843Y-51780770D01*
X107806718Y-51796388D01*
X108007759Y-51805457D01*
X108199789Y-51807366D01*
X108373633Y-51801505D01*
X108520113Y-51787262D01*
X108600027Y-51772327D01*
X108794370Y-51706000D01*
X108994499Y-51603486D01*
X109190635Y-51472079D01*
X109373001Y-51319072D01*
X109531817Y-51151759D01*
X109650222Y-50989045D01*
X109732273Y-50856273D01*
X109884855Y-50856406D01*
X110034994Y-50863094D01*
X110185893Y-50881421D01*
X110328015Y-50909172D01*
X110451823Y-50944130D01*
X110547778Y-50984078D01*
X110603311Y-51023386D01*
X110643424Y-51081324D01*
X110673460Y-51151291D01*
X110688790Y-51217954D01*
X110684786Y-51265978D01*
X110679087Y-51274495D01*
X110647813Y-51284416D01*
X110580060Y-51285774D01*
X110472367Y-51278523D01*
X110392346Y-51270579D01*
X110231105Y-51257648D01*
X110106026Y-51258568D01*
X110008889Y-51274427D01*
X109931472Y-51306315D01*
X109885976Y-51337647D01*
X109843174Y-51400703D01*
X109822950Y-51498853D01*
X109825571Y-51626758D01*
X109851305Y-51779077D01*
X109861714Y-51821632D01*
X109882865Y-51913968D01*
X109897163Y-52006696D01*
X109905746Y-52112221D01*
X109909750Y-52242947D01*
X109910436Y-52353489D01*
X109910808Y-52481866D01*
X109913159Y-52581095D01*
X109919346Y-52663525D01*
X109931221Y-52741504D01*
X109950642Y-52827379D01*
X109979461Y-52933498D01*
X110017188Y-53064146D01*
X110059446Y-53212956D01*
X110089813Y-53331613D01*
X110110783Y-53433850D01*
X110124848Y-53533399D01*
X110134501Y-53643993D01*
X110140356Y-53742636D01*
X110147552Y-53860392D01*
X110155695Y-53963252D01*
X110163880Y-54041506D01*
X110171206Y-54085440D01*
X110172595Y-54089497D01*
X110215773Y-54140338D01*
X110294317Y-54174959D01*
X110412038Y-54194783D01*
X110464618Y-54198565D01*
X110563354Y-54201252D01*
X110634070Y-54194825D01*
X110694503Y-54176441D01*
X110741709Y-54154150D01*
X110828154Y-54094857D01*
X110887953Y-54013404D01*
X110896523Y-53996636D01*
X110936379Y-53887119D01*
X110969892Y-53736659D01*
X110996462Y-53550136D01*
X111015488Y-53332431D01*
X111026369Y-53088424D01*
X111028772Y-52922909D01*
X111030345Y-52484182D01*
X110929049Y-52322749D01*
X110849884Y-52182163D01*
X110789562Y-52045500D01*
X110752253Y-51923507D01*
X110741745Y-51839794D01*
X110754582Y-51762999D01*
X110787067Y-51681512D01*
X110830262Y-51614364D01*
X110860439Y-51587059D01*
X110889694Y-51581474D01*
X110939839Y-51591582D01*
X111017296Y-51619332D01*
X111128489Y-51666672D01*
X111140748Y-51672129D01*
X111339176Y-51750041D01*
X111551208Y-51815247D01*
X111645473Y-51838275D01*
X111752879Y-51864814D01*
X111891307Y-51903207D01*
X112048294Y-51949766D01*
X112211376Y-52000800D01*
X112358072Y-52049209D01*
X112524272Y-52104745D01*
X112655725Y-52146137D01*
X112760892Y-52175549D01*
X112848231Y-52195147D01*
X112926203Y-52207096D01*
X112999349Y-52213338D01*
X113097778Y-52217613D01*
X113167713Y-52214513D01*
X113226647Y-52200893D01*
X113292074Y-52173605D01*
X113334167Y-52153120D01*
X113482747Y-52066273D01*
X113623089Y-51959819D01*
X113749348Y-51840476D01*
X113855680Y-51714965D01*
X113936240Y-51590006D01*
X113985186Y-51472317D01*
X113997656Y-51390233D01*
X114003720Y-51344019D01*
X114018486Y-51278546D01*
X114021832Y-51266136D01*
X114043213Y-51208395D01*
X114072238Y-51183839D01*
X114108929Y-51179545D01*
X114184585Y-51194956D01*
X114252260Y-51244644D01*
X114318454Y-51333794D01*
X114332832Y-51358114D01*
X114419323Y-51483630D01*
X114527079Y-51601962D01*
X114642705Y-51699667D01*
X114722531Y-51749295D01*
X114834649Y-51790186D01*
X114989706Y-51820498D01*
X115185622Y-51839954D01*
X115420319Y-51848274D01*
X115462282Y-51848556D01*
X115605763Y-51842885D01*
X115716268Y-51821099D01*
X115805809Y-51777533D01*
X115886395Y-51706518D01*
X115962661Y-51612461D01*
X116016195Y-51536169D01*
X116059310Y-51468045D01*
X116083661Y-51421384D01*
X116085053Y-51417463D01*
X116084199Y-51374742D01*
X116069114Y-51299005D01*
X116042823Y-51200073D01*
X116008350Y-51087765D01*
X115968721Y-50971902D01*
X115926961Y-50862304D01*
X115886095Y-50768792D01*
X115883738Y-50763909D01*
X115833254Y-50660000D01*
X115636982Y-50654587D01*
X115484141Y-50647649D01*
X115323565Y-50635596D01*
X115162104Y-50619441D01*
X115006610Y-50600193D01*
X114863934Y-50578864D01*
X114740928Y-50556463D01*
X114644443Y-50534002D01*
X114581331Y-50512491D01*
X114558990Y-50495578D01*
X114556956Y-50457579D01*
X114563708Y-50389790D01*
X114576535Y-50313612D01*
X114591814Y-50223484D01*
X114592592Y-50199058D01*
X113240621Y-50199058D01*
X113233699Y-50317999D01*
X113190222Y-50442195D01*
X113110001Y-50565663D01*
X113065607Y-50615552D01*
X112944277Y-50740818D01*
X112656947Y-50740477D01*
X112499266Y-50736602D01*
X112357084Y-50726090D01*
X112243937Y-50710037D01*
X112221548Y-50705233D01*
X112096083Y-50664440D01*
X111969316Y-50604086D01*
X111855336Y-50532267D01*
X111768237Y-50457081D01*
X111747922Y-50433078D01*
X111691150Y-50324468D01*
X111671782Y-50205205D01*
X111684636Y-50114792D01*
X111685802Y-50111367D01*
X108613890Y-50111367D01*
X108612414Y-50183388D01*
X108611651Y-50191594D01*
X108596371Y-50269396D01*
X108570490Y-50332845D01*
X108559090Y-50348856D01*
X108482755Y-50402077D01*
X108380521Y-50431407D01*
X108266722Y-50435632D01*
X108155690Y-50413537D01*
X108097800Y-50387954D01*
X108010113Y-50317736D01*
X107951901Y-50228202D01*
X107925540Y-50129628D01*
X107933407Y-50032295D01*
X107977878Y-49946480D01*
X107992114Y-49930860D01*
X108036124Y-49892401D01*
X108080858Y-49872071D01*
X108143500Y-49864307D01*
X108200674Y-49863364D01*
X108339428Y-49874831D01*
X108447443Y-49911872D01*
X108534792Y-49978441D01*
X108557407Y-50003493D01*
X108597781Y-50059123D01*
X108613890Y-50111367D01*
X111685802Y-50111367D01*
X111744321Y-49939507D01*
X111806870Y-49808183D01*
X111873866Y-49718616D01*
X111946894Y-49668603D01*
X112014940Y-49655545D01*
X112069407Y-49664985D01*
X112150077Y-49690045D01*
X112241774Y-49725833D01*
X112265709Y-49736364D01*
X112354338Y-49773766D01*
X112432241Y-49801989D01*
X112485989Y-49816305D01*
X112495377Y-49817182D01*
X112568744Y-49823263D01*
X112670520Y-49839322D01*
X112785248Y-49862079D01*
X112897473Y-49888255D01*
X112991739Y-49914570D01*
X113043958Y-49933573D01*
X113145560Y-50000864D01*
X113211178Y-50091352D01*
X113240621Y-50199058D01*
X114592592Y-50199058D01*
X114593952Y-50156403D01*
X114582273Y-50090950D01*
X114567975Y-50042356D01*
X114490141Y-49860393D01*
X114368111Y-49666461D01*
X114202171Y-49461004D01*
X114164382Y-49419266D01*
X114083073Y-49329611D01*
X114028898Y-49265095D01*
X113996761Y-49217781D01*
X113981568Y-49179733D01*
X113978221Y-49143015D01*
X113978819Y-49130263D01*
X113975630Y-49070748D01*
X113949731Y-49024376D01*
X113906336Y-48983629D01*
X113780159Y-48902118D01*
X113616319Y-48833588D01*
X113421737Y-48778975D01*
X113203333Y-48739211D01*
X112968027Y-48715230D01*
X112722739Y-48707966D01*
X112474389Y-48718353D01*
G36*
X108854099Y-54257077D02*
X108703517Y-54273740D01*
X108533148Y-54299280D01*
X108352630Y-54331731D01*
X108171604Y-54369123D01*
X107999708Y-54409488D01*
X107846583Y-54450860D01*
X107721867Y-54491270D01*
X107647527Y-54522324D01*
X107556659Y-54576512D01*
X107495390Y-54638250D01*
X107467108Y-54683110D01*
X107432450Y-54762646D01*
X107394611Y-54876062D01*
X107356570Y-55011469D01*
X107321304Y-55156976D01*
X107291793Y-55300695D01*
X107271016Y-55430737D01*
X107264379Y-55492256D01*
X107258889Y-55605429D01*
X107265043Y-55703517D01*
X107286305Y-55794537D01*
X107326137Y-55886507D01*
X107388003Y-55987443D01*
X107475365Y-56105361D01*
X107590189Y-56246485D01*
X107663437Y-56337566D01*
X107708190Y-56402310D01*
X107728374Y-56447273D01*
X107728440Y-56477394D01*
X107711968Y-56559512D01*
X107702215Y-56665196D01*
X107699815Y-56775583D01*
X107705402Y-56871811D01*
X107713622Y-56917852D01*
X107772735Y-57057748D01*
X107867141Y-57186953D01*
X107955708Y-57268336D01*
X108010955Y-57305791D01*
X108096889Y-57358557D01*
X108203258Y-57420573D01*
X108319811Y-57485775D01*
X108363733Y-57509639D01*
X108675072Y-57677333D01*
X109021436Y-57678763D01*
X109367800Y-57680192D01*
X109540982Y-57777726D01*
X109639331Y-57830036D01*
X109717956Y-57860609D01*
X109792405Y-57871491D01*
X109878223Y-57864729D01*
X109990957Y-57842369D01*
X110006073Y-57838954D01*
X110086620Y-57821804D01*
X110147916Y-57814263D01*
X110206301Y-57816948D01*
X110278116Y-57830474D01*
X110368540Y-57852630D01*
X110529508Y-57886091D01*
X110691183Y-57906709D01*
X110840701Y-57913574D01*
X110965197Y-57905777D01*
X111007254Y-57897831D01*
X111076861Y-57878304D01*
X111169327Y-57849119D01*
X111261254Y-57817772D01*
X111371207Y-57783980D01*
X111492803Y-57754537D01*
X111581305Y-57738657D01*
X111703004Y-57713412D01*
X111804628Y-57669936D01*
X111896669Y-57601237D01*
X111989617Y-57500323D01*
X112043248Y-57430830D01*
X112111637Y-57343177D01*
X112182989Y-57259495D01*
X112244333Y-57194822D01*
X112256982Y-57183031D01*
X112286092Y-57157338D01*
X112315134Y-57133086D01*
X112348883Y-57106988D01*
X112392114Y-57075755D01*
X112449604Y-57036100D01*
X112460865Y-57028541D01*
X111235788Y-57028541D01*
X111226335Y-57118329D01*
X111193995Y-57180923D01*
X111166924Y-57206559D01*
X111133152Y-57227741D01*
X111087455Y-57245351D01*
X111024606Y-57260272D01*
X110939380Y-57273386D01*
X110826550Y-57285575D01*
X110680891Y-57297720D01*
X110497176Y-57310704D01*
X110379164Y-57318448D01*
X110327112Y-57315592D01*
X110252214Y-57304631D01*
X110211639Y-57296698D01*
X110090757Y-57248520D01*
X109983373Y-57163514D01*
X109898724Y-57050838D01*
X109851376Y-56939558D01*
X109831405Y-56833488D01*
X109844628Y-56751289D01*
X109894502Y-56681498D01*
X109940868Y-56642715D01*
X109977874Y-56619842D01*
X110021172Y-56605802D01*
X110082200Y-56598806D01*
X110172400Y-56597065D01*
X110229505Y-56597572D01*
X110344540Y-56601952D01*
X110477065Y-56611496D01*
X110617166Y-56624992D01*
X110754927Y-56641226D01*
X110880435Y-56658985D01*
X110983775Y-56677054D01*
X111055033Y-56694222D01*
X111072829Y-56700789D01*
X111137046Y-56751712D01*
X111187824Y-56832080D01*
X111221845Y-56928741D01*
X111235788Y-57028541D01*
X112460865Y-57028541D01*
X112526127Y-56984736D01*
X112626461Y-56918374D01*
X112755379Y-56833728D01*
X112917659Y-56727509D01*
X112938399Y-56713944D01*
X113115690Y-56592033D01*
X113278210Y-56468711D01*
X113420478Y-56348808D01*
X113537013Y-56237152D01*
X113622333Y-56138573D01*
X113662788Y-56075648D01*
X113695477Y-55988763D01*
X113701073Y-55900761D01*
X113678265Y-55801614D01*
X113670462Y-55783738D01*
X112565891Y-55783738D01*
X112543051Y-55848303D01*
X112474742Y-55906609D01*
X112361285Y-55958428D01*
X112290876Y-55980931D01*
X112207619Y-56005135D01*
X112095221Y-56038179D01*
X111968770Y-56075612D01*
X111850072Y-56110975D01*
X111535580Y-56199538D01*
X111258283Y-56266100D01*
X111019366Y-56310390D01*
X110903345Y-56325307D01*
X110777083Y-56335238D01*
X110624444Y-56342298D01*
X110456521Y-56346456D01*
X110284403Y-56347685D01*
X110119182Y-56345955D01*
X109971949Y-56341239D01*
X109853794Y-56333507D01*
X109806527Y-56328144D01*
X109646804Y-56300371D01*
X109472081Y-56261120D01*
X109291048Y-56213169D01*
X109112392Y-56159295D01*
X108944804Y-56102275D01*
X108796972Y-56044885D01*
X108677587Y-55989902D01*
X108597577Y-55941793D01*
X108515066Y-55856163D01*
X108470253Y-55748531D01*
X108461657Y-55614915D01*
X108464237Y-55583921D01*
X108500991Y-55421740D01*
X108575613Y-55283974D01*
X108689516Y-55168770D01*
X108844115Y-55074275D01*
X108858290Y-55067552D01*
X108947777Y-55030313D01*
X109018252Y-55015577D01*
X109089756Y-55021199D01*
X109151358Y-55036154D01*
X109246534Y-55078598D01*
X109314076Y-55140359D01*
X109350710Y-55212995D01*
X109353161Y-55288065D01*
X109318154Y-55357128D01*
X109286982Y-55385742D01*
X109232614Y-55440942D01*
X109221327Y-55491410D01*
X109253282Y-55532701D01*
X109281209Y-55546866D01*
X109325258Y-55559318D01*
X109405463Y-55577341D01*
X109512414Y-55598995D01*
X109636700Y-55622340D01*
X109714163Y-55636090D01*
X109855893Y-55661911D01*
X109996987Y-55689752D01*
X110124328Y-55716882D01*
X110224801Y-55740570D01*
X110256336Y-55748978D01*
X110370501Y-55778451D01*
X110466752Y-55794319D01*
X110553642Y-55794421D01*
X110639722Y-55776598D01*
X110733546Y-55738687D01*
X110843667Y-55678530D01*
X110978638Y-55593966D01*
X111046836Y-55549303D01*
X111256073Y-55421387D01*
X111445910Y-55327896D01*
X111624014Y-55265838D01*
X111798052Y-55232220D01*
X111876200Y-55225620D01*
X111994554Y-55223545D01*
X112094356Y-55229780D01*
X112156916Y-55241934D01*
X112234458Y-55284713D01*
X112318896Y-55358742D01*
X112402084Y-55453229D01*
X112475875Y-55557380D01*
X112532122Y-55660403D01*
X112562678Y-55751504D01*
X112565891Y-55783738D01*
X113670462Y-55783738D01*
X113625744Y-55681295D01*
X113606437Y-55644137D01*
X113444019Y-55386496D01*
X113248186Y-55158479D01*
X113022395Y-54963523D01*
X112770100Y-54805064D01*
X112754416Y-54796906D01*
X112509897Y-54684422D01*
X112257897Y-54593010D01*
X112009031Y-54525637D01*
X111773909Y-54485271D01*
X111601176Y-54474412D01*
X111543975Y-54474736D01*
X111495440Y-54477910D01*
X111448282Y-54486587D01*
X111395210Y-54503425D01*
X111328937Y-54531079D01*
X111242171Y-54572205D01*
X111127624Y-54629458D01*
X111005919Y-54691288D01*
X110838345Y-54775811D01*
X110704292Y-54839575D01*
X110596313Y-54883142D01*
X110506965Y-54907075D01*
X110428802Y-54911938D01*
X110354380Y-54898294D01*
X110276255Y-54866705D01*
X110186981Y-54817736D01*
X110092726Y-54760367D01*
X109875874Y-54627832D01*
X109692256Y-54519373D01*
X109537109Y-54432816D01*
X109405667Y-54365993D01*
X109293165Y-54316732D01*
X109194840Y-54282863D01*
X109105925Y-54262214D01*
X109021658Y-54252616D01*
X108975254Y-54251259D01*
X108854099Y-54257077D01*
X108854099Y-54257077D01*
G37*
X108854099Y-54257077D02*
X108703517Y-54273740D01*
X108533148Y-54299280D01*
X108352630Y-54331731D01*
X108171604Y-54369123D01*
X107999708Y-54409488D01*
X107846583Y-54450860D01*
X107721867Y-54491270D01*
X107647527Y-54522324D01*
X107556659Y-54576512D01*
X107495390Y-54638250D01*
X107467108Y-54683110D01*
X107432450Y-54762646D01*
X107394611Y-54876062D01*
X107356570Y-55011469D01*
X107321304Y-55156976D01*
X107291793Y-55300695D01*
X107271016Y-55430737D01*
X107264379Y-55492256D01*
X107258889Y-55605429D01*
X107265043Y-55703517D01*
X107286305Y-55794537D01*
X107326137Y-55886507D01*
X107388003Y-55987443D01*
X107475365Y-56105361D01*
X107590189Y-56246485D01*
X107663437Y-56337566D01*
X107708190Y-56402310D01*
X107728374Y-56447273D01*
X107728440Y-56477394D01*
X107711968Y-56559512D01*
X107702215Y-56665196D01*
X107699815Y-56775583D01*
X107705402Y-56871811D01*
X107713622Y-56917852D01*
X107772735Y-57057748D01*
X107867141Y-57186953D01*
X107955708Y-57268336D01*
X108010955Y-57305791D01*
X108096889Y-57358557D01*
X108203258Y-57420573D01*
X108319811Y-57485775D01*
X108363733Y-57509639D01*
X108675072Y-57677333D01*
X109021436Y-57678763D01*
X109367800Y-57680192D01*
X109540982Y-57777726D01*
X109639331Y-57830036D01*
X109717956Y-57860609D01*
X109792405Y-57871491D01*
X109878223Y-57864729D01*
X109990957Y-57842369D01*
X110006073Y-57838954D01*
X110086620Y-57821804D01*
X110147916Y-57814263D01*
X110206301Y-57816948D01*
X110278116Y-57830474D01*
X110368540Y-57852630D01*
X110529508Y-57886091D01*
X110691183Y-57906709D01*
X110840701Y-57913574D01*
X110965197Y-57905777D01*
X111007254Y-57897831D01*
X111076861Y-57878304D01*
X111169327Y-57849119D01*
X111261254Y-57817772D01*
X111371207Y-57783980D01*
X111492803Y-57754537D01*
X111581305Y-57738657D01*
X111703004Y-57713412D01*
X111804628Y-57669936D01*
X111896669Y-57601237D01*
X111989617Y-57500323D01*
X112043248Y-57430830D01*
X112111637Y-57343177D01*
X112182989Y-57259495D01*
X112244333Y-57194822D01*
X112256982Y-57183031D01*
X112286092Y-57157338D01*
X112315134Y-57133086D01*
X112348883Y-57106988D01*
X112392114Y-57075755D01*
X112449604Y-57036100D01*
X112460865Y-57028541D01*
X111235788Y-57028541D01*
X111226335Y-57118329D01*
X111193995Y-57180923D01*
X111166924Y-57206559D01*
X111133152Y-57227741D01*
X111087455Y-57245351D01*
X111024606Y-57260272D01*
X110939380Y-57273386D01*
X110826550Y-57285575D01*
X110680891Y-57297720D01*
X110497176Y-57310704D01*
X110379164Y-57318448D01*
X110327112Y-57315592D01*
X110252214Y-57304631D01*
X110211639Y-57296698D01*
X110090757Y-57248520D01*
X109983373Y-57163514D01*
X109898724Y-57050838D01*
X109851376Y-56939558D01*
X109831405Y-56833488D01*
X109844628Y-56751289D01*
X109894502Y-56681498D01*
X109940868Y-56642715D01*
X109977874Y-56619842D01*
X110021172Y-56605802D01*
X110082200Y-56598806D01*
X110172400Y-56597065D01*
X110229505Y-56597572D01*
X110344540Y-56601952D01*
X110477065Y-56611496D01*
X110617166Y-56624992D01*
X110754927Y-56641226D01*
X110880435Y-56658985D01*
X110983775Y-56677054D01*
X111055033Y-56694222D01*
X111072829Y-56700789D01*
X111137046Y-56751712D01*
X111187824Y-56832080D01*
X111221845Y-56928741D01*
X111235788Y-57028541D01*
X112460865Y-57028541D01*
X112526127Y-56984736D01*
X112626461Y-56918374D01*
X112755379Y-56833728D01*
X112917659Y-56727509D01*
X112938399Y-56713944D01*
X113115690Y-56592033D01*
X113278210Y-56468711D01*
X113420478Y-56348808D01*
X113537013Y-56237152D01*
X113622333Y-56138573D01*
X113662788Y-56075648D01*
X113695477Y-55988763D01*
X113701073Y-55900761D01*
X113678265Y-55801614D01*
X113670462Y-55783738D01*
X112565891Y-55783738D01*
X112543051Y-55848303D01*
X112474742Y-55906609D01*
X112361285Y-55958428D01*
X112290876Y-55980931D01*
X112207619Y-56005135D01*
X112095221Y-56038179D01*
X111968770Y-56075612D01*
X111850072Y-56110975D01*
X111535580Y-56199538D01*
X111258283Y-56266100D01*
X111019366Y-56310390D01*
X110903345Y-56325307D01*
X110777083Y-56335238D01*
X110624444Y-56342298D01*
X110456521Y-56346456D01*
X110284403Y-56347685D01*
X110119182Y-56345955D01*
X109971949Y-56341239D01*
X109853794Y-56333507D01*
X109806527Y-56328144D01*
X109646804Y-56300371D01*
X109472081Y-56261120D01*
X109291048Y-56213169D01*
X109112392Y-56159295D01*
X108944804Y-56102275D01*
X108796972Y-56044885D01*
X108677587Y-55989902D01*
X108597577Y-55941793D01*
X108515066Y-55856163D01*
X108470253Y-55748531D01*
X108461657Y-55614915D01*
X108464237Y-55583921D01*
X108500991Y-55421740D01*
X108575613Y-55283974D01*
X108689516Y-55168770D01*
X108844115Y-55074275D01*
X108858290Y-55067552D01*
X108947777Y-55030313D01*
X109018252Y-55015577D01*
X109089756Y-55021199D01*
X109151358Y-55036154D01*
X109246534Y-55078598D01*
X109314076Y-55140359D01*
X109350710Y-55212995D01*
X109353161Y-55288065D01*
X109318154Y-55357128D01*
X109286982Y-55385742D01*
X109232614Y-55440942D01*
X109221327Y-55491410D01*
X109253282Y-55532701D01*
X109281209Y-55546866D01*
X109325258Y-55559318D01*
X109405463Y-55577341D01*
X109512414Y-55598995D01*
X109636700Y-55622340D01*
X109714163Y-55636090D01*
X109855893Y-55661911D01*
X109996987Y-55689752D01*
X110124328Y-55716882D01*
X110224801Y-55740570D01*
X110256336Y-55748978D01*
X110370501Y-55778451D01*
X110466752Y-55794319D01*
X110553642Y-55794421D01*
X110639722Y-55776598D01*
X110733546Y-55738687D01*
X110843667Y-55678530D01*
X110978638Y-55593966D01*
X111046836Y-55549303D01*
X111256073Y-55421387D01*
X111445910Y-55327896D01*
X111624014Y-55265838D01*
X111798052Y-55232220D01*
X111876200Y-55225620D01*
X111994554Y-55223545D01*
X112094356Y-55229780D01*
X112156916Y-55241934D01*
X112234458Y-55284713D01*
X112318896Y-55358742D01*
X112402084Y-55453229D01*
X112475875Y-55557380D01*
X112532122Y-55660403D01*
X112562678Y-55751504D01*
X112565891Y-55783738D01*
X113670462Y-55783738D01*
X113625744Y-55681295D01*
X113606437Y-55644137D01*
X113444019Y-55386496D01*
X113248186Y-55158479D01*
X113022395Y-54963523D01*
X112770100Y-54805064D01*
X112754416Y-54796906D01*
X112509897Y-54684422D01*
X112257897Y-54593010D01*
X112009031Y-54525637D01*
X111773909Y-54485271D01*
X111601176Y-54474412D01*
X111543975Y-54474736D01*
X111495440Y-54477910D01*
X111448282Y-54486587D01*
X111395210Y-54503425D01*
X111328937Y-54531079D01*
X111242171Y-54572205D01*
X111127624Y-54629458D01*
X111005919Y-54691288D01*
X110838345Y-54775811D01*
X110704292Y-54839575D01*
X110596313Y-54883142D01*
X110506965Y-54907075D01*
X110428802Y-54911938D01*
X110354380Y-54898294D01*
X110276255Y-54866705D01*
X110186981Y-54817736D01*
X110092726Y-54760367D01*
X109875874Y-54627832D01*
X109692256Y-54519373D01*
X109537109Y-54432816D01*
X109405667Y-54365993D01*
X109293165Y-54316732D01*
X109194840Y-54282863D01*
X109105925Y-54262214D01*
X109021658Y-54252616D01*
X108975254Y-54251259D01*
X108854099Y-54257077D01*
D11*
G36*
X158606826Y-60923115D02*
X158825212Y-61013573D01*
X159021758Y-61144901D01*
X159188899Y-61312042D01*
X159320227Y-61508588D01*
X159410685Y-61726974D01*
X159456800Y-61958809D01*
X159456800Y-62195191D01*
X159410685Y-62427026D01*
X159320227Y-62645412D01*
X159188899Y-62841958D01*
X159021758Y-63009099D01*
X158825212Y-63140427D01*
X158606826Y-63230885D01*
X158374991Y-63277000D01*
X158138609Y-63277000D01*
X157906774Y-63230885D01*
X157688388Y-63140427D01*
X157491842Y-63009099D01*
X157324701Y-62841958D01*
X157193373Y-62645412D01*
X157102915Y-62427026D01*
X157056800Y-62195191D01*
X157056800Y-61958809D01*
X157102915Y-61726974D01*
X157193373Y-61508588D01*
X157324701Y-61312042D01*
X157491842Y-61144901D01*
X157688388Y-61013573D01*
X157906774Y-60923115D01*
X158138609Y-60877000D01*
X158374991Y-60877000D01*
X158606826Y-60923115D01*
X158606826Y-60923115D01*
G37*
G36*
X63606826Y-60923115D02*
X63825212Y-61013573D01*
X64021758Y-61144901D01*
X64188899Y-61312042D01*
X64320227Y-61508588D01*
X64410685Y-61726974D01*
X64456800Y-61958809D01*
X64456800Y-62195191D01*
X64410685Y-62427026D01*
X64320227Y-62645412D01*
X64188899Y-62841958D01*
X64021758Y-63009099D01*
X63825212Y-63140427D01*
X63606826Y-63230885D01*
X63374991Y-63277000D01*
X63138609Y-63277000D01*
X62906774Y-63230885D01*
X62688388Y-63140427D01*
X62491842Y-63009099D01*
X62324701Y-62841958D01*
X62193373Y-62645412D01*
X62102915Y-62427026D01*
X62056800Y-62195191D01*
X62056800Y-61958809D01*
X62102915Y-61726974D01*
X62193373Y-61508588D01*
X62324701Y-61312042D01*
X62491842Y-61144901D01*
X62688388Y-61013573D01*
X62906774Y-60923115D01*
X63138609Y-60877000D01*
X63374991Y-60877000D01*
X63606826Y-60923115D01*
X63606826Y-60923115D01*
G37*
G36*
X80956350Y-61080070D02*
X80987914Y-61089645D01*
X81017003Y-61105193D01*
X81047274Y-61130037D01*
X81100297Y-61183060D01*
X81100303Y-61183065D01*
X81754377Y-61837139D01*
X81754382Y-61837145D01*
X81807405Y-61890168D01*
X81832249Y-61920439D01*
X81847797Y-61949528D01*
X81857372Y-61981092D01*
X81860604Y-62013916D01*
X81857372Y-62046740D01*
X81847797Y-62078304D01*
X81832249Y-62107393D01*
X81807405Y-62137664D01*
X81754382Y-62190687D01*
X81754377Y-62190693D01*
X80870493Y-63074577D01*
X80870487Y-63074582D01*
X80817464Y-63127605D01*
X80787193Y-63152449D01*
X80758104Y-63167997D01*
X80726540Y-63177572D01*
X80693716Y-63180804D01*
X80660892Y-63177572D01*
X80629328Y-63167997D01*
X80600239Y-63152449D01*
X80569968Y-63127605D01*
X80516945Y-63074582D01*
X80516939Y-63074577D01*
X79862865Y-62420503D01*
X79862860Y-62420497D01*
X79809837Y-62367474D01*
X79784993Y-62337203D01*
X79769445Y-62308114D01*
X79759870Y-62276550D01*
X79756638Y-62243726D01*
X79759870Y-62210902D01*
X79769445Y-62179338D01*
X79784993Y-62150249D01*
X79809837Y-62119978D01*
X79862860Y-62066955D01*
X79862865Y-62066949D01*
X80746749Y-61183065D01*
X80746755Y-61183060D01*
X80799778Y-61130037D01*
X80830049Y-61105193D01*
X80859138Y-61089645D01*
X80890702Y-61080070D01*
X80923526Y-61076838D01*
X80956350Y-61080070D01*
X80956350Y-61080070D01*
G37*
G36*
X91622898Y-61080070D02*
X91654462Y-61089645D01*
X91683551Y-61105193D01*
X91713822Y-61130037D01*
X91766845Y-61183060D01*
X91766851Y-61183065D01*
X92650735Y-62066949D01*
X92650740Y-62066955D01*
X92703763Y-62119978D01*
X92728607Y-62150249D01*
X92744155Y-62179338D01*
X92753730Y-62210902D01*
X92756962Y-62243726D01*
X92753730Y-62276550D01*
X92744155Y-62308114D01*
X92728607Y-62337203D01*
X92703763Y-62367474D01*
X92650740Y-62420497D01*
X92650735Y-62420503D01*
X91996661Y-63074577D01*
X91996655Y-63074582D01*
X91943632Y-63127605D01*
X91913361Y-63152449D01*
X91884272Y-63167997D01*
X91852708Y-63177572D01*
X91819884Y-63180804D01*
X91787060Y-63177572D01*
X91755496Y-63167997D01*
X91726407Y-63152449D01*
X91696136Y-63127605D01*
X91643113Y-63074582D01*
X91643107Y-63074577D01*
X90759223Y-62190693D01*
X90759218Y-62190687D01*
X90706195Y-62137664D01*
X90681351Y-62107393D01*
X90665803Y-62078304D01*
X90656228Y-62046740D01*
X90652996Y-62013916D01*
X90656228Y-61981092D01*
X90665803Y-61949528D01*
X90681351Y-61920439D01*
X90706195Y-61890168D01*
X90759218Y-61837145D01*
X90759223Y-61837139D01*
X91413297Y-61183065D01*
X91413303Y-61183060D01*
X91466326Y-61130037D01*
X91496597Y-61105193D01*
X91525686Y-61089645D01*
X91557250Y-61080070D01*
X91590074Y-61076838D01*
X91622898Y-61080070D01*
X91622898Y-61080070D01*
G37*
G36*
X100156800Y-63177000D02*
X99506800Y-63177000D01*
X99506800Y-62127000D01*
X100156800Y-62127000D01*
X100156800Y-63177000D01*
X100156800Y-63177000D01*
G37*
G36*
X98006800Y-63177000D02*
X97356800Y-63177000D01*
X97356800Y-62127000D01*
X98006800Y-62127000D01*
X98006800Y-63177000D01*
X98006800Y-63177000D01*
G37*
G36*
X85779503Y-61100060D02*
X84718842Y-62160721D01*
X84329933Y-61771812D01*
X85390594Y-60711151D01*
X85779503Y-61100060D01*
X85779503Y-61100060D01*
G37*
G36*
X88183667Y-61771812D02*
X87794758Y-62160721D01*
X86734097Y-61100060D01*
X87123006Y-60711151D01*
X88183667Y-61771812D01*
X88183667Y-61771812D01*
G37*
G36*
X85213818Y-60534374D02*
X84153157Y-61595035D01*
X83198563Y-60640441D01*
X84259224Y-59579780D01*
X85213818Y-60534374D01*
X85213818Y-60534374D01*
G37*
G36*
X89315037Y-60640441D02*
X88360443Y-61595035D01*
X87299782Y-60534374D01*
X88254376Y-59579780D01*
X89315037Y-60640441D01*
X89315037Y-60640441D01*
G37*
G36*
X93726540Y-58976428D02*
X93758104Y-58986003D01*
X93787193Y-59001551D01*
X93817464Y-59026395D01*
X93870487Y-59079418D01*
X93870493Y-59079423D01*
X94754377Y-59963307D01*
X94754382Y-59963313D01*
X94807405Y-60016336D01*
X94832249Y-60046607D01*
X94847797Y-60075696D01*
X94857372Y-60107260D01*
X94860604Y-60140084D01*
X94857372Y-60172908D01*
X94847797Y-60204472D01*
X94832249Y-60233561D01*
X94807405Y-60263832D01*
X94754382Y-60316855D01*
X94754377Y-60316861D01*
X94100303Y-60970935D01*
X94100297Y-60970940D01*
X94047274Y-61023963D01*
X94017003Y-61048807D01*
X93987914Y-61064355D01*
X93956350Y-61073930D01*
X93923526Y-61077162D01*
X93890702Y-61073930D01*
X93859138Y-61064355D01*
X93830049Y-61048807D01*
X93799778Y-61023963D01*
X93746755Y-60970940D01*
X93746749Y-60970935D01*
X92862865Y-60087051D01*
X92862860Y-60087045D01*
X92809837Y-60034022D01*
X92784993Y-60003751D01*
X92769445Y-59974662D01*
X92759870Y-59943098D01*
X92756638Y-59910274D01*
X92759870Y-59877450D01*
X92769445Y-59845886D01*
X92784993Y-59816797D01*
X92809837Y-59786526D01*
X92862860Y-59733503D01*
X92862865Y-59733497D01*
X93516939Y-59079423D01*
X93516945Y-59079418D01*
X93569968Y-59026395D01*
X93600239Y-59001551D01*
X93629328Y-58986003D01*
X93660892Y-58976428D01*
X93693716Y-58973196D01*
X93726540Y-58976428D01*
X93726540Y-58976428D01*
G37*
G36*
X78852708Y-58976428D02*
X78884272Y-58986003D01*
X78913361Y-59001551D01*
X78943632Y-59026395D01*
X78996655Y-59079418D01*
X78996661Y-59079423D01*
X79650735Y-59733497D01*
X79650740Y-59733503D01*
X79703763Y-59786526D01*
X79728607Y-59816797D01*
X79744155Y-59845886D01*
X79753730Y-59877450D01*
X79756962Y-59910274D01*
X79753730Y-59943098D01*
X79744155Y-59974662D01*
X79728607Y-60003751D01*
X79703763Y-60034022D01*
X79650740Y-60087045D01*
X79650735Y-60087051D01*
X78766851Y-60970935D01*
X78766845Y-60970940D01*
X78713822Y-61023963D01*
X78683551Y-61048807D01*
X78654462Y-61064355D01*
X78622898Y-61073930D01*
X78590074Y-61077162D01*
X78557250Y-61073930D01*
X78525686Y-61064355D01*
X78496597Y-61048807D01*
X78466326Y-61023963D01*
X78413303Y-60970940D01*
X78413297Y-60970935D01*
X77759223Y-60316861D01*
X77759218Y-60316855D01*
X77706195Y-60263832D01*
X77681351Y-60233561D01*
X77665803Y-60204472D01*
X77656228Y-60172908D01*
X77652996Y-60140084D01*
X77656228Y-60107260D01*
X77665803Y-60075696D01*
X77681351Y-60046607D01*
X77706195Y-60016336D01*
X77759218Y-59963313D01*
X77759223Y-59963307D01*
X78643107Y-59079423D01*
X78643113Y-59079418D01*
X78696136Y-59026395D01*
X78726407Y-59001551D01*
X78755496Y-58986003D01*
X78787060Y-58976428D01*
X78819884Y-58973196D01*
X78852708Y-58976428D01*
X78852708Y-58976428D01*
G37*
G36*
X89880723Y-60074756D02*
X89491814Y-60463665D01*
X88431153Y-59403004D01*
X88820062Y-59014095D01*
X89880723Y-60074756D01*
X89880723Y-60074756D01*
G37*
G36*
X84082447Y-59403004D02*
X83021786Y-60463665D01*
X82632877Y-60074756D01*
X83693538Y-59014095D01*
X84082447Y-59403004D01*
X84082447Y-59403004D01*
G37*
G36*
X74495764Y-58855837D02*
X74527328Y-58865412D01*
X74556417Y-58880960D01*
X74581914Y-58901886D01*
X74602840Y-58927383D01*
X74618388Y-58956472D01*
X74627963Y-58988036D01*
X74631800Y-59026998D01*
X74631800Y-60102002D01*
X74627963Y-60140964D01*
X74618388Y-60172528D01*
X74602840Y-60201617D01*
X74581914Y-60227114D01*
X74556417Y-60248040D01*
X74527328Y-60263588D01*
X74495764Y-60273163D01*
X74456802Y-60277000D01*
X73056798Y-60277000D01*
X73017836Y-60273163D01*
X72986272Y-60263588D01*
X72957183Y-60248040D01*
X72931686Y-60227114D01*
X72910760Y-60201617D01*
X72895212Y-60172528D01*
X72885637Y-60140964D01*
X72881800Y-60102002D01*
X72881800Y-59026998D01*
X72885637Y-58988036D01*
X72895212Y-58956472D01*
X72910760Y-58927383D01*
X72931686Y-58901886D01*
X72957183Y-58880960D01*
X72986272Y-58865412D01*
X73017836Y-58855837D01*
X73056798Y-58852000D01*
X74456802Y-58852000D01*
X74495764Y-58855837D01*
X74495764Y-58855837D01*
G37*
G36*
X70495764Y-58855837D02*
X70527328Y-58865412D01*
X70556417Y-58880960D01*
X70581914Y-58901886D01*
X70602840Y-58927383D01*
X70618388Y-58956472D01*
X70627963Y-58988036D01*
X70631800Y-59026998D01*
X70631800Y-60102002D01*
X70627963Y-60140964D01*
X70618388Y-60172528D01*
X70602840Y-60201617D01*
X70581914Y-60227114D01*
X70556417Y-60248040D01*
X70527328Y-60263588D01*
X70495764Y-60273163D01*
X70456802Y-60277000D01*
X69056798Y-60277000D01*
X69017836Y-60273163D01*
X68986272Y-60263588D01*
X68957183Y-60248040D01*
X68931686Y-60227114D01*
X68910760Y-60201617D01*
X68895212Y-60172528D01*
X68885637Y-60140964D01*
X68881800Y-60102002D01*
X68881800Y-59026998D01*
X68885637Y-58988036D01*
X68895212Y-58956472D01*
X68910760Y-58927383D01*
X68931686Y-58901886D01*
X68957183Y-58880960D01*
X68986272Y-58865412D01*
X69017836Y-58855837D01*
X69056798Y-58852000D01*
X70456802Y-58852000D01*
X70495764Y-58855837D01*
X70495764Y-58855837D01*
G37*
G36*
X83516762Y-58837318D02*
X82456101Y-59897979D01*
X82067192Y-59509070D01*
X83127853Y-58448409D01*
X83516762Y-58837318D01*
X83516762Y-58837318D01*
G37*
G36*
X90446408Y-59509070D02*
X90057499Y-59897979D01*
X88996838Y-58837318D01*
X89385747Y-58448409D01*
X90446408Y-59509070D01*
X90446408Y-59509070D01*
G37*
G36*
X82951076Y-58271633D02*
X81890415Y-59332294D01*
X81501506Y-58943385D01*
X82562167Y-57882724D01*
X82951076Y-58271633D01*
X82951076Y-58271633D01*
G37*
G36*
X91012094Y-58943385D02*
X90623185Y-59332294D01*
X89562524Y-58271633D01*
X89951433Y-57882724D01*
X91012094Y-58943385D01*
X91012094Y-58943385D01*
G37*
G36*
X100156800Y-59027000D02*
X99506800Y-59027000D01*
X99506800Y-57977000D01*
X100156800Y-57977000D01*
X100156800Y-59027000D01*
X100156800Y-59027000D01*
G37*
G36*
X98006800Y-59027000D02*
X97356800Y-59027000D01*
X97356800Y-57977000D01*
X98006800Y-57977000D01*
X98006800Y-59027000D01*
X98006800Y-59027000D01*
G37*
G36*
X82385391Y-57705947D02*
X81324730Y-58766608D01*
X80935821Y-58377699D01*
X81996482Y-57317038D01*
X82385391Y-57705947D01*
X82385391Y-57705947D01*
G37*
G36*
X91577779Y-58377699D02*
X91188870Y-58766608D01*
X90128209Y-57705947D01*
X90517118Y-57317038D01*
X91577779Y-58377699D01*
X91577779Y-58377699D01*
G37*
G36*
X63169300Y-58041393D02*
X63169901Y-58053632D01*
X63172203Y-58077000D01*
X63169901Y-58100368D01*
X63169300Y-58112607D01*
X63169300Y-58157003D01*
X63161098Y-58189743D01*
X63160618Y-58194621D01*
X63126310Y-58307721D01*
X63070596Y-58411955D01*
X62995617Y-58503317D01*
X62904255Y-58578296D01*
X62800021Y-58634010D01*
X62686921Y-58668318D01*
X62598774Y-58677000D01*
X61839826Y-58677000D01*
X61751679Y-58668318D01*
X61638579Y-58634010D01*
X61534345Y-58578296D01*
X61442983Y-58503317D01*
X61368004Y-58411955D01*
X61312290Y-58307721D01*
X61277982Y-58194621D01*
X61277501Y-58189742D01*
X61272721Y-58165712D01*
X61269300Y-58157454D01*
X61269300Y-58112607D01*
X61268699Y-58100368D01*
X61266397Y-58077000D01*
X61268699Y-58053632D01*
X61269300Y-58041393D01*
X61269300Y-56877000D01*
X63169300Y-56877000D01*
X63169300Y-58041393D01*
X63169300Y-58041393D01*
G37*
G36*
X92143465Y-57812014D02*
X91754556Y-58200923D01*
X90693895Y-57140262D01*
X91082804Y-56751353D01*
X92143465Y-57812014D01*
X92143465Y-57812014D01*
G37*
G36*
X81819705Y-57140262D02*
X80759044Y-58200923D01*
X80370135Y-57812014D01*
X81430796Y-56751353D01*
X81819705Y-57140262D01*
X81819705Y-57140262D01*
G37*
G36*
X65046734Y-56363144D02*
X65130775Y-56379861D01*
X65262716Y-56434513D01*
X65262717Y-56434514D01*
X65381464Y-56513858D01*
X65482442Y-56614836D01*
X65482444Y-56614839D01*
X65561787Y-56733584D01*
X65616439Y-56865525D01*
X65644300Y-57005594D01*
X65644300Y-57148406D01*
X65616439Y-57288475D01*
X65561787Y-57420416D01*
X65495254Y-57519990D01*
X65482442Y-57539164D01*
X65381464Y-57640142D01*
X65381461Y-57640144D01*
X65262716Y-57719487D01*
X65130775Y-57774139D01*
X65046734Y-57790856D01*
X64990708Y-57802000D01*
X64847892Y-57802000D01*
X64791866Y-57790856D01*
X64707825Y-57774139D01*
X64575884Y-57719487D01*
X64457139Y-57640144D01*
X64457136Y-57640142D01*
X64356158Y-57539164D01*
X64343346Y-57519990D01*
X64276813Y-57420416D01*
X64222161Y-57288475D01*
X64194300Y-57148406D01*
X64194300Y-57005594D01*
X64222161Y-56865525D01*
X64276813Y-56733584D01*
X64356156Y-56614839D01*
X64356158Y-56614836D01*
X64457136Y-56513858D01*
X64575883Y-56434514D01*
X64575884Y-56434513D01*
X64707825Y-56379861D01*
X64791866Y-56363144D01*
X64847892Y-56352000D01*
X64990708Y-56352000D01*
X65046734Y-56363144D01*
X65046734Y-56363144D01*
G37*
G36*
X93274835Y-56680643D02*
X92320241Y-57635237D01*
X91259580Y-56574576D01*
X92214174Y-55619982D01*
X93274835Y-56680643D01*
X93274835Y-56680643D01*
G37*
G36*
X81254020Y-56574576D02*
X80193359Y-57635237D01*
X79238765Y-56680643D01*
X80299426Y-55619982D01*
X81254020Y-56574576D01*
X81254020Y-56574576D01*
G37*
G36*
X74495764Y-55880837D02*
X74527328Y-55890412D01*
X74556417Y-55905960D01*
X74581914Y-55926886D01*
X74602840Y-55952383D01*
X74618388Y-55981472D01*
X74627963Y-56013036D01*
X74631800Y-56051998D01*
X74631800Y-57127002D01*
X74627963Y-57165964D01*
X74618388Y-57197528D01*
X74602840Y-57226617D01*
X74581914Y-57252114D01*
X74556417Y-57273040D01*
X74527328Y-57288588D01*
X74495764Y-57298163D01*
X74456802Y-57302000D01*
X73056798Y-57302000D01*
X73017836Y-57298163D01*
X72986272Y-57288588D01*
X72957183Y-57273040D01*
X72931686Y-57252114D01*
X72910760Y-57226617D01*
X72895212Y-57197528D01*
X72885637Y-57165964D01*
X72881800Y-57127002D01*
X72881800Y-56051998D01*
X72885637Y-56013036D01*
X72895212Y-55981472D01*
X72910760Y-55952383D01*
X72931686Y-55926886D01*
X72957183Y-55905960D01*
X72986272Y-55890412D01*
X73017836Y-55880837D01*
X73056798Y-55877000D01*
X74456802Y-55877000D01*
X74495764Y-55880837D01*
X74495764Y-55880837D01*
G37*
G36*
X70495764Y-55880837D02*
X70527328Y-55890412D01*
X70556417Y-55905960D01*
X70581914Y-55926886D01*
X70602840Y-55952383D01*
X70618388Y-55981472D01*
X70627963Y-56013036D01*
X70631800Y-56051998D01*
X70631800Y-57127002D01*
X70627963Y-57165964D01*
X70618388Y-57197528D01*
X70602840Y-57226617D01*
X70581914Y-57252114D01*
X70556417Y-57273040D01*
X70527328Y-57288588D01*
X70495764Y-57298163D01*
X70456802Y-57302000D01*
X69056798Y-57302000D01*
X69017836Y-57298163D01*
X68986272Y-57288588D01*
X68957183Y-57273040D01*
X68931686Y-57252114D01*
X68910760Y-57226617D01*
X68895212Y-57197528D01*
X68885637Y-57165964D01*
X68881800Y-57127002D01*
X68881800Y-56051998D01*
X68885637Y-56013036D01*
X68895212Y-55981472D01*
X68910760Y-55952383D01*
X68931686Y-55926886D01*
X68957183Y-55905960D01*
X68986272Y-55890412D01*
X69017836Y-55880837D01*
X69056798Y-55877000D01*
X70456802Y-55877000D01*
X70495764Y-55880837D01*
X70495764Y-55880837D01*
G37*
G36*
X80122649Y-55443206D02*
X79061988Y-56503867D01*
X78673079Y-56114958D01*
X79733740Y-55054297D01*
X80122649Y-55443206D01*
X80122649Y-55443206D01*
G37*
G36*
X93840521Y-56114958D02*
X93451612Y-56503867D01*
X92390951Y-55443206D01*
X92779860Y-55054297D01*
X93840521Y-56114958D01*
X93840521Y-56114958D01*
G37*
G36*
X63169300Y-56327000D02*
X61269300Y-56327000D01*
X61269300Y-54827000D01*
X63169300Y-54827000D01*
X63169300Y-56327000D01*
X63169300Y-56327000D01*
G37*
G36*
X65594300Y-56077000D02*
X64244300Y-56077000D01*
X64244300Y-53077000D01*
X65594300Y-53077000D01*
X65594300Y-56077000D01*
X65594300Y-56077000D01*
G37*
G36*
X63169300Y-54327000D02*
X61269300Y-54327000D01*
X61269300Y-52827000D01*
X63169300Y-52827000D01*
X63169300Y-54327000D01*
X63169300Y-54327000D01*
G37*
G36*
X80122649Y-53710794D02*
X79733740Y-54099703D01*
X78673079Y-53039042D01*
X79061988Y-52650133D01*
X80122649Y-53710794D01*
X80122649Y-53710794D01*
G37*
G36*
X93840521Y-53039042D02*
X92779860Y-54099703D01*
X92390951Y-53710794D01*
X93451612Y-52650133D01*
X93840521Y-53039042D01*
X93840521Y-53039042D01*
G37*
G36*
X97845764Y-52205837D02*
X97877328Y-52215412D01*
X97906417Y-52230960D01*
X97931914Y-52251886D01*
X97952840Y-52277383D01*
X97968388Y-52306472D01*
X97977963Y-52338036D01*
X97981800Y-52376998D01*
X97981800Y-53777002D01*
X97977963Y-53815964D01*
X97968388Y-53847528D01*
X97952840Y-53876617D01*
X97931914Y-53902114D01*
X97906417Y-53923040D01*
X97877328Y-53938588D01*
X97845764Y-53948163D01*
X97806802Y-53952000D01*
X96731798Y-53952000D01*
X96692836Y-53948163D01*
X96661272Y-53938588D01*
X96632183Y-53923040D01*
X96606686Y-53902114D01*
X96585760Y-53876617D01*
X96570212Y-53847528D01*
X96560637Y-53815964D01*
X96556800Y-53777002D01*
X96556800Y-52376998D01*
X96560637Y-52338036D01*
X96570212Y-52306472D01*
X96585760Y-52277383D01*
X96606686Y-52251886D01*
X96632183Y-52230960D01*
X96661272Y-52215412D01*
X96692836Y-52205837D01*
X96731798Y-52202000D01*
X97806802Y-52202000D01*
X97845764Y-52205837D01*
X97845764Y-52205837D01*
G37*
G36*
X100820764Y-52205837D02*
X100852328Y-52215412D01*
X100881417Y-52230960D01*
X100906914Y-52251886D01*
X100927840Y-52277383D01*
X100943388Y-52306472D01*
X100952963Y-52338036D01*
X100956800Y-52376998D01*
X100956800Y-53777002D01*
X100952963Y-53815964D01*
X100943388Y-53847528D01*
X100927840Y-53876617D01*
X100906914Y-53902114D01*
X100881417Y-53923040D01*
X100852328Y-53938588D01*
X100820764Y-53948163D01*
X100781802Y-53952000D01*
X99706798Y-53952000D01*
X99667836Y-53948163D01*
X99636272Y-53938588D01*
X99607183Y-53923040D01*
X99581686Y-53902114D01*
X99560760Y-53876617D01*
X99545212Y-53847528D01*
X99535637Y-53815964D01*
X99531800Y-53777002D01*
X99531800Y-52376998D01*
X99535637Y-52338036D01*
X99545212Y-52306472D01*
X99560760Y-52277383D01*
X99581686Y-52251886D01*
X99607183Y-52230960D01*
X99636272Y-52215412D01*
X99667836Y-52205837D01*
X99706798Y-52202000D01*
X100781802Y-52202000D01*
X100820764Y-52205837D01*
X100820764Y-52205837D01*
G37*
G36*
X73820764Y-52205837D02*
X73852328Y-52215412D01*
X73881417Y-52230960D01*
X73906914Y-52251886D01*
X73927840Y-52277383D01*
X73943388Y-52306472D01*
X73952963Y-52338036D01*
X73956800Y-52376998D01*
X73956800Y-53777002D01*
X73952963Y-53815964D01*
X73943388Y-53847528D01*
X73927840Y-53876617D01*
X73906914Y-53902114D01*
X73881417Y-53923040D01*
X73852328Y-53938588D01*
X73820764Y-53948163D01*
X73781802Y-53952000D01*
X72706798Y-53952000D01*
X72667836Y-53948163D01*
X72636272Y-53938588D01*
X72607183Y-53923040D01*
X72581686Y-53902114D01*
X72560760Y-53876617D01*
X72545212Y-53847528D01*
X72535637Y-53815964D01*
X72531800Y-53777002D01*
X72531800Y-52376998D01*
X72535637Y-52338036D01*
X72545212Y-52306472D01*
X72560760Y-52277383D01*
X72581686Y-52251886D01*
X72607183Y-52230960D01*
X72636272Y-52215412D01*
X72667836Y-52205837D01*
X72706798Y-52202000D01*
X73781802Y-52202000D01*
X73820764Y-52205837D01*
X73820764Y-52205837D01*
G37*
G36*
X70845764Y-52205837D02*
X70877328Y-52215412D01*
X70906417Y-52230960D01*
X70931914Y-52251886D01*
X70952840Y-52277383D01*
X70968388Y-52306472D01*
X70977963Y-52338036D01*
X70981800Y-52376998D01*
X70981800Y-53777002D01*
X70977963Y-53815964D01*
X70968388Y-53847528D01*
X70952840Y-53876617D01*
X70931914Y-53902114D01*
X70906417Y-53923040D01*
X70877328Y-53938588D01*
X70845764Y-53948163D01*
X70806802Y-53952000D01*
X69731798Y-53952000D01*
X69692836Y-53948163D01*
X69661272Y-53938588D01*
X69632183Y-53923040D01*
X69606686Y-53902114D01*
X69585760Y-53876617D01*
X69570212Y-53847528D01*
X69560637Y-53815964D01*
X69556800Y-53777002D01*
X69556800Y-52376998D01*
X69560637Y-52338036D01*
X69570212Y-52306472D01*
X69585760Y-52277383D01*
X69606686Y-52251886D01*
X69632183Y-52230960D01*
X69661272Y-52215412D01*
X69692836Y-52205837D01*
X69731798Y-52202000D01*
X70806802Y-52202000D01*
X70845764Y-52205837D01*
X70845764Y-52205837D01*
G37*
G36*
X81254020Y-52579424D02*
X80299426Y-53534018D01*
X79238765Y-52473357D01*
X80193359Y-51518763D01*
X81254020Y-52579424D01*
X81254020Y-52579424D01*
G37*
G36*
X93274835Y-52473357D02*
X92214174Y-53534018D01*
X91259580Y-52579424D01*
X92320241Y-51518763D01*
X93274835Y-52473357D01*
X93274835Y-52473357D01*
G37*
G36*
X65046734Y-51363144D02*
X65130775Y-51379861D01*
X65262716Y-51434513D01*
X65262717Y-51434514D01*
X65381464Y-51513858D01*
X65482442Y-51614836D01*
X65482444Y-51614839D01*
X65561787Y-51733584D01*
X65616439Y-51865525D01*
X65644300Y-52005594D01*
X65644300Y-52148406D01*
X65616439Y-52288475D01*
X65561787Y-52420416D01*
X65561786Y-52420417D01*
X65482442Y-52539164D01*
X65381464Y-52640142D01*
X65381461Y-52640144D01*
X65262716Y-52719487D01*
X65130775Y-52774139D01*
X65046734Y-52790856D01*
X64990708Y-52802000D01*
X64847892Y-52802000D01*
X64791866Y-52790856D01*
X64707825Y-52774139D01*
X64575884Y-52719487D01*
X64457139Y-52640144D01*
X64457136Y-52640142D01*
X64356158Y-52539164D01*
X64276814Y-52420417D01*
X64276813Y-52420416D01*
X64222161Y-52288475D01*
X64194300Y-52148406D01*
X64194300Y-52005594D01*
X64222161Y-51865525D01*
X64276813Y-51733584D01*
X64356156Y-51614839D01*
X64356158Y-51614836D01*
X64457136Y-51513858D01*
X64575883Y-51434514D01*
X64575884Y-51434513D01*
X64707825Y-51379861D01*
X64791866Y-51363144D01*
X64847892Y-51352000D01*
X64990708Y-51352000D01*
X65046734Y-51363144D01*
X65046734Y-51363144D01*
G37*
G36*
X92143465Y-51341986D02*
X91082804Y-52402647D01*
X90693895Y-52013738D01*
X91754556Y-50953077D01*
X92143465Y-51341986D01*
X92143465Y-51341986D01*
G37*
G36*
X81819705Y-52013738D02*
X81430796Y-52402647D01*
X80370135Y-51341986D01*
X80759044Y-50953077D01*
X81819705Y-52013738D01*
X81819705Y-52013738D01*
G37*
G36*
X62686921Y-50485682D02*
X62800021Y-50519990D01*
X62904255Y-50575704D01*
X62995617Y-50650683D01*
X63070596Y-50742045D01*
X63126310Y-50846279D01*
X63160618Y-50959379D01*
X63160618Y-50959381D01*
X63161098Y-50964255D01*
X63165879Y-50988288D01*
X63169300Y-50996546D01*
X63169300Y-51041393D01*
X63169901Y-51053632D01*
X63172203Y-51077000D01*
X63169901Y-51100368D01*
X63169300Y-51112607D01*
X63169300Y-52277000D01*
X61269300Y-52277000D01*
X61269300Y-51112607D01*
X61268699Y-51100368D01*
X61266397Y-51077000D01*
X61268699Y-51053632D01*
X61269300Y-51041393D01*
X61269300Y-50996997D01*
X61277502Y-50964255D01*
X61277982Y-50959381D01*
X61277982Y-50959379D01*
X61312290Y-50846279D01*
X61368004Y-50742045D01*
X61442983Y-50650683D01*
X61534345Y-50575704D01*
X61638579Y-50519990D01*
X61751679Y-50485682D01*
X61839826Y-50477000D01*
X62598774Y-50477000D01*
X62686921Y-50485682D01*
X62686921Y-50485682D01*
G37*
G36*
X82385391Y-51448053D02*
X81996482Y-51836962D01*
X80935821Y-50776301D01*
X81324730Y-50387392D01*
X82385391Y-51448053D01*
X82385391Y-51448053D01*
G37*
G36*
X91577779Y-50776301D02*
X90517118Y-51836962D01*
X90128209Y-51448053D01*
X91188870Y-50387392D01*
X91577779Y-50776301D01*
X91577779Y-50776301D01*
G37*
G36*
X82951076Y-50882367D02*
X82562167Y-51271276D01*
X81501506Y-50210615D01*
X81890415Y-49821706D01*
X82951076Y-50882367D01*
X82951076Y-50882367D01*
G37*
G36*
X91012094Y-50210615D02*
X89951433Y-51271276D01*
X89562524Y-50882367D01*
X90623185Y-49821706D01*
X91012094Y-50210615D01*
X91012094Y-50210615D01*
G37*
G36*
X100806800Y-51077000D02*
X99006800Y-51077000D01*
X99006800Y-48977000D01*
X100806800Y-48977000D01*
X100806800Y-51077000D01*
X100806800Y-51077000D01*
G37*
G36*
X98506800Y-51077000D02*
X96706800Y-51077000D01*
X96706800Y-48977000D01*
X98506800Y-48977000D01*
X98506800Y-51077000D01*
X98506800Y-51077000D01*
G37*
G36*
X95495764Y-49355837D02*
X95527328Y-49365412D01*
X95556417Y-49380960D01*
X95581914Y-49401886D01*
X95602840Y-49427383D01*
X95618388Y-49456472D01*
X95627963Y-49488036D01*
X95631800Y-49526998D01*
X95631800Y-50602002D01*
X95627963Y-50640964D01*
X95618388Y-50672528D01*
X95602840Y-50701617D01*
X95581914Y-50727114D01*
X95556417Y-50748040D01*
X95527328Y-50763588D01*
X95495764Y-50773163D01*
X95456802Y-50777000D01*
X94056798Y-50777000D01*
X94017836Y-50773163D01*
X93986272Y-50763588D01*
X93957183Y-50748040D01*
X93931686Y-50727114D01*
X93910760Y-50701617D01*
X93895212Y-50672528D01*
X93885637Y-50640964D01*
X93881800Y-50602002D01*
X93881800Y-49526998D01*
X93885637Y-49488036D01*
X93895212Y-49456472D01*
X93910760Y-49427383D01*
X93931686Y-49401886D01*
X93957183Y-49380960D01*
X93986272Y-49365412D01*
X94017836Y-49355837D01*
X94056798Y-49352000D01*
X95456802Y-49352000D01*
X95495764Y-49355837D01*
X95495764Y-49355837D01*
G37*
G36*
X90446408Y-49644930D02*
X89385747Y-50705591D01*
X88996838Y-50316682D01*
X90057499Y-49256021D01*
X90446408Y-49644930D01*
X90446408Y-49644930D01*
G37*
G36*
X83516762Y-50316682D02*
X83127853Y-50705591D01*
X82067192Y-49644930D01*
X82456101Y-49256021D01*
X83516762Y-50316682D01*
X83516762Y-50316682D01*
G37*
G36*
X70845764Y-48705837D02*
X70877328Y-48715412D01*
X70906417Y-48730960D01*
X70931914Y-48751886D01*
X70952840Y-48777383D01*
X70968388Y-48806472D01*
X70977963Y-48838036D01*
X70981800Y-48876998D01*
X70981800Y-50277002D01*
X70977963Y-50315964D01*
X70968388Y-50347528D01*
X70952840Y-50376617D01*
X70931914Y-50402114D01*
X70906417Y-50423040D01*
X70877328Y-50438588D01*
X70845764Y-50448163D01*
X70806802Y-50452000D01*
X69731798Y-50452000D01*
X69692836Y-50448163D01*
X69661272Y-50438588D01*
X69632183Y-50423040D01*
X69606686Y-50402114D01*
X69585760Y-50376617D01*
X69570212Y-50347528D01*
X69560637Y-50315964D01*
X69556800Y-50277002D01*
X69556800Y-48876998D01*
X69560637Y-48838036D01*
X69570212Y-48806472D01*
X69585760Y-48777383D01*
X69606686Y-48751886D01*
X69632183Y-48730960D01*
X69661272Y-48715412D01*
X69692836Y-48705837D01*
X69731798Y-48702000D01*
X70806802Y-48702000D01*
X70845764Y-48705837D01*
X70845764Y-48705837D01*
G37*
G36*
X73820764Y-48705837D02*
X73852328Y-48715412D01*
X73881417Y-48730960D01*
X73906914Y-48751886D01*
X73927840Y-48777383D01*
X73943388Y-48806472D01*
X73952963Y-48838036D01*
X73956800Y-48876998D01*
X73956800Y-50277002D01*
X73952963Y-50315964D01*
X73943388Y-50347528D01*
X73927840Y-50376617D01*
X73906914Y-50402114D01*
X73881417Y-50423040D01*
X73852328Y-50438588D01*
X73820764Y-50448163D01*
X73781802Y-50452000D01*
X72706798Y-50452000D01*
X72667836Y-50448163D01*
X72636272Y-50438588D01*
X72607183Y-50423040D01*
X72581686Y-50402114D01*
X72560760Y-50376617D01*
X72545212Y-50347528D01*
X72535637Y-50315964D01*
X72531800Y-50277002D01*
X72531800Y-48876998D01*
X72535637Y-48838036D01*
X72545212Y-48806472D01*
X72560760Y-48777383D01*
X72581686Y-48751886D01*
X72607183Y-48730960D01*
X72636272Y-48715412D01*
X72667836Y-48705837D01*
X72706798Y-48702000D01*
X73781802Y-48702000D01*
X73820764Y-48705837D01*
X73820764Y-48705837D01*
G37*
G36*
X78622898Y-48080070D02*
X78654462Y-48089645D01*
X78683551Y-48105193D01*
X78713822Y-48130037D01*
X78766845Y-48183060D01*
X78766851Y-48183065D01*
X79650735Y-49066949D01*
X79650740Y-49066955D01*
X79703763Y-49119978D01*
X79728607Y-49150249D01*
X79744155Y-49179338D01*
X79753730Y-49210902D01*
X79756962Y-49243726D01*
X79753730Y-49276550D01*
X79744155Y-49308114D01*
X79728607Y-49337203D01*
X79703763Y-49367474D01*
X79650740Y-49420497D01*
X79650735Y-49420503D01*
X78996661Y-50074577D01*
X78996655Y-50074582D01*
X78943632Y-50127605D01*
X78913361Y-50152449D01*
X78884272Y-50167997D01*
X78852708Y-50177572D01*
X78819884Y-50180804D01*
X78787060Y-50177572D01*
X78755496Y-50167997D01*
X78726407Y-50152449D01*
X78696136Y-50127605D01*
X78643113Y-50074582D01*
X78643107Y-50074577D01*
X77759223Y-49190693D01*
X77759218Y-49190687D01*
X77706195Y-49137664D01*
X77681351Y-49107393D01*
X77665803Y-49078304D01*
X77656228Y-49046740D01*
X77652996Y-49013916D01*
X77656228Y-48981092D01*
X77665803Y-48949528D01*
X77681351Y-48920439D01*
X77706195Y-48890168D01*
X77759218Y-48837145D01*
X77759223Y-48837139D01*
X78413297Y-48183065D01*
X78413303Y-48183060D01*
X78466326Y-48130037D01*
X78496597Y-48105193D01*
X78525686Y-48089645D01*
X78557250Y-48080070D01*
X78590074Y-48076838D01*
X78622898Y-48080070D01*
X78622898Y-48080070D01*
G37*
G36*
X89880723Y-49079244D02*
X88820062Y-50139905D01*
X88431153Y-49750996D01*
X89491814Y-48690335D01*
X89880723Y-49079244D01*
X89880723Y-49079244D01*
G37*
G36*
X84082447Y-49750996D02*
X83693538Y-50139905D01*
X82632877Y-49079244D01*
X83021786Y-48690335D01*
X84082447Y-49750996D01*
X84082447Y-49750996D01*
G37*
G36*
X85213818Y-48619626D02*
X84259224Y-49574220D01*
X83198563Y-48513559D01*
X84153157Y-47558965D01*
X85213818Y-48619626D01*
X85213818Y-48619626D01*
G37*
G36*
X89315037Y-48513559D02*
X88254376Y-49574220D01*
X87299782Y-48619626D01*
X88360443Y-47558965D01*
X89315037Y-48513559D01*
X89315037Y-48513559D01*
G37*
G36*
X85779503Y-48053940D02*
X85390594Y-48442849D01*
X84329933Y-47382188D01*
X84718842Y-46993279D01*
X85779503Y-48053940D01*
X85779503Y-48053940D01*
G37*
G36*
X88183667Y-47382188D02*
X87123006Y-48442849D01*
X86734097Y-48053940D01*
X87794758Y-46993279D01*
X88183667Y-47382188D01*
X88183667Y-47382188D01*
G37*
G36*
X158606826Y-45923115D02*
X158825212Y-46013573D01*
X159021758Y-46144901D01*
X159188899Y-46312042D01*
X159320227Y-46508588D01*
X159410685Y-46726974D01*
X159456800Y-46958809D01*
X159456800Y-47195191D01*
X159410685Y-47427026D01*
X159320227Y-47645412D01*
X159188899Y-47841958D01*
X159021758Y-48009099D01*
X158825212Y-48140427D01*
X158606826Y-48230885D01*
X158374991Y-48277000D01*
X158138609Y-48277000D01*
X157906774Y-48230885D01*
X157688388Y-48140427D01*
X157491842Y-48009099D01*
X157324701Y-47841958D01*
X157193373Y-47645412D01*
X157102915Y-47427026D01*
X157056800Y-47195191D01*
X157056800Y-46958809D01*
X157102915Y-46726974D01*
X157193373Y-46508588D01*
X157324701Y-46312042D01*
X157491842Y-46144901D01*
X157688388Y-46013573D01*
X157906774Y-45923115D01*
X158138609Y-45877000D01*
X158374991Y-45877000D01*
X158606826Y-45923115D01*
X158606826Y-45923115D01*
G37*
G36*
X63606826Y-45923115D02*
X63825212Y-46013573D01*
X64021758Y-46144901D01*
X64188899Y-46312042D01*
X64320227Y-46508588D01*
X64410685Y-46726974D01*
X64456800Y-46958809D01*
X64456800Y-47195191D01*
X64410685Y-47427026D01*
X64320227Y-47645412D01*
X64188899Y-47841958D01*
X64021758Y-48009099D01*
X63825212Y-48140427D01*
X63606826Y-48230885D01*
X63374991Y-48277000D01*
X63138609Y-48277000D01*
X62906774Y-48230885D01*
X62688388Y-48140427D01*
X62491842Y-48009099D01*
X62324701Y-47841958D01*
X62193373Y-47645412D01*
X62102915Y-47427026D01*
X62056800Y-47195191D01*
X62056800Y-46958809D01*
X62102915Y-46726974D01*
X62193373Y-46508588D01*
X62324701Y-46312042D01*
X62491842Y-46144901D01*
X62688388Y-46013573D01*
X62906774Y-45923115D01*
X63138609Y-45877000D01*
X63374991Y-45877000D01*
X63606826Y-45923115D01*
X63606826Y-45923115D01*
G37*
G36*
X100806800Y-48177000D02*
X99006800Y-48177000D01*
X99006800Y-46077000D01*
X100806800Y-46077000D01*
X100806800Y-48177000D01*
X100806800Y-48177000D01*
G37*
G36*
X98506800Y-48177000D02*
X96706800Y-48177000D01*
X96706800Y-46077000D01*
X98506800Y-46077000D01*
X98506800Y-48177000D01*
X98506800Y-48177000D01*
G37*
G36*
X80726540Y-45976428D02*
X80758104Y-45986003D01*
X80787193Y-46001551D01*
X80817464Y-46026395D01*
X80870487Y-46079418D01*
X80870493Y-46079423D01*
X81754377Y-46963307D01*
X81754382Y-46963313D01*
X81807405Y-47016336D01*
X81832249Y-47046607D01*
X81847797Y-47075696D01*
X81857372Y-47107260D01*
X81860604Y-47140084D01*
X81857372Y-47172908D01*
X81847797Y-47204472D01*
X81832249Y-47233561D01*
X81807405Y-47263832D01*
X81754382Y-47316855D01*
X81754377Y-47316861D01*
X81100303Y-47970935D01*
X81100297Y-47970940D01*
X81047274Y-48023963D01*
X81017003Y-48048807D01*
X80987914Y-48064355D01*
X80956350Y-48073930D01*
X80923526Y-48077162D01*
X80890702Y-48073930D01*
X80859138Y-48064355D01*
X80830049Y-48048807D01*
X80799778Y-48023963D01*
X80746755Y-47970940D01*
X80746749Y-47970935D01*
X79862865Y-47087051D01*
X79862860Y-47087045D01*
X79809837Y-47034022D01*
X79784993Y-47003751D01*
X79769445Y-46974662D01*
X79759870Y-46943098D01*
X79756638Y-46910274D01*
X79759870Y-46877450D01*
X79769445Y-46845886D01*
X79784993Y-46816797D01*
X79809837Y-46786526D01*
X79862860Y-46733503D01*
X79862865Y-46733497D01*
X80516939Y-46079423D01*
X80516945Y-46079418D01*
X80569968Y-46026395D01*
X80600239Y-46001551D01*
X80629328Y-45986003D01*
X80660892Y-45976428D01*
X80693716Y-45973196D01*
X80726540Y-45976428D01*
X80726540Y-45976428D01*
G37*
G36*
X95495764Y-46380837D02*
X95527328Y-46390412D01*
X95556417Y-46405960D01*
X95581914Y-46426886D01*
X95602840Y-46452383D01*
X95618388Y-46481472D01*
X95627963Y-46513036D01*
X95631800Y-46551998D01*
X95631800Y-47627002D01*
X95627963Y-47665964D01*
X95618388Y-47697528D01*
X95602840Y-47726617D01*
X95581914Y-47752114D01*
X95556417Y-47773040D01*
X95527328Y-47788588D01*
X95495764Y-47798163D01*
X95456802Y-47802000D01*
X94056798Y-47802000D01*
X94017836Y-47798163D01*
X93986272Y-47788588D01*
X93957183Y-47773040D01*
X93931686Y-47752114D01*
X93910760Y-47726617D01*
X93895212Y-47697528D01*
X93885637Y-47665964D01*
X93881800Y-47627002D01*
X93881800Y-46551998D01*
X93885637Y-46513036D01*
X93895212Y-46481472D01*
X93910760Y-46452383D01*
X93931686Y-46426886D01*
X93957183Y-46405960D01*
X93986272Y-46390412D01*
X94017836Y-46380837D01*
X94056798Y-46377000D01*
X95456802Y-46377000D01*
X95495764Y-46380837D01*
X95495764Y-46380837D01*
G37*
M02*
