G04 #@! TF.GenerationSoftware,KiCad,Pcbnew,(5.0.1-3-g963ef8bb5)*
G04 #@! TF.CreationDate,2019-09-07T00:25:15+09:00*
G04 #@! TF.ProjectId,switch42,73776974636834322E6B696361645F70,rev?*
G04 #@! TF.SameCoordinates,Original*
G04 #@! TF.FileFunction,Copper,L1,Top,Signal*
G04 #@! TF.FilePolarity,Positive*
%FSLAX46Y46*%
G04 Gerber Fmt 4.6, Leading zero omitted, Abs format (unit mm)*
G04 Created by KiCad (PCBNEW (5.0.1-3-g963ef8bb5)) date 2019 September 07, Saturday 00:25:15*
%MOMM*%
%LPD*%
G01*
G04 APERTURE LIST*
G04 #@! TA.AperFunction,ComponentPad*
%ADD10C,1.450000*%
G04 #@! TD*
G04 #@! TA.AperFunction,ComponentPad*
%ADD11O,1.900000X1.200000*%
G04 #@! TD*
G04 #@! TA.AperFunction,SMDPad,CuDef*
%ADD12R,1.600000X0.850000*%
G04 #@! TD*
G04 #@! TA.AperFunction,WasherPad*
%ADD13C,2.400000*%
G04 #@! TD*
G04 #@! TA.AperFunction,ViaPad*
%ADD14C,0.800000*%
G04 #@! TD*
G04 #@! TA.AperFunction,Conductor*
%ADD15C,0.500000*%
G04 #@! TD*
G04 #@! TA.AperFunction,Conductor*
%ADD16C,0.250000*%
G04 #@! TD*
G04 #@! TA.AperFunction,Conductor*
%ADD17C,0.254000*%
G04 #@! TD*
G04 APERTURE END LIST*
D10*
G04 #@! TO.P,J1,6*
G04 #@! TO.N,GND*
X64919300Y-57077000D03*
X64919300Y-52077000D03*
D11*
X62219300Y-58077000D03*
X62219300Y-51077000D03*
G04 #@! TD*
D12*
G04 #@! TO.P,D1,1*
G04 #@! TO.N,Net-(D1-Pad1)*
X69006800Y-60202000D03*
G04 #@! TO.P,D1,2*
G04 #@! TO.N,UVCC*
X69006800Y-61952000D03*
G04 #@! TO.P,D1,4*
G04 #@! TO.N,GND*
X72506800Y-60202000D03*
G04 #@! TO.P,D1,3*
G04 #@! TO.N,LED*
X72506800Y-61952000D03*
G04 #@! TD*
G04 #@! TO.P,D2,3*
G04 #@! TO.N,Net-(D1-Pad1)*
X92506800Y-61952000D03*
G04 #@! TO.P,D2,4*
G04 #@! TO.N,GND*
X92506800Y-60202000D03*
G04 #@! TO.P,D2,2*
G04 #@! TO.N,UVCC*
X89006800Y-61952000D03*
G04 #@! TO.P,D2,1*
G04 #@! TO.N,Net-(D2-Pad1)*
X89006800Y-60202000D03*
G04 #@! TD*
G04 #@! TO.P,D3,1*
G04 #@! TO.N,Net-(D3-Pad1)*
X109006800Y-60202000D03*
G04 #@! TO.P,D3,2*
G04 #@! TO.N,UVCC*
X109006800Y-61952000D03*
G04 #@! TO.P,D3,4*
G04 #@! TO.N,GND*
X112506800Y-60202000D03*
G04 #@! TO.P,D3,3*
G04 #@! TO.N,Net-(D2-Pad1)*
X112506800Y-61952000D03*
G04 #@! TD*
G04 #@! TO.P,D4,3*
G04 #@! TO.N,Net-(D3-Pad1)*
X132506800Y-61952000D03*
G04 #@! TO.P,D4,4*
G04 #@! TO.N,GND*
X132506800Y-60202000D03*
G04 #@! TO.P,D4,2*
G04 #@! TO.N,UVCC*
X129006800Y-61952000D03*
G04 #@! TO.P,D4,1*
G04 #@! TO.N,Net-(D4-Pad1)*
X129006800Y-60202000D03*
G04 #@! TD*
G04 #@! TO.P,D5,1*
G04 #@! TO.N,Net-(D5-Pad1)*
X149006800Y-60202000D03*
G04 #@! TO.P,D5,2*
G04 #@! TO.N,UVCC*
X149006800Y-61952000D03*
G04 #@! TO.P,D5,4*
G04 #@! TO.N,GND*
X152506800Y-60202000D03*
G04 #@! TO.P,D5,3*
G04 #@! TO.N,Net-(D4-Pad1)*
X152506800Y-61952000D03*
G04 #@! TD*
D13*
G04 #@! TO.P,Ref\002A\002A,*
G04 #@! TO.N,*
X158256800Y-47077000D03*
G04 #@! TD*
G04 #@! TO.P,Ref\002A\002A,*
G04 #@! TO.N,*
X158256800Y-62077000D03*
G04 #@! TD*
G04 #@! TO.P,Ref\002A\002A,*
G04 #@! TO.N,*
X63256800Y-47077000D03*
G04 #@! TD*
G04 #@! TO.P,Ref\002A\002A,*
G04 #@! TO.N,*
X63256800Y-62077000D03*
G04 #@! TD*
D14*
G04 #@! TO.N,UVCC*
X77256800Y-63077000D03*
G04 #@! TO.N,LED*
X73756800Y-62077000D03*
G04 #@! TO.N,GND*
X93808621Y-57577000D03*
G04 #@! TD*
D15*
G04 #@! TO.N,UVCC*
X69006800Y-61952000D02*
X69381800Y-61952000D01*
X69006800Y-61952000D02*
X68631800Y-61952000D01*
X87706800Y-61952000D02*
X89006800Y-61952000D01*
X70306800Y-61952000D02*
X71431800Y-63077000D01*
X86581800Y-63077000D02*
X87706800Y-61952000D01*
X69006800Y-61952000D02*
X70306800Y-61952000D01*
X107706800Y-61952000D02*
X109006800Y-61952000D01*
X90256801Y-62827001D02*
X106831799Y-62827001D01*
X106831799Y-62827001D02*
X107706800Y-61952000D01*
X89381800Y-61952000D02*
X90256801Y-62827001D01*
X89006800Y-61952000D02*
X89381800Y-61952000D01*
X126831799Y-62827001D02*
X127706800Y-61952000D01*
X110756801Y-62827001D02*
X126831799Y-62827001D01*
X109881800Y-61952000D02*
X110756801Y-62827001D01*
X127706800Y-61952000D02*
X129006800Y-61952000D01*
X109006800Y-61952000D02*
X109881800Y-61952000D01*
X147706800Y-61952000D02*
X149006800Y-61952000D01*
X131181801Y-62827001D02*
X146831799Y-62827001D01*
X130306800Y-61952000D02*
X131181801Y-62827001D01*
X146831799Y-62827001D02*
X147706800Y-61952000D01*
X129006800Y-61952000D02*
X130306800Y-61952000D01*
X77256800Y-63077000D02*
X86581800Y-63077000D01*
X71431800Y-63077000D02*
X77256800Y-63077000D01*
D16*
G04 #@! TO.N,LED*
X72631800Y-62077000D02*
X72506800Y-61952000D01*
X73756800Y-62077000D02*
X72631800Y-62077000D01*
D15*
G04 #@! TO.N,GND*
X92506800Y-58878821D02*
X93808621Y-57577000D01*
X92506800Y-60202000D02*
X92506800Y-58878821D01*
D16*
G04 #@! TO.N,Net-(D1-Pad1)*
X91456800Y-61952000D02*
X92506800Y-61952000D01*
X70381799Y-61201999D02*
X90706799Y-61201999D01*
X90706799Y-61201999D02*
X91456800Y-61952000D01*
X69381800Y-60202000D02*
X70381799Y-61201999D01*
X69006800Y-60202000D02*
X69381800Y-60202000D01*
G04 #@! TO.N,Net-(D2-Pad1)*
X111456800Y-61952000D02*
X112506800Y-61952000D01*
X91696797Y-61201999D02*
X110706799Y-61201999D01*
X90696798Y-60202000D02*
X91696797Y-61201999D01*
X110706799Y-61201999D02*
X111456800Y-61952000D01*
X89006800Y-60202000D02*
X90696798Y-60202000D01*
G04 #@! TO.N,Net-(D3-Pad1)*
X131456800Y-61952000D02*
X132506800Y-61952000D01*
X111696797Y-61201999D02*
X130706799Y-61201999D01*
X130706799Y-61201999D02*
X131456800Y-61952000D01*
X110696798Y-60202000D02*
X111696797Y-61201999D01*
X109006800Y-60202000D02*
X110696798Y-60202000D01*
G04 #@! TO.N,Net-(D4-Pad1)*
X151456800Y-61952000D02*
X152506800Y-61952000D01*
X150706799Y-61201999D02*
X151456800Y-61952000D01*
X130343210Y-60202000D02*
X131343209Y-61201999D01*
X131343209Y-61201999D02*
X150706799Y-61201999D01*
X129006800Y-60202000D02*
X130343210Y-60202000D01*
G04 #@! TD*
D17*
G04 #@! TO.N,GND*
G36*
X93216639Y-45956517D02*
X93166997Y-45987197D01*
X93139467Y-46028399D01*
X93129800Y-46077000D01*
X93129800Y-48927082D01*
X90277679Y-48451728D01*
X90208199Y-48459667D01*
X90166997Y-48487197D01*
X88166997Y-50487197D01*
X88139467Y-50528399D01*
X88129800Y-50577000D01*
X88139467Y-50625601D01*
X88166997Y-50666803D01*
X89666997Y-52166803D01*
X89708199Y-52194333D01*
X89756800Y-52204000D01*
X89805401Y-52194333D01*
X89846603Y-52166803D01*
X91309406Y-50704000D01*
X92204194Y-50704000D01*
X93166997Y-51666803D01*
X93208199Y-51694333D01*
X93256800Y-51704000D01*
X95629800Y-51704000D01*
X95629800Y-54577000D01*
X95639467Y-54625601D01*
X95666997Y-54666803D01*
X95708199Y-54694333D01*
X95756800Y-54704000D01*
X101756800Y-54704000D01*
X101805401Y-54694333D01*
X101846603Y-54666803D01*
X101874133Y-54625601D01*
X101883800Y-54577000D01*
X101883800Y-45272000D01*
X157819370Y-45272000D01*
X157217356Y-45521362D01*
X156701162Y-46037556D01*
X156421800Y-46711996D01*
X156421800Y-47442004D01*
X156701162Y-48116444D01*
X157217356Y-48632638D01*
X157891796Y-48912000D01*
X158621804Y-48912000D01*
X159296244Y-48632638D01*
X159812438Y-48116444D01*
X160061801Y-47514428D01*
X160061800Y-61639570D01*
X159812438Y-61037556D01*
X159296244Y-60521362D01*
X158621804Y-60242000D01*
X157891796Y-60242000D01*
X157217356Y-60521362D01*
X156701162Y-61037556D01*
X156421800Y-61711996D01*
X156421800Y-62442004D01*
X156701162Y-63116444D01*
X157217356Y-63632638D01*
X157819370Y-63882000D01*
X86969991Y-63882000D01*
X87219849Y-63715049D01*
X87269225Y-63641153D01*
X87944760Y-62965619D01*
X87959035Y-62975157D01*
X88206800Y-63024440D01*
X89202661Y-63024440D01*
X89569378Y-63391157D01*
X89618752Y-63465050D01*
X89692645Y-63514424D01*
X89692646Y-63514425D01*
X89789464Y-63579117D01*
X89911491Y-63660653D01*
X90169636Y-63712001D01*
X90169640Y-63712001D01*
X90256800Y-63729338D01*
X90343960Y-63712001D01*
X106744638Y-63712001D01*
X106831799Y-63729338D01*
X106918960Y-63712001D01*
X106918964Y-63712001D01*
X107177109Y-63660653D01*
X107469848Y-63465050D01*
X107519224Y-63391154D01*
X107944760Y-62965619D01*
X107959035Y-62975157D01*
X108206800Y-63024440D01*
X109702661Y-63024440D01*
X110069378Y-63391157D01*
X110118752Y-63465050D01*
X110192645Y-63514424D01*
X110192646Y-63514425D01*
X110289464Y-63579117D01*
X110411491Y-63660653D01*
X110669636Y-63712001D01*
X110669640Y-63712001D01*
X110756800Y-63729338D01*
X110843960Y-63712001D01*
X126744638Y-63712001D01*
X126831799Y-63729338D01*
X126918960Y-63712001D01*
X126918964Y-63712001D01*
X127177109Y-63660653D01*
X127469848Y-63465050D01*
X127519224Y-63391154D01*
X127944760Y-62965619D01*
X127959035Y-62975157D01*
X128206800Y-63024440D01*
X129806800Y-63024440D01*
X130054565Y-62975157D01*
X130068840Y-62965619D01*
X130494378Y-63391157D01*
X130543752Y-63465050D01*
X130617645Y-63514424D01*
X130617646Y-63514425D01*
X130714464Y-63579117D01*
X130836491Y-63660653D01*
X131094636Y-63712001D01*
X131094640Y-63712001D01*
X131181800Y-63729338D01*
X131268960Y-63712001D01*
X146744638Y-63712001D01*
X146831799Y-63729338D01*
X146918960Y-63712001D01*
X146918964Y-63712001D01*
X147177109Y-63660653D01*
X147469848Y-63465050D01*
X147519224Y-63391154D01*
X147944760Y-62965619D01*
X147959035Y-62975157D01*
X148206800Y-63024440D01*
X149806800Y-63024440D01*
X150054565Y-62975157D01*
X150264609Y-62834809D01*
X150404957Y-62624765D01*
X150454240Y-62377000D01*
X150454240Y-62024241D01*
X150866470Y-62436472D01*
X150908871Y-62499929D01*
X151119082Y-62640387D01*
X151248991Y-62834809D01*
X151459035Y-62975157D01*
X151706800Y-63024440D01*
X153306800Y-63024440D01*
X153554565Y-62975157D01*
X153764609Y-62834809D01*
X153904957Y-62624765D01*
X153954240Y-62377000D01*
X153954240Y-61527000D01*
X153904957Y-61279235D01*
X153764609Y-61069191D01*
X153763425Y-61068400D01*
X153845127Y-60986699D01*
X153941800Y-60753310D01*
X153941800Y-60487750D01*
X153783050Y-60329000D01*
X152633800Y-60329000D01*
X152633800Y-60349000D01*
X152379800Y-60349000D01*
X152379800Y-60329000D01*
X151230550Y-60329000D01*
X151071800Y-60487750D01*
X151071800Y-60531841D01*
X151003336Y-60486095D01*
X150781651Y-60441999D01*
X150781646Y-60441999D01*
X150706799Y-60427111D01*
X150631952Y-60441999D01*
X150454240Y-60441999D01*
X150454240Y-59777000D01*
X150429116Y-59650690D01*
X151071800Y-59650690D01*
X151071800Y-59916250D01*
X151230550Y-60075000D01*
X152379800Y-60075000D01*
X152379800Y-59300750D01*
X152633800Y-59300750D01*
X152633800Y-60075000D01*
X153783050Y-60075000D01*
X153941800Y-59916250D01*
X153941800Y-59650690D01*
X153845127Y-59417301D01*
X153666498Y-59238673D01*
X153433109Y-59142000D01*
X152792550Y-59142000D01*
X152633800Y-59300750D01*
X152379800Y-59300750D01*
X152221050Y-59142000D01*
X151580491Y-59142000D01*
X151347102Y-59238673D01*
X151168473Y-59417301D01*
X151071800Y-59650690D01*
X150429116Y-59650690D01*
X150404957Y-59529235D01*
X150264609Y-59319191D01*
X150054565Y-59178843D01*
X149806800Y-59129560D01*
X148206800Y-59129560D01*
X147959035Y-59178843D01*
X147748991Y-59319191D01*
X147608643Y-59529235D01*
X147559360Y-59777000D01*
X147559360Y-60441999D01*
X133896049Y-60441999D01*
X133783050Y-60329000D01*
X132633800Y-60329000D01*
X132633800Y-60349000D01*
X132379800Y-60349000D01*
X132379800Y-60329000D01*
X132359800Y-60329000D01*
X132359800Y-60075000D01*
X132379800Y-60075000D01*
X132379800Y-59300750D01*
X132633800Y-59300750D01*
X132633800Y-60075000D01*
X133783050Y-60075000D01*
X133941800Y-59916250D01*
X133941800Y-59650690D01*
X133845127Y-59417301D01*
X133666498Y-59238673D01*
X133433109Y-59142000D01*
X132792550Y-59142000D01*
X132633800Y-59300750D01*
X132379800Y-59300750D01*
X132221050Y-59142000D01*
X131580491Y-59142000D01*
X131347102Y-59238673D01*
X131168473Y-59417301D01*
X131071800Y-59650690D01*
X131071800Y-59855789D01*
X130933541Y-59717530D01*
X130891139Y-59654071D01*
X130639747Y-59486096D01*
X130418062Y-59442000D01*
X130418057Y-59442000D01*
X130343210Y-59427112D01*
X130337481Y-59428251D01*
X130264609Y-59319191D01*
X130054565Y-59178843D01*
X129806800Y-59129560D01*
X128206800Y-59129560D01*
X127959035Y-59178843D01*
X127748991Y-59319191D01*
X127608643Y-59529235D01*
X127559360Y-59777000D01*
X127559360Y-60441999D01*
X113896049Y-60441999D01*
X113783050Y-60329000D01*
X112633800Y-60329000D01*
X112633800Y-60349000D01*
X112379800Y-60349000D01*
X112379800Y-60329000D01*
X112359800Y-60329000D01*
X112359800Y-60075000D01*
X112379800Y-60075000D01*
X112379800Y-59300750D01*
X112633800Y-59300750D01*
X112633800Y-60075000D01*
X113783050Y-60075000D01*
X113941800Y-59916250D01*
X113941800Y-59650690D01*
X113845127Y-59417301D01*
X113666498Y-59238673D01*
X113433109Y-59142000D01*
X112792550Y-59142000D01*
X112633800Y-59300750D01*
X112379800Y-59300750D01*
X112221050Y-59142000D01*
X111580491Y-59142000D01*
X111347102Y-59238673D01*
X111168473Y-59417301D01*
X111108189Y-59562839D01*
X110993335Y-59486096D01*
X110771650Y-59442000D01*
X110771645Y-59442000D01*
X110696798Y-59427112D01*
X110621951Y-59442000D01*
X110346668Y-59442000D01*
X110264609Y-59319191D01*
X110054565Y-59178843D01*
X109806800Y-59129560D01*
X108206800Y-59129560D01*
X107959035Y-59178843D01*
X107748991Y-59319191D01*
X107608643Y-59529235D01*
X107559360Y-59777000D01*
X107559360Y-60441999D01*
X93896049Y-60441999D01*
X93783050Y-60329000D01*
X92633800Y-60329000D01*
X92633800Y-60349000D01*
X92379800Y-60349000D01*
X92379800Y-60329000D01*
X92359800Y-60329000D01*
X92359800Y-60075000D01*
X92379800Y-60075000D01*
X92379800Y-59300750D01*
X92633800Y-59300750D01*
X92633800Y-60075000D01*
X93783050Y-60075000D01*
X93941800Y-59916250D01*
X93941800Y-59650690D01*
X93845127Y-59417301D01*
X93666498Y-59238673D01*
X93433109Y-59142000D01*
X92792550Y-59142000D01*
X92633800Y-59300750D01*
X92379800Y-59300750D01*
X92221050Y-59142000D01*
X91580491Y-59142000D01*
X91347102Y-59238673D01*
X91168473Y-59417301D01*
X91108189Y-59562839D01*
X90993335Y-59486096D01*
X90771650Y-59442000D01*
X90771645Y-59442000D01*
X90696798Y-59427112D01*
X90621951Y-59442000D01*
X90346668Y-59442000D01*
X90264609Y-59319191D01*
X90054565Y-59178843D01*
X89806800Y-59129560D01*
X88206800Y-59129560D01*
X87959035Y-59178843D01*
X87748991Y-59319191D01*
X87608643Y-59529235D01*
X87559360Y-59777000D01*
X87559360Y-60441999D01*
X73896049Y-60441999D01*
X73783050Y-60329000D01*
X72633800Y-60329000D01*
X72633800Y-60349000D01*
X72379800Y-60349000D01*
X72379800Y-60329000D01*
X71230550Y-60329000D01*
X71117551Y-60441999D01*
X70696601Y-60441999D01*
X70454240Y-60199638D01*
X70454240Y-59777000D01*
X70429116Y-59650690D01*
X71071800Y-59650690D01*
X71071800Y-59916250D01*
X71230550Y-60075000D01*
X72379800Y-60075000D01*
X72379800Y-59300750D01*
X72633800Y-59300750D01*
X72633800Y-60075000D01*
X73783050Y-60075000D01*
X73941800Y-59916250D01*
X73941800Y-59650690D01*
X73845127Y-59417301D01*
X73666498Y-59238673D01*
X73433109Y-59142000D01*
X72792550Y-59142000D01*
X72633800Y-59300750D01*
X72379800Y-59300750D01*
X72221050Y-59142000D01*
X71580491Y-59142000D01*
X71347102Y-59238673D01*
X71168473Y-59417301D01*
X71071800Y-59650690D01*
X70429116Y-59650690D01*
X70404957Y-59529235D01*
X70264609Y-59319191D01*
X70054565Y-59178843D01*
X69806800Y-59129560D01*
X68206800Y-59129560D01*
X67959035Y-59178843D01*
X67748991Y-59319191D01*
X67608643Y-59529235D01*
X67559360Y-59777000D01*
X67559360Y-60627000D01*
X67608643Y-60874765D01*
X67743773Y-61077000D01*
X67608643Y-61279235D01*
X67559360Y-61527000D01*
X67559360Y-62377000D01*
X67608643Y-62624765D01*
X67748991Y-62834809D01*
X67959035Y-62975157D01*
X68206800Y-63024440D01*
X69806800Y-63024440D01*
X70054565Y-62975157D01*
X70068840Y-62965619D01*
X70744377Y-63641156D01*
X70793751Y-63715049D01*
X70867644Y-63764423D01*
X70867645Y-63764424D01*
X70959869Y-63826046D01*
X71043609Y-63882000D01*
X63694230Y-63882000D01*
X64296244Y-63632638D01*
X64812438Y-63116444D01*
X65091800Y-62442004D01*
X65091800Y-61711996D01*
X64812438Y-61037556D01*
X64296244Y-60521362D01*
X63621804Y-60242000D01*
X62891796Y-60242000D01*
X62217356Y-60521362D01*
X61701162Y-61037556D01*
X61451800Y-61639570D01*
X61451800Y-59222512D01*
X61742300Y-59312000D01*
X62092300Y-59312000D01*
X62092300Y-58204000D01*
X62346300Y-58204000D01*
X62346300Y-59312000D01*
X62696300Y-59312000D01*
X63159247Y-59169390D01*
X63532380Y-58860474D01*
X63646649Y-58644461D01*
X157071800Y-58644461D01*
X157084962Y-58710631D01*
X157084962Y-58710636D01*
X157123022Y-58901978D01*
X157123023Y-58901980D01*
X157123023Y-58901982D01*
X157170529Y-59016671D01*
X157225303Y-59148907D01*
X157225304Y-59148908D01*
X157225305Y-59148910D01*
X157333692Y-59311121D01*
X157428186Y-59405614D01*
X157522679Y-59500108D01*
X157684890Y-59608495D01*
X157684892Y-59608496D01*
X157684893Y-59608497D01*
X157794919Y-59654071D01*
X157931818Y-59710777D01*
X157931820Y-59710777D01*
X157931822Y-59710778D01*
X158123165Y-59748838D01*
X158390436Y-59748838D01*
X158581778Y-59710778D01*
X158581780Y-59710777D01*
X158581782Y-59710777D01*
X158718681Y-59654071D01*
X158828707Y-59608497D01*
X158828708Y-59608496D01*
X158828710Y-59608495D01*
X158990921Y-59500108D01*
X159085414Y-59405614D01*
X159179908Y-59311121D01*
X159288295Y-59148910D01*
X159288296Y-59148908D01*
X159288297Y-59148907D01*
X159343071Y-59016671D01*
X159390577Y-58901982D01*
X159390577Y-58901980D01*
X159390578Y-58901978D01*
X159428638Y-58710635D01*
X159428638Y-58710632D01*
X159441800Y-58644462D01*
X159441800Y-50509538D01*
X159428638Y-50443368D01*
X159428638Y-50443365D01*
X159390578Y-50252022D01*
X159390577Y-50252020D01*
X159390577Y-50252018D01*
X159323389Y-50089813D01*
X159288297Y-50005093D01*
X159288295Y-50005091D01*
X159288295Y-50005090D01*
X159179908Y-49842879D01*
X159050847Y-49713819D01*
X158990921Y-49653892D01*
X158828710Y-49545505D01*
X158828708Y-49545504D01*
X158828707Y-49545503D01*
X158696471Y-49490729D01*
X158581782Y-49443223D01*
X158581780Y-49443223D01*
X158581778Y-49443222D01*
X158390436Y-49405162D01*
X158123165Y-49405162D01*
X157931822Y-49443222D01*
X157931820Y-49443223D01*
X157931818Y-49443223D01*
X157817129Y-49490729D01*
X157684893Y-49545503D01*
X157684892Y-49545504D01*
X157684890Y-49545505D01*
X157522679Y-49653892D01*
X157462753Y-49713819D01*
X157333692Y-49842879D01*
X157225305Y-50005090D01*
X157225305Y-50005091D01*
X157225303Y-50005093D01*
X157190211Y-50089813D01*
X157123023Y-50252018D01*
X157123023Y-50252020D01*
X157123022Y-50252022D01*
X157084962Y-50443364D01*
X157084962Y-50443373D01*
X157071801Y-50509538D01*
X157071800Y-58644461D01*
X63646649Y-58644461D01*
X63758892Y-58432281D01*
X63762762Y-58394609D01*
X63638031Y-58204000D01*
X62346300Y-58204000D01*
X62092300Y-58204000D01*
X62072300Y-58204000D01*
X62072300Y-58030398D01*
X64145507Y-58030398D01*
X64210422Y-58268753D01*
X64720446Y-58449312D01*
X65260744Y-58420949D01*
X65628178Y-58268753D01*
X65693093Y-58030398D01*
X64919300Y-57256605D01*
X64145507Y-58030398D01*
X62072300Y-58030398D01*
X62072300Y-57950000D01*
X62092300Y-57950000D01*
X62092300Y-56842000D01*
X62346300Y-56842000D01*
X62346300Y-57950000D01*
X63638031Y-57950000D01*
X63742724Y-57790012D01*
X63965902Y-57850793D01*
X64739695Y-57077000D01*
X65098905Y-57077000D01*
X65872698Y-57850793D01*
X66111053Y-57785878D01*
X66291612Y-57275854D01*
X66263249Y-56735556D01*
X66111053Y-56368122D01*
X65872698Y-56303207D01*
X65098905Y-57077000D01*
X64739695Y-57077000D01*
X63965902Y-56303207D01*
X63727547Y-56368122D01*
X63546988Y-56878146D01*
X63572805Y-57369945D01*
X63532380Y-57293526D01*
X63159247Y-56984610D01*
X62696300Y-56842000D01*
X62346300Y-56842000D01*
X62092300Y-56842000D01*
X61742300Y-56842000D01*
X61451800Y-56931488D01*
X61451800Y-56123602D01*
X64145507Y-56123602D01*
X64919300Y-56897395D01*
X65693093Y-56123602D01*
X65628178Y-55885247D01*
X65118154Y-55704688D01*
X64577856Y-55733051D01*
X64210422Y-55885247D01*
X64145507Y-56123602D01*
X61451800Y-56123602D01*
X61451800Y-53030398D01*
X64145507Y-53030398D01*
X64210422Y-53268753D01*
X64720446Y-53449312D01*
X65260744Y-53420949D01*
X65628178Y-53268753D01*
X65693093Y-53030398D01*
X64919300Y-52256605D01*
X64145507Y-53030398D01*
X61451800Y-53030398D01*
X61451800Y-52222512D01*
X61742300Y-52312000D01*
X62092300Y-52312000D01*
X62092300Y-51204000D01*
X62346300Y-51204000D01*
X62346300Y-52312000D01*
X62696300Y-52312000D01*
X63159247Y-52169390D01*
X63532380Y-51860474D01*
X63595458Y-51741232D01*
X63546988Y-51878146D01*
X63575351Y-52418444D01*
X63727547Y-52785878D01*
X63965902Y-52850793D01*
X64739695Y-52077000D01*
X65098905Y-52077000D01*
X65872698Y-52850793D01*
X66111053Y-52785878D01*
X66291612Y-52275854D01*
X66263249Y-51735556D01*
X66111053Y-51368122D01*
X65872698Y-51303207D01*
X65098905Y-52077000D01*
X64739695Y-52077000D01*
X63965902Y-51303207D01*
X63742724Y-51363988D01*
X63638031Y-51204000D01*
X62346300Y-51204000D01*
X62092300Y-51204000D01*
X62072300Y-51204000D01*
X62072300Y-51123602D01*
X64145507Y-51123602D01*
X64919300Y-51897395D01*
X65693093Y-51123602D01*
X65628178Y-50885247D01*
X65118154Y-50704688D01*
X64577856Y-50733051D01*
X64210422Y-50885247D01*
X64145507Y-51123602D01*
X62072300Y-51123602D01*
X62072300Y-50950000D01*
X62092300Y-50950000D01*
X62092300Y-49842000D01*
X62346300Y-49842000D01*
X62346300Y-50950000D01*
X63638031Y-50950000D01*
X63762762Y-50759391D01*
X63758892Y-50721719D01*
X63532380Y-50293526D01*
X63159247Y-49984610D01*
X62696300Y-49842000D01*
X62346300Y-49842000D01*
X62092300Y-49842000D01*
X61742300Y-49842000D01*
X61451800Y-49931488D01*
X61451800Y-47514430D01*
X61701162Y-48116444D01*
X62217356Y-48632638D01*
X62891796Y-48912000D01*
X63621804Y-48912000D01*
X64296244Y-48632638D01*
X64812438Y-48116444D01*
X65091800Y-47442004D01*
X65091800Y-46711996D01*
X64812438Y-46037556D01*
X64296244Y-45521362D01*
X63694230Y-45272000D01*
X95270190Y-45272000D01*
X93216639Y-45956517D01*
X93216639Y-45956517D01*
G37*
X93216639Y-45956517D02*
X93166997Y-45987197D01*
X93139467Y-46028399D01*
X93129800Y-46077000D01*
X93129800Y-48927082D01*
X90277679Y-48451728D01*
X90208199Y-48459667D01*
X90166997Y-48487197D01*
X88166997Y-50487197D01*
X88139467Y-50528399D01*
X88129800Y-50577000D01*
X88139467Y-50625601D01*
X88166997Y-50666803D01*
X89666997Y-52166803D01*
X89708199Y-52194333D01*
X89756800Y-52204000D01*
X89805401Y-52194333D01*
X89846603Y-52166803D01*
X91309406Y-50704000D01*
X92204194Y-50704000D01*
X93166997Y-51666803D01*
X93208199Y-51694333D01*
X93256800Y-51704000D01*
X95629800Y-51704000D01*
X95629800Y-54577000D01*
X95639467Y-54625601D01*
X95666997Y-54666803D01*
X95708199Y-54694333D01*
X95756800Y-54704000D01*
X101756800Y-54704000D01*
X101805401Y-54694333D01*
X101846603Y-54666803D01*
X101874133Y-54625601D01*
X101883800Y-54577000D01*
X101883800Y-45272000D01*
X157819370Y-45272000D01*
X157217356Y-45521362D01*
X156701162Y-46037556D01*
X156421800Y-46711996D01*
X156421800Y-47442004D01*
X156701162Y-48116444D01*
X157217356Y-48632638D01*
X157891796Y-48912000D01*
X158621804Y-48912000D01*
X159296244Y-48632638D01*
X159812438Y-48116444D01*
X160061801Y-47514428D01*
X160061800Y-61639570D01*
X159812438Y-61037556D01*
X159296244Y-60521362D01*
X158621804Y-60242000D01*
X157891796Y-60242000D01*
X157217356Y-60521362D01*
X156701162Y-61037556D01*
X156421800Y-61711996D01*
X156421800Y-62442004D01*
X156701162Y-63116444D01*
X157217356Y-63632638D01*
X157819370Y-63882000D01*
X86969991Y-63882000D01*
X87219849Y-63715049D01*
X87269225Y-63641153D01*
X87944760Y-62965619D01*
X87959035Y-62975157D01*
X88206800Y-63024440D01*
X89202661Y-63024440D01*
X89569378Y-63391157D01*
X89618752Y-63465050D01*
X89692645Y-63514424D01*
X89692646Y-63514425D01*
X89789464Y-63579117D01*
X89911491Y-63660653D01*
X90169636Y-63712001D01*
X90169640Y-63712001D01*
X90256800Y-63729338D01*
X90343960Y-63712001D01*
X106744638Y-63712001D01*
X106831799Y-63729338D01*
X106918960Y-63712001D01*
X106918964Y-63712001D01*
X107177109Y-63660653D01*
X107469848Y-63465050D01*
X107519224Y-63391154D01*
X107944760Y-62965619D01*
X107959035Y-62975157D01*
X108206800Y-63024440D01*
X109702661Y-63024440D01*
X110069378Y-63391157D01*
X110118752Y-63465050D01*
X110192645Y-63514424D01*
X110192646Y-63514425D01*
X110289464Y-63579117D01*
X110411491Y-63660653D01*
X110669636Y-63712001D01*
X110669640Y-63712001D01*
X110756800Y-63729338D01*
X110843960Y-63712001D01*
X126744638Y-63712001D01*
X126831799Y-63729338D01*
X126918960Y-63712001D01*
X126918964Y-63712001D01*
X127177109Y-63660653D01*
X127469848Y-63465050D01*
X127519224Y-63391154D01*
X127944760Y-62965619D01*
X127959035Y-62975157D01*
X128206800Y-63024440D01*
X129806800Y-63024440D01*
X130054565Y-62975157D01*
X130068840Y-62965619D01*
X130494378Y-63391157D01*
X130543752Y-63465050D01*
X130617645Y-63514424D01*
X130617646Y-63514425D01*
X130714464Y-63579117D01*
X130836491Y-63660653D01*
X131094636Y-63712001D01*
X131094640Y-63712001D01*
X131181800Y-63729338D01*
X131268960Y-63712001D01*
X146744638Y-63712001D01*
X146831799Y-63729338D01*
X146918960Y-63712001D01*
X146918964Y-63712001D01*
X147177109Y-63660653D01*
X147469848Y-63465050D01*
X147519224Y-63391154D01*
X147944760Y-62965619D01*
X147959035Y-62975157D01*
X148206800Y-63024440D01*
X149806800Y-63024440D01*
X150054565Y-62975157D01*
X150264609Y-62834809D01*
X150404957Y-62624765D01*
X150454240Y-62377000D01*
X150454240Y-62024241D01*
X150866470Y-62436472D01*
X150908871Y-62499929D01*
X151119082Y-62640387D01*
X151248991Y-62834809D01*
X151459035Y-62975157D01*
X151706800Y-63024440D01*
X153306800Y-63024440D01*
X153554565Y-62975157D01*
X153764609Y-62834809D01*
X153904957Y-62624765D01*
X153954240Y-62377000D01*
X153954240Y-61527000D01*
X153904957Y-61279235D01*
X153764609Y-61069191D01*
X153763425Y-61068400D01*
X153845127Y-60986699D01*
X153941800Y-60753310D01*
X153941800Y-60487750D01*
X153783050Y-60329000D01*
X152633800Y-60329000D01*
X152633800Y-60349000D01*
X152379800Y-60349000D01*
X152379800Y-60329000D01*
X151230550Y-60329000D01*
X151071800Y-60487750D01*
X151071800Y-60531841D01*
X151003336Y-60486095D01*
X150781651Y-60441999D01*
X150781646Y-60441999D01*
X150706799Y-60427111D01*
X150631952Y-60441999D01*
X150454240Y-60441999D01*
X150454240Y-59777000D01*
X150429116Y-59650690D01*
X151071800Y-59650690D01*
X151071800Y-59916250D01*
X151230550Y-60075000D01*
X152379800Y-60075000D01*
X152379800Y-59300750D01*
X152633800Y-59300750D01*
X152633800Y-60075000D01*
X153783050Y-60075000D01*
X153941800Y-59916250D01*
X153941800Y-59650690D01*
X153845127Y-59417301D01*
X153666498Y-59238673D01*
X153433109Y-59142000D01*
X152792550Y-59142000D01*
X152633800Y-59300750D01*
X152379800Y-59300750D01*
X152221050Y-59142000D01*
X151580491Y-59142000D01*
X151347102Y-59238673D01*
X151168473Y-59417301D01*
X151071800Y-59650690D01*
X150429116Y-59650690D01*
X150404957Y-59529235D01*
X150264609Y-59319191D01*
X150054565Y-59178843D01*
X149806800Y-59129560D01*
X148206800Y-59129560D01*
X147959035Y-59178843D01*
X147748991Y-59319191D01*
X147608643Y-59529235D01*
X147559360Y-59777000D01*
X147559360Y-60441999D01*
X133896049Y-60441999D01*
X133783050Y-60329000D01*
X132633800Y-60329000D01*
X132633800Y-60349000D01*
X132379800Y-60349000D01*
X132379800Y-60329000D01*
X132359800Y-60329000D01*
X132359800Y-60075000D01*
X132379800Y-60075000D01*
X132379800Y-59300750D01*
X132633800Y-59300750D01*
X132633800Y-60075000D01*
X133783050Y-60075000D01*
X133941800Y-59916250D01*
X133941800Y-59650690D01*
X133845127Y-59417301D01*
X133666498Y-59238673D01*
X133433109Y-59142000D01*
X132792550Y-59142000D01*
X132633800Y-59300750D01*
X132379800Y-59300750D01*
X132221050Y-59142000D01*
X131580491Y-59142000D01*
X131347102Y-59238673D01*
X131168473Y-59417301D01*
X131071800Y-59650690D01*
X131071800Y-59855789D01*
X130933541Y-59717530D01*
X130891139Y-59654071D01*
X130639747Y-59486096D01*
X130418062Y-59442000D01*
X130418057Y-59442000D01*
X130343210Y-59427112D01*
X130337481Y-59428251D01*
X130264609Y-59319191D01*
X130054565Y-59178843D01*
X129806800Y-59129560D01*
X128206800Y-59129560D01*
X127959035Y-59178843D01*
X127748991Y-59319191D01*
X127608643Y-59529235D01*
X127559360Y-59777000D01*
X127559360Y-60441999D01*
X113896049Y-60441999D01*
X113783050Y-60329000D01*
X112633800Y-60329000D01*
X112633800Y-60349000D01*
X112379800Y-60349000D01*
X112379800Y-60329000D01*
X112359800Y-60329000D01*
X112359800Y-60075000D01*
X112379800Y-60075000D01*
X112379800Y-59300750D01*
X112633800Y-59300750D01*
X112633800Y-60075000D01*
X113783050Y-60075000D01*
X113941800Y-59916250D01*
X113941800Y-59650690D01*
X113845127Y-59417301D01*
X113666498Y-59238673D01*
X113433109Y-59142000D01*
X112792550Y-59142000D01*
X112633800Y-59300750D01*
X112379800Y-59300750D01*
X112221050Y-59142000D01*
X111580491Y-59142000D01*
X111347102Y-59238673D01*
X111168473Y-59417301D01*
X111108189Y-59562839D01*
X110993335Y-59486096D01*
X110771650Y-59442000D01*
X110771645Y-59442000D01*
X110696798Y-59427112D01*
X110621951Y-59442000D01*
X110346668Y-59442000D01*
X110264609Y-59319191D01*
X110054565Y-59178843D01*
X109806800Y-59129560D01*
X108206800Y-59129560D01*
X107959035Y-59178843D01*
X107748991Y-59319191D01*
X107608643Y-59529235D01*
X107559360Y-59777000D01*
X107559360Y-60441999D01*
X93896049Y-60441999D01*
X93783050Y-60329000D01*
X92633800Y-60329000D01*
X92633800Y-60349000D01*
X92379800Y-60349000D01*
X92379800Y-60329000D01*
X92359800Y-60329000D01*
X92359800Y-60075000D01*
X92379800Y-60075000D01*
X92379800Y-59300750D01*
X92633800Y-59300750D01*
X92633800Y-60075000D01*
X93783050Y-60075000D01*
X93941800Y-59916250D01*
X93941800Y-59650690D01*
X93845127Y-59417301D01*
X93666498Y-59238673D01*
X93433109Y-59142000D01*
X92792550Y-59142000D01*
X92633800Y-59300750D01*
X92379800Y-59300750D01*
X92221050Y-59142000D01*
X91580491Y-59142000D01*
X91347102Y-59238673D01*
X91168473Y-59417301D01*
X91108189Y-59562839D01*
X90993335Y-59486096D01*
X90771650Y-59442000D01*
X90771645Y-59442000D01*
X90696798Y-59427112D01*
X90621951Y-59442000D01*
X90346668Y-59442000D01*
X90264609Y-59319191D01*
X90054565Y-59178843D01*
X89806800Y-59129560D01*
X88206800Y-59129560D01*
X87959035Y-59178843D01*
X87748991Y-59319191D01*
X87608643Y-59529235D01*
X87559360Y-59777000D01*
X87559360Y-60441999D01*
X73896049Y-60441999D01*
X73783050Y-60329000D01*
X72633800Y-60329000D01*
X72633800Y-60349000D01*
X72379800Y-60349000D01*
X72379800Y-60329000D01*
X71230550Y-60329000D01*
X71117551Y-60441999D01*
X70696601Y-60441999D01*
X70454240Y-60199638D01*
X70454240Y-59777000D01*
X70429116Y-59650690D01*
X71071800Y-59650690D01*
X71071800Y-59916250D01*
X71230550Y-60075000D01*
X72379800Y-60075000D01*
X72379800Y-59300750D01*
X72633800Y-59300750D01*
X72633800Y-60075000D01*
X73783050Y-60075000D01*
X73941800Y-59916250D01*
X73941800Y-59650690D01*
X73845127Y-59417301D01*
X73666498Y-59238673D01*
X73433109Y-59142000D01*
X72792550Y-59142000D01*
X72633800Y-59300750D01*
X72379800Y-59300750D01*
X72221050Y-59142000D01*
X71580491Y-59142000D01*
X71347102Y-59238673D01*
X71168473Y-59417301D01*
X71071800Y-59650690D01*
X70429116Y-59650690D01*
X70404957Y-59529235D01*
X70264609Y-59319191D01*
X70054565Y-59178843D01*
X69806800Y-59129560D01*
X68206800Y-59129560D01*
X67959035Y-59178843D01*
X67748991Y-59319191D01*
X67608643Y-59529235D01*
X67559360Y-59777000D01*
X67559360Y-60627000D01*
X67608643Y-60874765D01*
X67743773Y-61077000D01*
X67608643Y-61279235D01*
X67559360Y-61527000D01*
X67559360Y-62377000D01*
X67608643Y-62624765D01*
X67748991Y-62834809D01*
X67959035Y-62975157D01*
X68206800Y-63024440D01*
X69806800Y-63024440D01*
X70054565Y-62975157D01*
X70068840Y-62965619D01*
X70744377Y-63641156D01*
X70793751Y-63715049D01*
X70867644Y-63764423D01*
X70867645Y-63764424D01*
X70959869Y-63826046D01*
X71043609Y-63882000D01*
X63694230Y-63882000D01*
X64296244Y-63632638D01*
X64812438Y-63116444D01*
X65091800Y-62442004D01*
X65091800Y-61711996D01*
X64812438Y-61037556D01*
X64296244Y-60521362D01*
X63621804Y-60242000D01*
X62891796Y-60242000D01*
X62217356Y-60521362D01*
X61701162Y-61037556D01*
X61451800Y-61639570D01*
X61451800Y-59222512D01*
X61742300Y-59312000D01*
X62092300Y-59312000D01*
X62092300Y-58204000D01*
X62346300Y-58204000D01*
X62346300Y-59312000D01*
X62696300Y-59312000D01*
X63159247Y-59169390D01*
X63532380Y-58860474D01*
X63646649Y-58644461D01*
X157071800Y-58644461D01*
X157084962Y-58710631D01*
X157084962Y-58710636D01*
X157123022Y-58901978D01*
X157123023Y-58901980D01*
X157123023Y-58901982D01*
X157170529Y-59016671D01*
X157225303Y-59148907D01*
X157225304Y-59148908D01*
X157225305Y-59148910D01*
X157333692Y-59311121D01*
X157428186Y-59405614D01*
X157522679Y-59500108D01*
X157684890Y-59608495D01*
X157684892Y-59608496D01*
X157684893Y-59608497D01*
X157794919Y-59654071D01*
X157931818Y-59710777D01*
X157931820Y-59710777D01*
X157931822Y-59710778D01*
X158123165Y-59748838D01*
X158390436Y-59748838D01*
X158581778Y-59710778D01*
X158581780Y-59710777D01*
X158581782Y-59710777D01*
X158718681Y-59654071D01*
X158828707Y-59608497D01*
X158828708Y-59608496D01*
X158828710Y-59608495D01*
X158990921Y-59500108D01*
X159085414Y-59405614D01*
X159179908Y-59311121D01*
X159288295Y-59148910D01*
X159288296Y-59148908D01*
X159288297Y-59148907D01*
X159343071Y-59016671D01*
X159390577Y-58901982D01*
X159390577Y-58901980D01*
X159390578Y-58901978D01*
X159428638Y-58710635D01*
X159428638Y-58710632D01*
X159441800Y-58644462D01*
X159441800Y-50509538D01*
X159428638Y-50443368D01*
X159428638Y-50443365D01*
X159390578Y-50252022D01*
X159390577Y-50252020D01*
X159390577Y-50252018D01*
X159323389Y-50089813D01*
X159288297Y-50005093D01*
X159288295Y-50005091D01*
X159288295Y-50005090D01*
X159179908Y-49842879D01*
X159050847Y-49713819D01*
X158990921Y-49653892D01*
X158828710Y-49545505D01*
X158828708Y-49545504D01*
X158828707Y-49545503D01*
X158696471Y-49490729D01*
X158581782Y-49443223D01*
X158581780Y-49443223D01*
X158581778Y-49443222D01*
X158390436Y-49405162D01*
X158123165Y-49405162D01*
X157931822Y-49443222D01*
X157931820Y-49443223D01*
X157931818Y-49443223D01*
X157817129Y-49490729D01*
X157684893Y-49545503D01*
X157684892Y-49545504D01*
X157684890Y-49545505D01*
X157522679Y-49653892D01*
X157462753Y-49713819D01*
X157333692Y-49842879D01*
X157225305Y-50005090D01*
X157225305Y-50005091D01*
X157225303Y-50005093D01*
X157190211Y-50089813D01*
X157123023Y-50252018D01*
X157123023Y-50252020D01*
X157123022Y-50252022D01*
X157084962Y-50443364D01*
X157084962Y-50443373D01*
X157071801Y-50509538D01*
X157071800Y-58644461D01*
X63646649Y-58644461D01*
X63758892Y-58432281D01*
X63762762Y-58394609D01*
X63638031Y-58204000D01*
X62346300Y-58204000D01*
X62092300Y-58204000D01*
X62072300Y-58204000D01*
X62072300Y-58030398D01*
X64145507Y-58030398D01*
X64210422Y-58268753D01*
X64720446Y-58449312D01*
X65260744Y-58420949D01*
X65628178Y-58268753D01*
X65693093Y-58030398D01*
X64919300Y-57256605D01*
X64145507Y-58030398D01*
X62072300Y-58030398D01*
X62072300Y-57950000D01*
X62092300Y-57950000D01*
X62092300Y-56842000D01*
X62346300Y-56842000D01*
X62346300Y-57950000D01*
X63638031Y-57950000D01*
X63742724Y-57790012D01*
X63965902Y-57850793D01*
X64739695Y-57077000D01*
X65098905Y-57077000D01*
X65872698Y-57850793D01*
X66111053Y-57785878D01*
X66291612Y-57275854D01*
X66263249Y-56735556D01*
X66111053Y-56368122D01*
X65872698Y-56303207D01*
X65098905Y-57077000D01*
X64739695Y-57077000D01*
X63965902Y-56303207D01*
X63727547Y-56368122D01*
X63546988Y-56878146D01*
X63572805Y-57369945D01*
X63532380Y-57293526D01*
X63159247Y-56984610D01*
X62696300Y-56842000D01*
X62346300Y-56842000D01*
X62092300Y-56842000D01*
X61742300Y-56842000D01*
X61451800Y-56931488D01*
X61451800Y-56123602D01*
X64145507Y-56123602D01*
X64919300Y-56897395D01*
X65693093Y-56123602D01*
X65628178Y-55885247D01*
X65118154Y-55704688D01*
X64577856Y-55733051D01*
X64210422Y-55885247D01*
X64145507Y-56123602D01*
X61451800Y-56123602D01*
X61451800Y-53030398D01*
X64145507Y-53030398D01*
X64210422Y-53268753D01*
X64720446Y-53449312D01*
X65260744Y-53420949D01*
X65628178Y-53268753D01*
X65693093Y-53030398D01*
X64919300Y-52256605D01*
X64145507Y-53030398D01*
X61451800Y-53030398D01*
X61451800Y-52222512D01*
X61742300Y-52312000D01*
X62092300Y-52312000D01*
X62092300Y-51204000D01*
X62346300Y-51204000D01*
X62346300Y-52312000D01*
X62696300Y-52312000D01*
X63159247Y-52169390D01*
X63532380Y-51860474D01*
X63595458Y-51741232D01*
X63546988Y-51878146D01*
X63575351Y-52418444D01*
X63727547Y-52785878D01*
X63965902Y-52850793D01*
X64739695Y-52077000D01*
X65098905Y-52077000D01*
X65872698Y-52850793D01*
X66111053Y-52785878D01*
X66291612Y-52275854D01*
X66263249Y-51735556D01*
X66111053Y-51368122D01*
X65872698Y-51303207D01*
X65098905Y-52077000D01*
X64739695Y-52077000D01*
X63965902Y-51303207D01*
X63742724Y-51363988D01*
X63638031Y-51204000D01*
X62346300Y-51204000D01*
X62092300Y-51204000D01*
X62072300Y-51204000D01*
X62072300Y-51123602D01*
X64145507Y-51123602D01*
X64919300Y-51897395D01*
X65693093Y-51123602D01*
X65628178Y-50885247D01*
X65118154Y-50704688D01*
X64577856Y-50733051D01*
X64210422Y-50885247D01*
X64145507Y-51123602D01*
X62072300Y-51123602D01*
X62072300Y-50950000D01*
X62092300Y-50950000D01*
X62092300Y-49842000D01*
X62346300Y-49842000D01*
X62346300Y-50950000D01*
X63638031Y-50950000D01*
X63762762Y-50759391D01*
X63758892Y-50721719D01*
X63532380Y-50293526D01*
X63159247Y-49984610D01*
X62696300Y-49842000D01*
X62346300Y-49842000D01*
X62092300Y-49842000D01*
X61742300Y-49842000D01*
X61451800Y-49931488D01*
X61451800Y-47514430D01*
X61701162Y-48116444D01*
X62217356Y-48632638D01*
X62891796Y-48912000D01*
X63621804Y-48912000D01*
X64296244Y-48632638D01*
X64812438Y-48116444D01*
X65091800Y-47442004D01*
X65091800Y-46711996D01*
X64812438Y-46037556D01*
X64296244Y-45521362D01*
X63694230Y-45272000D01*
X95270190Y-45272000D01*
X93216639Y-45956517D01*
G04 #@! TD*
M02*
